G04 (Genere par PCBnew (20080825c)) le 29/7/2009-01:25:13*
G01*
G70*
G90*
%MOIN*%
G04 Gerber Fmt 3.4, Leading zero omitted, Abs format*
%FSLAX34Y34*%
G04 APERTURE LIST*
%ADD10C,0.015000*%
%ADD11R,0.055000X0.055000*%
%ADD12C,0.055000*%
%ADD13C,0.050000*%
%ADD14C,0.060000*%
%ADD15R,0.060000X0.060000*%
%ADD16C,0.196900*%
%ADD17C,0.150000*%
%ADD18C,0.030000*%
%ADD19C,0.012000*%
%ADD20C,0.002500*%
%ADD21R,0.035000X0.055000*%
%ADD22R,0.055000X0.035000*%
%ADD23R,0.009800X0.060000*%
%ADD24O,0.009800X0.060000*%
%ADD25O,0.060000X0.009800*%
%ADD26R,0.086600X0.098400*%
%ADD27R,0.078700X0.019700*%
%ADD28R,0.144000X0.080000*%
%ADD29R,0.040000X0.080000*%
%ADD30C,0.009600*%
%ADD31C,0.015000*%
%ADD32C,0.005000*%
%ADD33C,0.008000*%
%ADD34C,0.001000*%
%ADD35C,0.007900*%
%ADD36R,0.061000X0.061000*%
%ADD37C,0.061000*%
%ADD38C,0.056000*%
%ADD39C,0.066000*%
%ADD40R,0.066000X0.066000*%
%ADD41C,0.202900*%
%ADD42C,0.156000*%
%ADD43R,0.041000X0.061000*%
%ADD44R,0.061000X0.041000*%
%ADD45R,0.015800X0.066000*%
%ADD46O,0.015800X0.066000*%
%ADD47O,0.066000X0.015800*%
%ADD48R,0.092600X0.104400*%
%ADD49R,0.084700X0.025700*%
%ADD50R,0.150000X0.086000*%
%ADD51R,0.046000X0.086000*%
%ADD52C,0.006000*%
G04 APERTURE END LIST*
G54D10*
X28500Y-26000D02*
X28500Y-54000D01*
X92000Y-26000D02*
X28500Y-26000D01*
X92000Y-26000D02*
X92000Y-54000D01*
X28500Y-54000D02*
X92000Y-54000D01*
G54D52*
X67600Y-30523D02*
X67350Y-30523D01*
X67096Y-30700D02*
X66896Y-30700D01*
X66996Y-30700D02*
X66996Y-30300D01*
X67096Y-30300D02*
X66896Y-30300D01*
X66642Y-30700D02*
X66642Y-30300D01*
X66642Y-30300D02*
X66292Y-30700D01*
X66292Y-30700D02*
X66292Y-30300D01*
X63650Y-30523D02*
X63350Y-30523D01*
X63500Y-30656D02*
X63500Y-30389D01*
X63096Y-30700D02*
X62896Y-30700D01*
X62996Y-30700D02*
X62996Y-30300D01*
X63096Y-30300D02*
X62896Y-30300D01*
X62642Y-30700D02*
X62642Y-30300D01*
X62642Y-30300D02*
X62292Y-30700D01*
X62292Y-30700D02*
X62292Y-30300D01*
X67850Y-48845D02*
X67850Y-48800D01*
X67850Y-48800D02*
X68100Y-48800D01*
X68100Y-48800D02*
X68150Y-48845D01*
X68150Y-48845D02*
X68150Y-49156D01*
X68150Y-49156D02*
X68100Y-49200D01*
X68100Y-49200D02*
X67850Y-49200D01*
X67850Y-49200D02*
X67800Y-49156D01*
X67800Y-49156D02*
X67800Y-49023D01*
X67800Y-49023D02*
X67950Y-49023D01*
X67646Y-49200D02*
X67646Y-48800D01*
X67646Y-48800D02*
X67296Y-49200D01*
X67296Y-49200D02*
X67296Y-48800D01*
X67092Y-49200D02*
X67092Y-48800D01*
X67142Y-48800D02*
X66842Y-48800D01*
X66842Y-48800D02*
X66792Y-48845D01*
X66792Y-48845D02*
X66792Y-49156D01*
X66792Y-49156D02*
X66842Y-49200D01*
X66842Y-49200D02*
X67142Y-49200D01*
X63548Y-49200D02*
X63898Y-49200D01*
X63898Y-49200D02*
X63898Y-48800D01*
X63898Y-48800D02*
X63548Y-48800D01*
X63898Y-48978D02*
X63698Y-48978D01*
X63294Y-49200D02*
X63094Y-49200D01*
X63194Y-49200D02*
X63194Y-48800D01*
X63194Y-48845D02*
X63294Y-48934D01*
X66654Y-50700D02*
X66654Y-50300D01*
X66654Y-50300D02*
X66354Y-50300D01*
X66354Y-50300D02*
X66304Y-50345D01*
X66304Y-50345D02*
X66304Y-50478D01*
X66304Y-50478D02*
X66354Y-50523D01*
X66354Y-50523D02*
X66654Y-50523D01*
X66504Y-50523D02*
X66304Y-50700D01*
X65800Y-50700D02*
X66150Y-50700D01*
X66150Y-50700D02*
X66150Y-50300D01*
X66150Y-50300D02*
X65800Y-50300D01*
X66150Y-50478D02*
X65950Y-50478D01*
X65646Y-50300D02*
X65646Y-50700D01*
X65646Y-50700D02*
X65246Y-50700D01*
X65142Y-50700D02*
X65142Y-50389D01*
X65142Y-50389D02*
X65042Y-50300D01*
X65042Y-50300D02*
X64892Y-50300D01*
X64892Y-50300D02*
X64792Y-50389D01*
X64792Y-50389D02*
X64792Y-50700D01*
X65142Y-50478D02*
X64792Y-50478D01*
X64638Y-50300D02*
X64438Y-50523D01*
X64438Y-50523D02*
X64238Y-50300D01*
X64438Y-50523D02*
X64438Y-50700D01*
X68418Y-31800D02*
X68018Y-31800D01*
X68218Y-31800D02*
X68218Y-32200D01*
X67914Y-32200D02*
X67914Y-31800D01*
X67564Y-32200D02*
X67564Y-31800D01*
X67914Y-32023D02*
X67564Y-32023D01*
X67060Y-32200D02*
X67410Y-32200D01*
X67410Y-32200D02*
X67410Y-31800D01*
X67410Y-31800D02*
X67060Y-31800D01*
X67410Y-31978D02*
X67210Y-31978D01*
X66906Y-32200D02*
X66906Y-31800D01*
X66906Y-31800D02*
X66606Y-31800D01*
X66606Y-31800D02*
X66556Y-31845D01*
X66556Y-31845D02*
X66556Y-31978D01*
X66556Y-31978D02*
X66606Y-32023D01*
X66606Y-32023D02*
X66906Y-32023D01*
X66756Y-32023D02*
X66556Y-32200D01*
X66402Y-32200D02*
X66402Y-31800D01*
X66402Y-31800D02*
X66202Y-31978D01*
X66202Y-31978D02*
X66002Y-31800D01*
X66002Y-31800D02*
X66002Y-32200D01*
X65848Y-32200D02*
X65898Y-32156D01*
X65898Y-32156D02*
X65898Y-31845D01*
X65898Y-31845D02*
X65848Y-31800D01*
X65848Y-31800D02*
X65598Y-31800D01*
X65598Y-31800D02*
X65548Y-31845D01*
X65548Y-31845D02*
X65548Y-32156D01*
X65548Y-32156D02*
X65598Y-32200D01*
X65598Y-32200D02*
X65848Y-32200D01*
X65044Y-32156D02*
X65094Y-32200D01*
X65094Y-32200D02*
X65344Y-32200D01*
X65344Y-32200D02*
X65394Y-32156D01*
X65394Y-32156D02*
X65394Y-31845D01*
X65394Y-31845D02*
X65344Y-31800D01*
X65344Y-31800D02*
X65094Y-31800D01*
X65094Y-31800D02*
X65044Y-31845D01*
X64840Y-32200D02*
X64890Y-32156D01*
X64890Y-32156D02*
X64890Y-31845D01*
X64890Y-31845D02*
X64840Y-31800D01*
X64840Y-31800D02*
X64590Y-31800D01*
X64590Y-31800D02*
X64540Y-31845D01*
X64540Y-31845D02*
X64540Y-32156D01*
X64540Y-32156D02*
X64590Y-32200D01*
X64590Y-32200D02*
X64840Y-32200D01*
X64386Y-31800D02*
X64386Y-32156D01*
X64386Y-32156D02*
X64336Y-32200D01*
X64336Y-32200D02*
X64086Y-32200D01*
X64086Y-32200D02*
X64036Y-32156D01*
X64036Y-32156D02*
X64036Y-31800D01*
X63882Y-32200D02*
X63882Y-31800D01*
X63882Y-31800D02*
X63582Y-31800D01*
X63582Y-31800D02*
X63532Y-31845D01*
X63532Y-31845D02*
X63532Y-31978D01*
X63532Y-31978D02*
X63582Y-32023D01*
X63582Y-32023D02*
X63882Y-32023D01*
X63378Y-31800D02*
X63378Y-32200D01*
X63378Y-32200D02*
X62978Y-32200D01*
X62524Y-32200D02*
X62874Y-32200D01*
X62874Y-32200D02*
X62874Y-31800D01*
X62874Y-31800D02*
X62524Y-31800D01*
X62874Y-31978D02*
X62674Y-31978D01*
X60798Y-31656D02*
X60848Y-31700D01*
X60848Y-31700D02*
X61098Y-31700D01*
X61098Y-31700D02*
X61148Y-31656D01*
X61148Y-31656D02*
X61148Y-31345D01*
X61148Y-31345D02*
X61098Y-31300D01*
X61098Y-31300D02*
X60848Y-31300D01*
X60848Y-31300D02*
X60798Y-31345D01*
X60544Y-31700D02*
X60344Y-31700D01*
X60444Y-31700D02*
X60444Y-31300D01*
X60444Y-31345D02*
X60544Y-31434D01*
X60798Y-30656D02*
X60848Y-30700D01*
X60848Y-30700D02*
X61098Y-30700D01*
X61098Y-30700D02*
X61148Y-30656D01*
X61148Y-30656D02*
X61148Y-30345D01*
X61148Y-30345D02*
X61098Y-30300D01*
X61098Y-30300D02*
X60848Y-30300D01*
X60848Y-30300D02*
X60798Y-30345D01*
X60644Y-30700D02*
X60294Y-30300D01*
X60644Y-30656D02*
X60644Y-30345D01*
X60644Y-30345D02*
X60594Y-30300D01*
X60594Y-30300D02*
X60344Y-30300D01*
X60344Y-30300D02*
X60294Y-30345D01*
X60294Y-30345D02*
X60294Y-30656D01*
X60294Y-30656D02*
X60344Y-30700D01*
X60344Y-30700D02*
X60594Y-30700D01*
X60594Y-30700D02*
X60644Y-30656D01*
X52148Y-31700D02*
X52148Y-31389D01*
X52148Y-31389D02*
X52048Y-31300D01*
X52048Y-31300D02*
X51898Y-31300D01*
X51898Y-31300D02*
X51798Y-31389D01*
X51798Y-31389D02*
X51798Y-31700D01*
X52148Y-31478D02*
X51798Y-31478D01*
X51544Y-31700D02*
X51344Y-31700D01*
X51444Y-31700D02*
X51444Y-31300D01*
X51444Y-31345D02*
X51544Y-31434D01*
X52148Y-30700D02*
X52148Y-30389D01*
X52148Y-30389D02*
X52048Y-30300D01*
X52048Y-30300D02*
X51898Y-30300D01*
X51898Y-30300D02*
X51798Y-30389D01*
X51798Y-30389D02*
X51798Y-30700D01*
X52148Y-30478D02*
X51798Y-30478D01*
X51644Y-30700D02*
X51294Y-30300D01*
X51644Y-30656D02*
X51644Y-30345D01*
X51644Y-30345D02*
X51594Y-30300D01*
X51594Y-30300D02*
X51344Y-30300D01*
X51344Y-30300D02*
X51294Y-30345D01*
X51294Y-30345D02*
X51294Y-30656D01*
X51294Y-30656D02*
X51344Y-30700D01*
X51344Y-30700D02*
X51594Y-30700D01*
X51594Y-30700D02*
X51644Y-30656D01*
X60654Y-50700D02*
X60654Y-50300D01*
X60654Y-50300D02*
X60354Y-50300D01*
X60354Y-50300D02*
X60304Y-50345D01*
X60304Y-50345D02*
X60304Y-50478D01*
X60304Y-50478D02*
X60354Y-50523D01*
X60354Y-50523D02*
X60654Y-50523D01*
X60504Y-50523D02*
X60304Y-50700D01*
X59800Y-50700D02*
X60150Y-50700D01*
X60150Y-50700D02*
X60150Y-50300D01*
X60150Y-50300D02*
X59800Y-50300D01*
X60150Y-50478D02*
X59950Y-50478D01*
X59646Y-50656D02*
X59596Y-50700D01*
X59596Y-50700D02*
X59346Y-50700D01*
X59346Y-50700D02*
X59296Y-50656D01*
X59296Y-50656D02*
X59296Y-50523D01*
X59296Y-50523D02*
X59346Y-50478D01*
X59346Y-50478D02*
X59596Y-50478D01*
X59596Y-50478D02*
X59646Y-50434D01*
X59646Y-50434D02*
X59646Y-50345D01*
X59646Y-50345D02*
X59596Y-50300D01*
X59596Y-50300D02*
X59346Y-50300D01*
X59346Y-50300D02*
X59296Y-50345D01*
X58792Y-50700D02*
X59142Y-50700D01*
X59142Y-50700D02*
X59142Y-50300D01*
X59142Y-50300D02*
X58792Y-50300D01*
X59142Y-50478D02*
X58942Y-50478D01*
X58638Y-50300D02*
X58238Y-50300D01*
X58438Y-50300D02*
X58438Y-50700D01*
X55150Y-50700D02*
X55150Y-50300D01*
X54800Y-50700D02*
X54800Y-50300D01*
X55150Y-50523D02*
X54800Y-50523D01*
X54646Y-50300D02*
X54546Y-50700D01*
X54546Y-50700D02*
X54446Y-50567D01*
X54446Y-50567D02*
X54346Y-50700D01*
X54346Y-50700D02*
X54246Y-50300D01*
X54142Y-50700D02*
X54142Y-50300D01*
X54142Y-50300D02*
X53842Y-50300D01*
X53842Y-50300D02*
X53792Y-50345D01*
X53792Y-50345D02*
X53792Y-50434D01*
X53792Y-50434D02*
X53842Y-50478D01*
X53842Y-50478D02*
X54142Y-50478D01*
X53842Y-50478D02*
X53792Y-50567D01*
X53792Y-50567D02*
X53792Y-50656D01*
X53792Y-50656D02*
X53842Y-50700D01*
X53842Y-50700D02*
X54142Y-50700D01*
X52098Y-49700D02*
X52098Y-49300D01*
X52148Y-49300D02*
X51848Y-49300D01*
X51848Y-49300D02*
X51798Y-49345D01*
X51798Y-49345D02*
X51798Y-49656D01*
X51798Y-49656D02*
X51848Y-49700D01*
X51848Y-49700D02*
X52148Y-49700D01*
X51544Y-49700D02*
X51344Y-49700D01*
X51444Y-49700D02*
X51444Y-49300D01*
X51444Y-49345D02*
X51544Y-49434D01*
X52098Y-48700D02*
X52098Y-48300D01*
X52148Y-48300D02*
X51848Y-48300D01*
X51848Y-48300D02*
X51798Y-48345D01*
X51798Y-48345D02*
X51798Y-48656D01*
X51798Y-48656D02*
X51848Y-48700D01*
X51848Y-48700D02*
X52148Y-48700D01*
X51644Y-48700D02*
X51294Y-48300D01*
X51644Y-48656D02*
X51644Y-48345D01*
X51644Y-48345D02*
X51594Y-48300D01*
X51594Y-48300D02*
X51344Y-48300D01*
X51344Y-48300D02*
X51294Y-48345D01*
X51294Y-48345D02*
X51294Y-48656D01*
X51294Y-48656D02*
X51344Y-48700D01*
X51344Y-48700D02*
X51594Y-48700D01*
X51594Y-48700D02*
X51644Y-48656D01*
X43148Y-49700D02*
X43148Y-49300D01*
X43148Y-49300D02*
X42848Y-49300D01*
X42848Y-49300D02*
X42798Y-49345D01*
X42798Y-49345D02*
X42798Y-49434D01*
X42798Y-49434D02*
X42848Y-49478D01*
X42848Y-49478D02*
X43148Y-49478D01*
X42848Y-49478D02*
X42798Y-49567D01*
X42798Y-49567D02*
X42798Y-49656D01*
X42798Y-49656D02*
X42848Y-49700D01*
X42848Y-49700D02*
X43148Y-49700D01*
X42544Y-49700D02*
X42344Y-49700D01*
X42444Y-49700D02*
X42444Y-49300D01*
X42444Y-49345D02*
X42544Y-49434D01*
X43148Y-48700D02*
X43148Y-48300D01*
X43148Y-48300D02*
X42848Y-48300D01*
X42848Y-48300D02*
X42798Y-48345D01*
X42798Y-48345D02*
X42798Y-48434D01*
X42798Y-48434D02*
X42848Y-48478D01*
X42848Y-48478D02*
X43148Y-48478D01*
X42848Y-48478D02*
X42798Y-48567D01*
X42798Y-48567D02*
X42798Y-48656D01*
X42798Y-48656D02*
X42848Y-48700D01*
X42848Y-48700D02*
X43148Y-48700D01*
X42644Y-48700D02*
X42294Y-48300D01*
X42644Y-48656D02*
X42644Y-48345D01*
X42644Y-48345D02*
X42594Y-48300D01*
X42594Y-48300D02*
X42344Y-48300D01*
X42344Y-48300D02*
X42294Y-48345D01*
X42294Y-48345D02*
X42294Y-48656D01*
X42294Y-48656D02*
X42344Y-48700D01*
X42344Y-48700D02*
X42594Y-48700D01*
X42594Y-48700D02*
X42644Y-48656D01*
X45100Y-48345D02*
X45100Y-48300D01*
X45100Y-48300D02*
X45350Y-48300D01*
X45350Y-48300D02*
X45400Y-48345D01*
X45400Y-48345D02*
X45400Y-48656D01*
X45400Y-48656D02*
X45350Y-48700D01*
X45350Y-48700D02*
X45100Y-48700D01*
X45100Y-48700D02*
X45050Y-48656D01*
X45050Y-48656D02*
X45050Y-48523D01*
X45050Y-48523D02*
X45200Y-48523D01*
X44896Y-48700D02*
X44896Y-48300D01*
X44896Y-48300D02*
X44546Y-48700D01*
X44546Y-48700D02*
X44546Y-48300D01*
X44342Y-48700D02*
X44342Y-48300D01*
X44392Y-48300D02*
X44092Y-48300D01*
X44092Y-48300D02*
X44042Y-48345D01*
X44042Y-48345D02*
X44042Y-48656D01*
X44042Y-48656D02*
X44092Y-48700D01*
X44092Y-48700D02*
X44392Y-48700D01*
X45400Y-49700D02*
X45400Y-49300D01*
X45400Y-49300D02*
X45100Y-49300D01*
X45100Y-49300D02*
X45050Y-49345D01*
X45050Y-49345D02*
X45050Y-49478D01*
X45050Y-49478D02*
X45100Y-49523D01*
X45100Y-49523D02*
X45400Y-49523D01*
X44896Y-49300D02*
X44796Y-49700D01*
X44796Y-49700D02*
X44696Y-49567D01*
X44696Y-49567D02*
X44596Y-49700D01*
X44596Y-49700D02*
X44496Y-49300D01*
X44392Y-49700D02*
X44392Y-49300D01*
X44392Y-49300D02*
X44092Y-49300D01*
X44092Y-49300D02*
X44042Y-49345D01*
X44042Y-49345D02*
X44042Y-49478D01*
X44042Y-49478D02*
X44092Y-49523D01*
X44092Y-49523D02*
X44392Y-49523D01*
X44242Y-49523D02*
X44042Y-49700D01*
X36400Y-49700D02*
X36400Y-49300D01*
X36400Y-49300D02*
X36100Y-49300D01*
X36100Y-49300D02*
X36050Y-49345D01*
X36050Y-49345D02*
X36050Y-49478D01*
X36050Y-49478D02*
X36100Y-49523D01*
X36100Y-49523D02*
X36400Y-49523D01*
X35896Y-49300D02*
X35796Y-49700D01*
X35796Y-49700D02*
X35696Y-49567D01*
X35696Y-49567D02*
X35596Y-49700D01*
X35596Y-49700D02*
X35496Y-49300D01*
X35392Y-49700D02*
X35392Y-49300D01*
X35392Y-49300D02*
X35092Y-49300D01*
X35092Y-49300D02*
X35042Y-49345D01*
X35042Y-49345D02*
X35042Y-49478D01*
X35042Y-49478D02*
X35092Y-49523D01*
X35092Y-49523D02*
X35392Y-49523D01*
X35242Y-49523D02*
X35042Y-49700D01*
X36100Y-48345D02*
X36100Y-48300D01*
X36100Y-48300D02*
X36350Y-48300D01*
X36350Y-48300D02*
X36400Y-48345D01*
X36400Y-48345D02*
X36400Y-48656D01*
X36400Y-48656D02*
X36350Y-48700D01*
X36350Y-48700D02*
X36100Y-48700D01*
X36100Y-48700D02*
X36050Y-48656D01*
X36050Y-48656D02*
X36050Y-48523D01*
X36050Y-48523D02*
X36200Y-48523D01*
X35896Y-48700D02*
X35896Y-48300D01*
X35896Y-48300D02*
X35546Y-48700D01*
X35546Y-48700D02*
X35546Y-48300D01*
X35342Y-48700D02*
X35342Y-48300D01*
X35392Y-48300D02*
X35092Y-48300D01*
X35092Y-48300D02*
X35042Y-48345D01*
X35042Y-48345D02*
X35042Y-48656D01*
X35042Y-48656D02*
X35092Y-48700D01*
X35092Y-48700D02*
X35392Y-48700D01*
X54100Y-30345D02*
X54100Y-30300D01*
X54100Y-30300D02*
X54350Y-30300D01*
X54350Y-30300D02*
X54400Y-30345D01*
X54400Y-30345D02*
X54400Y-30656D01*
X54400Y-30656D02*
X54350Y-30700D01*
X54350Y-30700D02*
X54100Y-30700D01*
X54100Y-30700D02*
X54050Y-30656D01*
X54050Y-30656D02*
X54050Y-30523D01*
X54050Y-30523D02*
X54200Y-30523D01*
X53896Y-30700D02*
X53896Y-30300D01*
X53896Y-30300D02*
X53546Y-30700D01*
X53546Y-30700D02*
X53546Y-30300D01*
X53342Y-30700D02*
X53342Y-30300D01*
X53392Y-30300D02*
X53092Y-30300D01*
X53092Y-30300D02*
X53042Y-30345D01*
X53042Y-30345D02*
X53042Y-30656D01*
X53042Y-30656D02*
X53092Y-30700D01*
X53092Y-30700D02*
X53392Y-30700D01*
X54400Y-31700D02*
X54400Y-31300D01*
X54400Y-31300D02*
X54100Y-31300D01*
X54100Y-31300D02*
X54050Y-31345D01*
X54050Y-31345D02*
X54050Y-31478D01*
X54050Y-31478D02*
X54100Y-31523D01*
X54100Y-31523D02*
X54400Y-31523D01*
X53896Y-31300D02*
X53796Y-31700D01*
X53796Y-31700D02*
X53696Y-31567D01*
X53696Y-31567D02*
X53596Y-31700D01*
X53596Y-31700D02*
X53496Y-31300D01*
X53392Y-31700D02*
X53392Y-31300D01*
X53392Y-31300D02*
X53092Y-31300D01*
X53092Y-31300D02*
X53042Y-31345D01*
X53042Y-31345D02*
X53042Y-31478D01*
X53042Y-31478D02*
X53092Y-31523D01*
X53092Y-31523D02*
X53392Y-31523D01*
X53242Y-31523D02*
X53042Y-31700D01*
X45100Y-30345D02*
X45100Y-30300D01*
X45100Y-30300D02*
X45350Y-30300D01*
X45350Y-30300D02*
X45400Y-30345D01*
X45400Y-30345D02*
X45400Y-30656D01*
X45400Y-30656D02*
X45350Y-30700D01*
X45350Y-30700D02*
X45100Y-30700D01*
X45100Y-30700D02*
X45050Y-30656D01*
X45050Y-30656D02*
X45050Y-30523D01*
X45050Y-30523D02*
X45200Y-30523D01*
X44896Y-30700D02*
X44896Y-30300D01*
X44896Y-30300D02*
X44546Y-30700D01*
X44546Y-30700D02*
X44546Y-30300D01*
X44342Y-30700D02*
X44342Y-30300D01*
X44392Y-30300D02*
X44092Y-30300D01*
X44092Y-30300D02*
X44042Y-30345D01*
X44042Y-30345D02*
X44042Y-30656D01*
X44042Y-30656D02*
X44092Y-30700D01*
X44092Y-30700D02*
X44392Y-30700D01*
X45400Y-31700D02*
X45400Y-31300D01*
X45400Y-31300D02*
X45100Y-31300D01*
X45100Y-31300D02*
X45050Y-31345D01*
X45050Y-31345D02*
X45050Y-31478D01*
X45050Y-31478D02*
X45100Y-31523D01*
X45100Y-31523D02*
X45400Y-31523D01*
X44896Y-31300D02*
X44796Y-31700D01*
X44796Y-31700D02*
X44696Y-31567D01*
X44696Y-31567D02*
X44596Y-31700D01*
X44596Y-31700D02*
X44496Y-31300D01*
X44392Y-31700D02*
X44392Y-31300D01*
X44392Y-31300D02*
X44092Y-31300D01*
X44092Y-31300D02*
X44042Y-31345D01*
X44042Y-31345D02*
X44042Y-31478D01*
X44042Y-31478D02*
X44092Y-31523D01*
X44092Y-31523D02*
X44392Y-31523D01*
X44242Y-31523D02*
X44042Y-31700D01*
G54D10*
X89500Y-52500D02*
X70000Y-52500D01*
X90500Y-28500D02*
X90500Y-51500D01*
X70000Y-27500D02*
X89500Y-27500D01*
X68000Y-27500D02*
X31500Y-27500D01*
X69000Y-51500D02*
X69000Y-28500D01*
X31000Y-52500D02*
X68000Y-52500D01*
X30000Y-28500D02*
X30000Y-51500D01*
G54D34*
X60725Y-41775D02*
X60725Y-41225D01*
X60725Y-41225D02*
X61275Y-41225D01*
X61275Y-41225D02*
X61275Y-41775D01*
X61275Y-41775D02*
X60725Y-41775D01*
X62275Y-41500D02*
X62268Y-41557D01*
X62268Y-41557D02*
X62251Y-41611D01*
X62251Y-41611D02*
X62222Y-41661D01*
X62222Y-41661D02*
X62184Y-41704D01*
X62184Y-41704D02*
X62137Y-41738D01*
X62137Y-41738D02*
X62084Y-41761D01*
X62084Y-41761D02*
X62028Y-41773D01*
X62028Y-41773D02*
X61972Y-41773D01*
X61972Y-41773D02*
X61916Y-41761D01*
X61916Y-41761D02*
X61863Y-41738D01*
X61863Y-41738D02*
X61816Y-41704D01*
X61816Y-41704D02*
X61778Y-41661D01*
X61778Y-41661D02*
X61749Y-41611D01*
X61749Y-41611D02*
X61732Y-41557D01*
X61732Y-41557D02*
X61725Y-41500D01*
X61725Y-41500D02*
X61732Y-41443D01*
X61732Y-41443D02*
X61749Y-41389D01*
X61749Y-41389D02*
X61778Y-41339D01*
X61778Y-41339D02*
X61816Y-41296D01*
X61816Y-41296D02*
X61863Y-41262D01*
X61863Y-41262D02*
X61916Y-41239D01*
X61916Y-41239D02*
X61972Y-41227D01*
X61972Y-41227D02*
X62028Y-41227D01*
X62028Y-41227D02*
X62084Y-41239D01*
X62084Y-41239D02*
X62137Y-41262D01*
X62137Y-41262D02*
X62184Y-41296D01*
X62184Y-41296D02*
X62222Y-41339D01*
X62222Y-41339D02*
X62251Y-41389D01*
X62251Y-41389D02*
X62268Y-41443D01*
X62268Y-41443D02*
X62275Y-41500D01*
X63275Y-41500D02*
X63268Y-41557D01*
X63268Y-41557D02*
X63251Y-41611D01*
X63251Y-41611D02*
X63222Y-41661D01*
X63222Y-41661D02*
X63184Y-41704D01*
X63184Y-41704D02*
X63137Y-41738D01*
X63137Y-41738D02*
X63084Y-41761D01*
X63084Y-41761D02*
X63028Y-41773D01*
X63028Y-41773D02*
X62972Y-41773D01*
X62972Y-41773D02*
X62916Y-41761D01*
X62916Y-41761D02*
X62863Y-41738D01*
X62863Y-41738D02*
X62816Y-41704D01*
X62816Y-41704D02*
X62778Y-41661D01*
X62778Y-41661D02*
X62749Y-41611D01*
X62749Y-41611D02*
X62732Y-41557D01*
X62732Y-41557D02*
X62725Y-41500D01*
X62725Y-41500D02*
X62732Y-41443D01*
X62732Y-41443D02*
X62749Y-41389D01*
X62749Y-41389D02*
X62778Y-41339D01*
X62778Y-41339D02*
X62816Y-41296D01*
X62816Y-41296D02*
X62863Y-41262D01*
X62863Y-41262D02*
X62916Y-41239D01*
X62916Y-41239D02*
X62972Y-41227D01*
X62972Y-41227D02*
X63028Y-41227D01*
X63028Y-41227D02*
X63084Y-41239D01*
X63084Y-41239D02*
X63137Y-41262D01*
X63137Y-41262D02*
X63184Y-41296D01*
X63184Y-41296D02*
X63222Y-41339D01*
X63222Y-41339D02*
X63251Y-41389D01*
X63251Y-41389D02*
X63268Y-41443D01*
X63268Y-41443D02*
X63275Y-41500D01*
X64275Y-41500D02*
X64268Y-41557D01*
X64268Y-41557D02*
X64251Y-41611D01*
X64251Y-41611D02*
X64222Y-41661D01*
X64222Y-41661D02*
X64184Y-41704D01*
X64184Y-41704D02*
X64137Y-41738D01*
X64137Y-41738D02*
X64084Y-41761D01*
X64084Y-41761D02*
X64028Y-41773D01*
X64028Y-41773D02*
X63972Y-41773D01*
X63972Y-41773D02*
X63916Y-41761D01*
X63916Y-41761D02*
X63863Y-41738D01*
X63863Y-41738D02*
X63816Y-41704D01*
X63816Y-41704D02*
X63778Y-41661D01*
X63778Y-41661D02*
X63749Y-41611D01*
X63749Y-41611D02*
X63732Y-41557D01*
X63732Y-41557D02*
X63725Y-41500D01*
X63725Y-41500D02*
X63732Y-41443D01*
X63732Y-41443D02*
X63749Y-41389D01*
X63749Y-41389D02*
X63778Y-41339D01*
X63778Y-41339D02*
X63816Y-41296D01*
X63816Y-41296D02*
X63863Y-41262D01*
X63863Y-41262D02*
X63916Y-41239D01*
X63916Y-41239D02*
X63972Y-41227D01*
X63972Y-41227D02*
X64028Y-41227D01*
X64028Y-41227D02*
X64084Y-41239D01*
X64084Y-41239D02*
X64137Y-41262D01*
X64137Y-41262D02*
X64184Y-41296D01*
X64184Y-41296D02*
X64222Y-41339D01*
X64222Y-41339D02*
X64251Y-41389D01*
X64251Y-41389D02*
X64268Y-41443D01*
X64268Y-41443D02*
X64275Y-41500D01*
X65275Y-41500D02*
X65268Y-41557D01*
X65268Y-41557D02*
X65251Y-41611D01*
X65251Y-41611D02*
X65222Y-41661D01*
X65222Y-41661D02*
X65184Y-41704D01*
X65184Y-41704D02*
X65137Y-41738D01*
X65137Y-41738D02*
X65084Y-41761D01*
X65084Y-41761D02*
X65028Y-41773D01*
X65028Y-41773D02*
X64972Y-41773D01*
X64972Y-41773D02*
X64916Y-41761D01*
X64916Y-41761D02*
X64863Y-41738D01*
X64863Y-41738D02*
X64816Y-41704D01*
X64816Y-41704D02*
X64778Y-41661D01*
X64778Y-41661D02*
X64749Y-41611D01*
X64749Y-41611D02*
X64732Y-41557D01*
X64732Y-41557D02*
X64725Y-41500D01*
X64725Y-41500D02*
X64732Y-41443D01*
X64732Y-41443D02*
X64749Y-41389D01*
X64749Y-41389D02*
X64778Y-41339D01*
X64778Y-41339D02*
X64816Y-41296D01*
X64816Y-41296D02*
X64863Y-41262D01*
X64863Y-41262D02*
X64916Y-41239D01*
X64916Y-41239D02*
X64972Y-41227D01*
X64972Y-41227D02*
X65028Y-41227D01*
X65028Y-41227D02*
X65084Y-41239D01*
X65084Y-41239D02*
X65137Y-41262D01*
X65137Y-41262D02*
X65184Y-41296D01*
X65184Y-41296D02*
X65222Y-41339D01*
X65222Y-41339D02*
X65251Y-41389D01*
X65251Y-41389D02*
X65268Y-41443D01*
X65268Y-41443D02*
X65275Y-41500D01*
X66275Y-41500D02*
X66268Y-41557D01*
X66268Y-41557D02*
X66251Y-41611D01*
X66251Y-41611D02*
X66222Y-41661D01*
X66222Y-41661D02*
X66184Y-41704D01*
X66184Y-41704D02*
X66137Y-41738D01*
X66137Y-41738D02*
X66084Y-41761D01*
X66084Y-41761D02*
X66028Y-41773D01*
X66028Y-41773D02*
X65972Y-41773D01*
X65972Y-41773D02*
X65916Y-41761D01*
X65916Y-41761D02*
X65863Y-41738D01*
X65863Y-41738D02*
X65816Y-41704D01*
X65816Y-41704D02*
X65778Y-41661D01*
X65778Y-41661D02*
X65749Y-41611D01*
X65749Y-41611D02*
X65732Y-41557D01*
X65732Y-41557D02*
X65725Y-41500D01*
X65725Y-41500D02*
X65732Y-41443D01*
X65732Y-41443D02*
X65749Y-41389D01*
X65749Y-41389D02*
X65778Y-41339D01*
X65778Y-41339D02*
X65816Y-41296D01*
X65816Y-41296D02*
X65863Y-41262D01*
X65863Y-41262D02*
X65916Y-41239D01*
X65916Y-41239D02*
X65972Y-41227D01*
X65972Y-41227D02*
X66028Y-41227D01*
X66028Y-41227D02*
X66084Y-41239D01*
X66084Y-41239D02*
X66137Y-41262D01*
X66137Y-41262D02*
X66184Y-41296D01*
X66184Y-41296D02*
X66222Y-41339D01*
X66222Y-41339D02*
X66251Y-41389D01*
X66251Y-41389D02*
X66268Y-41443D01*
X66268Y-41443D02*
X66275Y-41500D01*
X67275Y-41500D02*
X67268Y-41557D01*
X67268Y-41557D02*
X67251Y-41611D01*
X67251Y-41611D02*
X67222Y-41661D01*
X67222Y-41661D02*
X67184Y-41704D01*
X67184Y-41704D02*
X67137Y-41738D01*
X67137Y-41738D02*
X67084Y-41761D01*
X67084Y-41761D02*
X67028Y-41773D01*
X67028Y-41773D02*
X66972Y-41773D01*
X66972Y-41773D02*
X66916Y-41761D01*
X66916Y-41761D02*
X66863Y-41738D01*
X66863Y-41738D02*
X66816Y-41704D01*
X66816Y-41704D02*
X66778Y-41661D01*
X66778Y-41661D02*
X66749Y-41611D01*
X66749Y-41611D02*
X66732Y-41557D01*
X66732Y-41557D02*
X66725Y-41500D01*
X66725Y-41500D02*
X66732Y-41443D01*
X66732Y-41443D02*
X66749Y-41389D01*
X66749Y-41389D02*
X66778Y-41339D01*
X66778Y-41339D02*
X66816Y-41296D01*
X66816Y-41296D02*
X66863Y-41262D01*
X66863Y-41262D02*
X66916Y-41239D01*
X66916Y-41239D02*
X66972Y-41227D01*
X66972Y-41227D02*
X67028Y-41227D01*
X67028Y-41227D02*
X67084Y-41239D01*
X67084Y-41239D02*
X67137Y-41262D01*
X67137Y-41262D02*
X67184Y-41296D01*
X67184Y-41296D02*
X67222Y-41339D01*
X67222Y-41339D02*
X67251Y-41389D01*
X67251Y-41389D02*
X67268Y-41443D01*
X67268Y-41443D02*
X67275Y-41500D01*
X67275Y-38500D02*
X67268Y-38557D01*
X67268Y-38557D02*
X67251Y-38611D01*
X67251Y-38611D02*
X67222Y-38661D01*
X67222Y-38661D02*
X67184Y-38704D01*
X67184Y-38704D02*
X67137Y-38738D01*
X67137Y-38738D02*
X67084Y-38761D01*
X67084Y-38761D02*
X67028Y-38773D01*
X67028Y-38773D02*
X66972Y-38773D01*
X66972Y-38773D02*
X66916Y-38761D01*
X66916Y-38761D02*
X66863Y-38738D01*
X66863Y-38738D02*
X66816Y-38704D01*
X66816Y-38704D02*
X66778Y-38661D01*
X66778Y-38661D02*
X66749Y-38611D01*
X66749Y-38611D02*
X66732Y-38557D01*
X66732Y-38557D02*
X66725Y-38500D01*
X66725Y-38500D02*
X66732Y-38443D01*
X66732Y-38443D02*
X66749Y-38389D01*
X66749Y-38389D02*
X66778Y-38339D01*
X66778Y-38339D02*
X66816Y-38296D01*
X66816Y-38296D02*
X66863Y-38262D01*
X66863Y-38262D02*
X66916Y-38239D01*
X66916Y-38239D02*
X66972Y-38227D01*
X66972Y-38227D02*
X67028Y-38227D01*
X67028Y-38227D02*
X67084Y-38239D01*
X67084Y-38239D02*
X67137Y-38262D01*
X67137Y-38262D02*
X67184Y-38296D01*
X67184Y-38296D02*
X67222Y-38339D01*
X67222Y-38339D02*
X67251Y-38389D01*
X67251Y-38389D02*
X67268Y-38443D01*
X67268Y-38443D02*
X67275Y-38500D01*
X66275Y-38500D02*
X66268Y-38557D01*
X66268Y-38557D02*
X66251Y-38611D01*
X66251Y-38611D02*
X66222Y-38661D01*
X66222Y-38661D02*
X66184Y-38704D01*
X66184Y-38704D02*
X66137Y-38738D01*
X66137Y-38738D02*
X66084Y-38761D01*
X66084Y-38761D02*
X66028Y-38773D01*
X66028Y-38773D02*
X65972Y-38773D01*
X65972Y-38773D02*
X65916Y-38761D01*
X65916Y-38761D02*
X65863Y-38738D01*
X65863Y-38738D02*
X65816Y-38704D01*
X65816Y-38704D02*
X65778Y-38661D01*
X65778Y-38661D02*
X65749Y-38611D01*
X65749Y-38611D02*
X65732Y-38557D01*
X65732Y-38557D02*
X65725Y-38500D01*
X65725Y-38500D02*
X65732Y-38443D01*
X65732Y-38443D02*
X65749Y-38389D01*
X65749Y-38389D02*
X65778Y-38339D01*
X65778Y-38339D02*
X65816Y-38296D01*
X65816Y-38296D02*
X65863Y-38262D01*
X65863Y-38262D02*
X65916Y-38239D01*
X65916Y-38239D02*
X65972Y-38227D01*
X65972Y-38227D02*
X66028Y-38227D01*
X66028Y-38227D02*
X66084Y-38239D01*
X66084Y-38239D02*
X66137Y-38262D01*
X66137Y-38262D02*
X66184Y-38296D01*
X66184Y-38296D02*
X66222Y-38339D01*
X66222Y-38339D02*
X66251Y-38389D01*
X66251Y-38389D02*
X66268Y-38443D01*
X66268Y-38443D02*
X66275Y-38500D01*
X65275Y-38500D02*
X65268Y-38557D01*
X65268Y-38557D02*
X65251Y-38611D01*
X65251Y-38611D02*
X65222Y-38661D01*
X65222Y-38661D02*
X65184Y-38704D01*
X65184Y-38704D02*
X65137Y-38738D01*
X65137Y-38738D02*
X65084Y-38761D01*
X65084Y-38761D02*
X65028Y-38773D01*
X65028Y-38773D02*
X64972Y-38773D01*
X64972Y-38773D02*
X64916Y-38761D01*
X64916Y-38761D02*
X64863Y-38738D01*
X64863Y-38738D02*
X64816Y-38704D01*
X64816Y-38704D02*
X64778Y-38661D01*
X64778Y-38661D02*
X64749Y-38611D01*
X64749Y-38611D02*
X64732Y-38557D01*
X64732Y-38557D02*
X64725Y-38500D01*
X64725Y-38500D02*
X64732Y-38443D01*
X64732Y-38443D02*
X64749Y-38389D01*
X64749Y-38389D02*
X64778Y-38339D01*
X64778Y-38339D02*
X64816Y-38296D01*
X64816Y-38296D02*
X64863Y-38262D01*
X64863Y-38262D02*
X64916Y-38239D01*
X64916Y-38239D02*
X64972Y-38227D01*
X64972Y-38227D02*
X65028Y-38227D01*
X65028Y-38227D02*
X65084Y-38239D01*
X65084Y-38239D02*
X65137Y-38262D01*
X65137Y-38262D02*
X65184Y-38296D01*
X65184Y-38296D02*
X65222Y-38339D01*
X65222Y-38339D02*
X65251Y-38389D01*
X65251Y-38389D02*
X65268Y-38443D01*
X65268Y-38443D02*
X65275Y-38500D01*
X64275Y-38500D02*
X64268Y-38557D01*
X64268Y-38557D02*
X64251Y-38611D01*
X64251Y-38611D02*
X64222Y-38661D01*
X64222Y-38661D02*
X64184Y-38704D01*
X64184Y-38704D02*
X64137Y-38738D01*
X64137Y-38738D02*
X64084Y-38761D01*
X64084Y-38761D02*
X64028Y-38773D01*
X64028Y-38773D02*
X63972Y-38773D01*
X63972Y-38773D02*
X63916Y-38761D01*
X63916Y-38761D02*
X63863Y-38738D01*
X63863Y-38738D02*
X63816Y-38704D01*
X63816Y-38704D02*
X63778Y-38661D01*
X63778Y-38661D02*
X63749Y-38611D01*
X63749Y-38611D02*
X63732Y-38557D01*
X63732Y-38557D02*
X63725Y-38500D01*
X63725Y-38500D02*
X63732Y-38443D01*
X63732Y-38443D02*
X63749Y-38389D01*
X63749Y-38389D02*
X63778Y-38339D01*
X63778Y-38339D02*
X63816Y-38296D01*
X63816Y-38296D02*
X63863Y-38262D01*
X63863Y-38262D02*
X63916Y-38239D01*
X63916Y-38239D02*
X63972Y-38227D01*
X63972Y-38227D02*
X64028Y-38227D01*
X64028Y-38227D02*
X64084Y-38239D01*
X64084Y-38239D02*
X64137Y-38262D01*
X64137Y-38262D02*
X64184Y-38296D01*
X64184Y-38296D02*
X64222Y-38339D01*
X64222Y-38339D02*
X64251Y-38389D01*
X64251Y-38389D02*
X64268Y-38443D01*
X64268Y-38443D02*
X64275Y-38500D01*
X63275Y-38500D02*
X63268Y-38557D01*
X63268Y-38557D02*
X63251Y-38611D01*
X63251Y-38611D02*
X63222Y-38661D01*
X63222Y-38661D02*
X63184Y-38704D01*
X63184Y-38704D02*
X63137Y-38738D01*
X63137Y-38738D02*
X63084Y-38761D01*
X63084Y-38761D02*
X63028Y-38773D01*
X63028Y-38773D02*
X62972Y-38773D01*
X62972Y-38773D02*
X62916Y-38761D01*
X62916Y-38761D02*
X62863Y-38738D01*
X62863Y-38738D02*
X62816Y-38704D01*
X62816Y-38704D02*
X62778Y-38661D01*
X62778Y-38661D02*
X62749Y-38611D01*
X62749Y-38611D02*
X62732Y-38557D01*
X62732Y-38557D02*
X62725Y-38500D01*
X62725Y-38500D02*
X62732Y-38443D01*
X62732Y-38443D02*
X62749Y-38389D01*
X62749Y-38389D02*
X62778Y-38339D01*
X62778Y-38339D02*
X62816Y-38296D01*
X62816Y-38296D02*
X62863Y-38262D01*
X62863Y-38262D02*
X62916Y-38239D01*
X62916Y-38239D02*
X62972Y-38227D01*
X62972Y-38227D02*
X63028Y-38227D01*
X63028Y-38227D02*
X63084Y-38239D01*
X63084Y-38239D02*
X63137Y-38262D01*
X63137Y-38262D02*
X63184Y-38296D01*
X63184Y-38296D02*
X63222Y-38339D01*
X63222Y-38339D02*
X63251Y-38389D01*
X63251Y-38389D02*
X63268Y-38443D01*
X63268Y-38443D02*
X63275Y-38500D01*
X62275Y-38500D02*
X62268Y-38557D01*
X62268Y-38557D02*
X62251Y-38611D01*
X62251Y-38611D02*
X62222Y-38661D01*
X62222Y-38661D02*
X62184Y-38704D01*
X62184Y-38704D02*
X62137Y-38738D01*
X62137Y-38738D02*
X62084Y-38761D01*
X62084Y-38761D02*
X62028Y-38773D01*
X62028Y-38773D02*
X61972Y-38773D01*
X61972Y-38773D02*
X61916Y-38761D01*
X61916Y-38761D02*
X61863Y-38738D01*
X61863Y-38738D02*
X61816Y-38704D01*
X61816Y-38704D02*
X61778Y-38661D01*
X61778Y-38661D02*
X61749Y-38611D01*
X61749Y-38611D02*
X61732Y-38557D01*
X61732Y-38557D02*
X61725Y-38500D01*
X61725Y-38500D02*
X61732Y-38443D01*
X61732Y-38443D02*
X61749Y-38389D01*
X61749Y-38389D02*
X61778Y-38339D01*
X61778Y-38339D02*
X61816Y-38296D01*
X61816Y-38296D02*
X61863Y-38262D01*
X61863Y-38262D02*
X61916Y-38239D01*
X61916Y-38239D02*
X61972Y-38227D01*
X61972Y-38227D02*
X62028Y-38227D01*
X62028Y-38227D02*
X62084Y-38239D01*
X62084Y-38239D02*
X62137Y-38262D01*
X62137Y-38262D02*
X62184Y-38296D01*
X62184Y-38296D02*
X62222Y-38339D01*
X62222Y-38339D02*
X62251Y-38389D01*
X62251Y-38389D02*
X62268Y-38443D01*
X62268Y-38443D02*
X62275Y-38500D01*
X61275Y-38500D02*
X61268Y-38557D01*
X61268Y-38557D02*
X61251Y-38611D01*
X61251Y-38611D02*
X61222Y-38661D01*
X61222Y-38661D02*
X61184Y-38704D01*
X61184Y-38704D02*
X61137Y-38738D01*
X61137Y-38738D02*
X61084Y-38761D01*
X61084Y-38761D02*
X61028Y-38773D01*
X61028Y-38773D02*
X60972Y-38773D01*
X60972Y-38773D02*
X60916Y-38761D01*
X60916Y-38761D02*
X60863Y-38738D01*
X60863Y-38738D02*
X60816Y-38704D01*
X60816Y-38704D02*
X60778Y-38661D01*
X60778Y-38661D02*
X60749Y-38611D01*
X60749Y-38611D02*
X60732Y-38557D01*
X60732Y-38557D02*
X60725Y-38500D01*
X60725Y-38500D02*
X60732Y-38443D01*
X60732Y-38443D02*
X60749Y-38389D01*
X60749Y-38389D02*
X60778Y-38339D01*
X60778Y-38339D02*
X60816Y-38296D01*
X60816Y-38296D02*
X60863Y-38262D01*
X60863Y-38262D02*
X60916Y-38239D01*
X60916Y-38239D02*
X60972Y-38227D01*
X60972Y-38227D02*
X61028Y-38227D01*
X61028Y-38227D02*
X61084Y-38239D01*
X61084Y-38239D02*
X61137Y-38262D01*
X61137Y-38262D02*
X61184Y-38296D01*
X61184Y-38296D02*
X61222Y-38339D01*
X61222Y-38339D02*
X61251Y-38389D01*
X61251Y-38389D02*
X61268Y-38443D01*
X61268Y-38443D02*
X61275Y-38500D01*
X54250Y-39040D02*
X54244Y-39091D01*
X54244Y-39091D02*
X54228Y-39141D01*
X54228Y-39141D02*
X54202Y-39186D01*
X54202Y-39186D02*
X54167Y-39225D01*
X54167Y-39225D02*
X54125Y-39256D01*
X54125Y-39256D02*
X54077Y-39277D01*
X54077Y-39277D02*
X54026Y-39288D01*
X54026Y-39288D02*
X53974Y-39288D01*
X53974Y-39288D02*
X53923Y-39277D01*
X53923Y-39277D02*
X53875Y-39256D01*
X53875Y-39256D02*
X53833Y-39225D01*
X53833Y-39225D02*
X53798Y-39186D01*
X53798Y-39186D02*
X53772Y-39141D01*
X53772Y-39141D02*
X53756Y-39091D01*
X53756Y-39091D02*
X53750Y-39040D01*
X53750Y-39040D02*
X53756Y-38989D01*
X53756Y-38989D02*
X53772Y-38939D01*
X53772Y-38939D02*
X53798Y-38894D01*
X53798Y-38894D02*
X53833Y-38855D01*
X53833Y-38855D02*
X53875Y-38824D01*
X53875Y-38824D02*
X53923Y-38803D01*
X53923Y-38803D02*
X53974Y-38792D01*
X53974Y-38792D02*
X54026Y-38792D01*
X54026Y-38792D02*
X54077Y-38803D01*
X54077Y-38803D02*
X54125Y-38824D01*
X54125Y-38824D02*
X54167Y-38855D01*
X54167Y-38855D02*
X54202Y-38894D01*
X54202Y-38894D02*
X54228Y-38939D01*
X54228Y-38939D02*
X54244Y-38989D01*
X54244Y-38989D02*
X54250Y-39040D01*
X54250Y-40960D02*
X54244Y-41011D01*
X54244Y-41011D02*
X54228Y-41061D01*
X54228Y-41061D02*
X54202Y-41106D01*
X54202Y-41106D02*
X54167Y-41145D01*
X54167Y-41145D02*
X54125Y-41176D01*
X54125Y-41176D02*
X54077Y-41197D01*
X54077Y-41197D02*
X54026Y-41208D01*
X54026Y-41208D02*
X53974Y-41208D01*
X53974Y-41208D02*
X53923Y-41197D01*
X53923Y-41197D02*
X53875Y-41176D01*
X53875Y-41176D02*
X53833Y-41145D01*
X53833Y-41145D02*
X53798Y-41106D01*
X53798Y-41106D02*
X53772Y-41061D01*
X53772Y-41061D02*
X53756Y-41011D01*
X53756Y-41011D02*
X53750Y-40960D01*
X53750Y-40960D02*
X53756Y-40909D01*
X53756Y-40909D02*
X53772Y-40859D01*
X53772Y-40859D02*
X53798Y-40814D01*
X53798Y-40814D02*
X53833Y-40775D01*
X53833Y-40775D02*
X53875Y-40744D01*
X53875Y-40744D02*
X53923Y-40723D01*
X53923Y-40723D02*
X53974Y-40712D01*
X53974Y-40712D02*
X54026Y-40712D01*
X54026Y-40712D02*
X54077Y-40723D01*
X54077Y-40723D02*
X54125Y-40744D01*
X54125Y-40744D02*
X54167Y-40775D01*
X54167Y-40775D02*
X54202Y-40814D01*
X54202Y-40814D02*
X54228Y-40859D01*
X54228Y-40859D02*
X54244Y-40909D01*
X54244Y-40909D02*
X54250Y-40960D01*
X55686Y-47220D02*
X55679Y-47282D01*
X55679Y-47282D02*
X55660Y-47342D01*
X55660Y-47342D02*
X55628Y-47396D01*
X55628Y-47396D02*
X55586Y-47442D01*
X55586Y-47442D02*
X55536Y-47479D01*
X55536Y-47479D02*
X55478Y-47505D01*
X55478Y-47505D02*
X55417Y-47518D01*
X55417Y-47518D02*
X55355Y-47518D01*
X55355Y-47518D02*
X55294Y-47505D01*
X55294Y-47505D02*
X55236Y-47479D01*
X55236Y-47479D02*
X55186Y-47442D01*
X55186Y-47442D02*
X55144Y-47396D01*
X55144Y-47396D02*
X55112Y-47342D01*
X55112Y-47342D02*
X55093Y-47282D01*
X55093Y-47282D02*
X55086Y-47220D01*
X55086Y-47220D02*
X55093Y-47158D01*
X55093Y-47158D02*
X55112Y-47098D01*
X55112Y-47098D02*
X55144Y-47044D01*
X55144Y-47044D02*
X55186Y-46998D01*
X55186Y-46998D02*
X55236Y-46961D01*
X55236Y-46961D02*
X55294Y-46935D01*
X55294Y-46935D02*
X55355Y-46922D01*
X55355Y-46922D02*
X55417Y-46922D01*
X55417Y-46922D02*
X55478Y-46935D01*
X55478Y-46935D02*
X55536Y-46961D01*
X55536Y-46961D02*
X55586Y-46998D01*
X55586Y-46998D02*
X55628Y-47044D01*
X55628Y-47044D02*
X55660Y-47098D01*
X55660Y-47098D02*
X55679Y-47158D01*
X55679Y-47158D02*
X55686Y-47220D01*
X53914Y-47220D02*
X53907Y-47282D01*
X53907Y-47282D02*
X53888Y-47342D01*
X53888Y-47342D02*
X53856Y-47396D01*
X53856Y-47396D02*
X53814Y-47442D01*
X53814Y-47442D02*
X53764Y-47479D01*
X53764Y-47479D02*
X53706Y-47505D01*
X53706Y-47505D02*
X53645Y-47518D01*
X53645Y-47518D02*
X53583Y-47518D01*
X53583Y-47518D02*
X53522Y-47505D01*
X53522Y-47505D02*
X53464Y-47479D01*
X53464Y-47479D02*
X53414Y-47442D01*
X53414Y-47442D02*
X53372Y-47396D01*
X53372Y-47396D02*
X53340Y-47342D01*
X53340Y-47342D02*
X53321Y-47282D01*
X53321Y-47282D02*
X53314Y-47220D01*
X53314Y-47220D02*
X53321Y-47158D01*
X53321Y-47158D02*
X53340Y-47098D01*
X53340Y-47098D02*
X53372Y-47044D01*
X53372Y-47044D02*
X53414Y-46998D01*
X53414Y-46998D02*
X53464Y-46961D01*
X53464Y-46961D02*
X53522Y-46935D01*
X53522Y-46935D02*
X53583Y-46922D01*
X53583Y-46922D02*
X53645Y-46922D01*
X53645Y-46922D02*
X53706Y-46935D01*
X53706Y-46935D02*
X53764Y-46961D01*
X53764Y-46961D02*
X53814Y-46998D01*
X53814Y-46998D02*
X53856Y-47044D01*
X53856Y-47044D02*
X53888Y-47098D01*
X53888Y-47098D02*
X53907Y-47158D01*
X53907Y-47158D02*
X53914Y-47220D01*
X55686Y-49780D02*
X55679Y-49842D01*
X55679Y-49842D02*
X55660Y-49902D01*
X55660Y-49902D02*
X55628Y-49956D01*
X55628Y-49956D02*
X55586Y-50002D01*
X55586Y-50002D02*
X55536Y-50039D01*
X55536Y-50039D02*
X55478Y-50065D01*
X55478Y-50065D02*
X55417Y-50078D01*
X55417Y-50078D02*
X55355Y-50078D01*
X55355Y-50078D02*
X55294Y-50065D01*
X55294Y-50065D02*
X55236Y-50039D01*
X55236Y-50039D02*
X55186Y-50002D01*
X55186Y-50002D02*
X55144Y-49956D01*
X55144Y-49956D02*
X55112Y-49902D01*
X55112Y-49902D02*
X55093Y-49842D01*
X55093Y-49842D02*
X55086Y-49780D01*
X55086Y-49780D02*
X55093Y-49718D01*
X55093Y-49718D02*
X55112Y-49658D01*
X55112Y-49658D02*
X55144Y-49604D01*
X55144Y-49604D02*
X55186Y-49558D01*
X55186Y-49558D02*
X55236Y-49521D01*
X55236Y-49521D02*
X55294Y-49495D01*
X55294Y-49495D02*
X55355Y-49482D01*
X55355Y-49482D02*
X55417Y-49482D01*
X55417Y-49482D02*
X55478Y-49495D01*
X55478Y-49495D02*
X55536Y-49521D01*
X55536Y-49521D02*
X55586Y-49558D01*
X55586Y-49558D02*
X55628Y-49604D01*
X55628Y-49604D02*
X55660Y-49658D01*
X55660Y-49658D02*
X55679Y-49718D01*
X55679Y-49718D02*
X55686Y-49780D01*
X53914Y-49780D02*
X53907Y-49842D01*
X53907Y-49842D02*
X53888Y-49902D01*
X53888Y-49902D02*
X53856Y-49956D01*
X53856Y-49956D02*
X53814Y-50002D01*
X53814Y-50002D02*
X53764Y-50039D01*
X53764Y-50039D02*
X53706Y-50065D01*
X53706Y-50065D02*
X53645Y-50078D01*
X53645Y-50078D02*
X53583Y-50078D01*
X53583Y-50078D02*
X53522Y-50065D01*
X53522Y-50065D02*
X53464Y-50039D01*
X53464Y-50039D02*
X53414Y-50002D01*
X53414Y-50002D02*
X53372Y-49956D01*
X53372Y-49956D02*
X53340Y-49902D01*
X53340Y-49902D02*
X53321Y-49842D01*
X53321Y-49842D02*
X53314Y-49780D01*
X53314Y-49780D02*
X53321Y-49718D01*
X53321Y-49718D02*
X53340Y-49658D01*
X53340Y-49658D02*
X53372Y-49604D01*
X53372Y-49604D02*
X53414Y-49558D01*
X53414Y-49558D02*
X53464Y-49521D01*
X53464Y-49521D02*
X53522Y-49495D01*
X53522Y-49495D02*
X53583Y-49482D01*
X53583Y-49482D02*
X53645Y-49482D01*
X53645Y-49482D02*
X53706Y-49495D01*
X53706Y-49495D02*
X53764Y-49521D01*
X53764Y-49521D02*
X53814Y-49558D01*
X53814Y-49558D02*
X53856Y-49604D01*
X53856Y-49604D02*
X53888Y-49658D01*
X53888Y-49658D02*
X53907Y-49718D01*
X53907Y-49718D02*
X53914Y-49780D01*
X60686Y-47220D02*
X60679Y-47282D01*
X60679Y-47282D02*
X60660Y-47342D01*
X60660Y-47342D02*
X60628Y-47396D01*
X60628Y-47396D02*
X60586Y-47442D01*
X60586Y-47442D02*
X60536Y-47479D01*
X60536Y-47479D02*
X60478Y-47505D01*
X60478Y-47505D02*
X60417Y-47518D01*
X60417Y-47518D02*
X60355Y-47518D01*
X60355Y-47518D02*
X60294Y-47505D01*
X60294Y-47505D02*
X60236Y-47479D01*
X60236Y-47479D02*
X60186Y-47442D01*
X60186Y-47442D02*
X60144Y-47396D01*
X60144Y-47396D02*
X60112Y-47342D01*
X60112Y-47342D02*
X60093Y-47282D01*
X60093Y-47282D02*
X60086Y-47220D01*
X60086Y-47220D02*
X60093Y-47158D01*
X60093Y-47158D02*
X60112Y-47098D01*
X60112Y-47098D02*
X60144Y-47044D01*
X60144Y-47044D02*
X60186Y-46998D01*
X60186Y-46998D02*
X60236Y-46961D01*
X60236Y-46961D02*
X60294Y-46935D01*
X60294Y-46935D02*
X60355Y-46922D01*
X60355Y-46922D02*
X60417Y-46922D01*
X60417Y-46922D02*
X60478Y-46935D01*
X60478Y-46935D02*
X60536Y-46961D01*
X60536Y-46961D02*
X60586Y-46998D01*
X60586Y-46998D02*
X60628Y-47044D01*
X60628Y-47044D02*
X60660Y-47098D01*
X60660Y-47098D02*
X60679Y-47158D01*
X60679Y-47158D02*
X60686Y-47220D01*
X58914Y-47220D02*
X58907Y-47282D01*
X58907Y-47282D02*
X58888Y-47342D01*
X58888Y-47342D02*
X58856Y-47396D01*
X58856Y-47396D02*
X58814Y-47442D01*
X58814Y-47442D02*
X58764Y-47479D01*
X58764Y-47479D02*
X58706Y-47505D01*
X58706Y-47505D02*
X58645Y-47518D01*
X58645Y-47518D02*
X58583Y-47518D01*
X58583Y-47518D02*
X58522Y-47505D01*
X58522Y-47505D02*
X58464Y-47479D01*
X58464Y-47479D02*
X58414Y-47442D01*
X58414Y-47442D02*
X58372Y-47396D01*
X58372Y-47396D02*
X58340Y-47342D01*
X58340Y-47342D02*
X58321Y-47282D01*
X58321Y-47282D02*
X58314Y-47220D01*
X58314Y-47220D02*
X58321Y-47158D01*
X58321Y-47158D02*
X58340Y-47098D01*
X58340Y-47098D02*
X58372Y-47044D01*
X58372Y-47044D02*
X58414Y-46998D01*
X58414Y-46998D02*
X58464Y-46961D01*
X58464Y-46961D02*
X58522Y-46935D01*
X58522Y-46935D02*
X58583Y-46922D01*
X58583Y-46922D02*
X58645Y-46922D01*
X58645Y-46922D02*
X58706Y-46935D01*
X58706Y-46935D02*
X58764Y-46961D01*
X58764Y-46961D02*
X58814Y-46998D01*
X58814Y-46998D02*
X58856Y-47044D01*
X58856Y-47044D02*
X58888Y-47098D01*
X58888Y-47098D02*
X58907Y-47158D01*
X58907Y-47158D02*
X58914Y-47220D01*
X60686Y-49780D02*
X60679Y-49842D01*
X60679Y-49842D02*
X60660Y-49902D01*
X60660Y-49902D02*
X60628Y-49956D01*
X60628Y-49956D02*
X60586Y-50002D01*
X60586Y-50002D02*
X60536Y-50039D01*
X60536Y-50039D02*
X60478Y-50065D01*
X60478Y-50065D02*
X60417Y-50078D01*
X60417Y-50078D02*
X60355Y-50078D01*
X60355Y-50078D02*
X60294Y-50065D01*
X60294Y-50065D02*
X60236Y-50039D01*
X60236Y-50039D02*
X60186Y-50002D01*
X60186Y-50002D02*
X60144Y-49956D01*
X60144Y-49956D02*
X60112Y-49902D01*
X60112Y-49902D02*
X60093Y-49842D01*
X60093Y-49842D02*
X60086Y-49780D01*
X60086Y-49780D02*
X60093Y-49718D01*
X60093Y-49718D02*
X60112Y-49658D01*
X60112Y-49658D02*
X60144Y-49604D01*
X60144Y-49604D02*
X60186Y-49558D01*
X60186Y-49558D02*
X60236Y-49521D01*
X60236Y-49521D02*
X60294Y-49495D01*
X60294Y-49495D02*
X60355Y-49482D01*
X60355Y-49482D02*
X60417Y-49482D01*
X60417Y-49482D02*
X60478Y-49495D01*
X60478Y-49495D02*
X60536Y-49521D01*
X60536Y-49521D02*
X60586Y-49558D01*
X60586Y-49558D02*
X60628Y-49604D01*
X60628Y-49604D02*
X60660Y-49658D01*
X60660Y-49658D02*
X60679Y-49718D01*
X60679Y-49718D02*
X60686Y-49780D01*
X58914Y-49780D02*
X58907Y-49842D01*
X58907Y-49842D02*
X58888Y-49902D01*
X58888Y-49902D02*
X58856Y-49956D01*
X58856Y-49956D02*
X58814Y-50002D01*
X58814Y-50002D02*
X58764Y-50039D01*
X58764Y-50039D02*
X58706Y-50065D01*
X58706Y-50065D02*
X58645Y-50078D01*
X58645Y-50078D02*
X58583Y-50078D01*
X58583Y-50078D02*
X58522Y-50065D01*
X58522Y-50065D02*
X58464Y-50039D01*
X58464Y-50039D02*
X58414Y-50002D01*
X58414Y-50002D02*
X58372Y-49956D01*
X58372Y-49956D02*
X58340Y-49902D01*
X58340Y-49902D02*
X58321Y-49842D01*
X58321Y-49842D02*
X58314Y-49780D01*
X58314Y-49780D02*
X58321Y-49718D01*
X58321Y-49718D02*
X58340Y-49658D01*
X58340Y-49658D02*
X58372Y-49604D01*
X58372Y-49604D02*
X58414Y-49558D01*
X58414Y-49558D02*
X58464Y-49521D01*
X58464Y-49521D02*
X58522Y-49495D01*
X58522Y-49495D02*
X58583Y-49482D01*
X58583Y-49482D02*
X58645Y-49482D01*
X58645Y-49482D02*
X58706Y-49495D01*
X58706Y-49495D02*
X58764Y-49521D01*
X58764Y-49521D02*
X58814Y-49558D01*
X58814Y-49558D02*
X58856Y-49604D01*
X58856Y-49604D02*
X58888Y-49658D01*
X58888Y-49658D02*
X58907Y-49718D01*
X58907Y-49718D02*
X58914Y-49780D01*
X64500Y-49400D02*
X64500Y-48800D01*
X64500Y-48800D02*
X65100Y-48800D01*
X65100Y-48800D02*
X65100Y-49400D01*
X65100Y-49400D02*
X64500Y-49400D01*
X66100Y-49100D02*
X66093Y-49162D01*
X66093Y-49162D02*
X66074Y-49222D01*
X66074Y-49222D02*
X66042Y-49276D01*
X66042Y-49276D02*
X66000Y-49322D01*
X66000Y-49322D02*
X65950Y-49359D01*
X65950Y-49359D02*
X65892Y-49385D01*
X65892Y-49385D02*
X65831Y-49398D01*
X65831Y-49398D02*
X65769Y-49398D01*
X65769Y-49398D02*
X65708Y-49385D01*
X65708Y-49385D02*
X65650Y-49359D01*
X65650Y-49359D02*
X65600Y-49322D01*
X65600Y-49322D02*
X65558Y-49276D01*
X65558Y-49276D02*
X65526Y-49222D01*
X65526Y-49222D02*
X65507Y-49162D01*
X65507Y-49162D02*
X65500Y-49100D01*
X65500Y-49100D02*
X65507Y-49038D01*
X65507Y-49038D02*
X65526Y-48978D01*
X65526Y-48978D02*
X65558Y-48924D01*
X65558Y-48924D02*
X65600Y-48878D01*
X65600Y-48878D02*
X65650Y-48841D01*
X65650Y-48841D02*
X65708Y-48815D01*
X65708Y-48815D02*
X65769Y-48802D01*
X65769Y-48802D02*
X65831Y-48802D01*
X65831Y-48802D02*
X65892Y-48815D01*
X65892Y-48815D02*
X65950Y-48841D01*
X65950Y-48841D02*
X66000Y-48878D01*
X66000Y-48878D02*
X66042Y-48924D01*
X66042Y-48924D02*
X66074Y-48978D01*
X66074Y-48978D02*
X66093Y-49038D01*
X66093Y-49038D02*
X66100Y-49100D01*
X64200Y-31000D02*
X64200Y-30400D01*
X64200Y-30400D02*
X64800Y-30400D01*
X64800Y-30400D02*
X64800Y-31000D01*
X64800Y-31000D02*
X64200Y-31000D01*
X65800Y-30700D02*
X65793Y-30762D01*
X65793Y-30762D02*
X65774Y-30822D01*
X65774Y-30822D02*
X65742Y-30876D01*
X65742Y-30876D02*
X65700Y-30922D01*
X65700Y-30922D02*
X65650Y-30959D01*
X65650Y-30959D02*
X65592Y-30985D01*
X65592Y-30985D02*
X65531Y-30998D01*
X65531Y-30998D02*
X65469Y-30998D01*
X65469Y-30998D02*
X65408Y-30985D01*
X65408Y-30985D02*
X65350Y-30959D01*
X65350Y-30959D02*
X65300Y-30922D01*
X65300Y-30922D02*
X65258Y-30876D01*
X65258Y-30876D02*
X65226Y-30822D01*
X65226Y-30822D02*
X65207Y-30762D01*
X65207Y-30762D02*
X65200Y-30700D01*
X65200Y-30700D02*
X65207Y-30638D01*
X65207Y-30638D02*
X65226Y-30578D01*
X65226Y-30578D02*
X65258Y-30524D01*
X65258Y-30524D02*
X65300Y-30478D01*
X65300Y-30478D02*
X65350Y-30441D01*
X65350Y-30441D02*
X65408Y-30415D01*
X65408Y-30415D02*
X65469Y-30402D01*
X65469Y-30402D02*
X65531Y-30402D01*
X65531Y-30402D02*
X65592Y-30415D01*
X65592Y-30415D02*
X65650Y-30441D01*
X65650Y-30441D02*
X65700Y-30478D01*
X65700Y-30478D02*
X65742Y-30524D01*
X65742Y-30524D02*
X65774Y-30578D01*
X65774Y-30578D02*
X65793Y-30638D01*
X65793Y-30638D02*
X65800Y-30700D01*
X45950Y-49800D02*
X45950Y-49200D01*
X45950Y-49200D02*
X46550Y-49200D01*
X46550Y-49200D02*
X46550Y-49800D01*
X46550Y-49800D02*
X45950Y-49800D01*
X46550Y-48500D02*
X46543Y-48562D01*
X46543Y-48562D02*
X46524Y-48622D01*
X46524Y-48622D02*
X46492Y-48676D01*
X46492Y-48676D02*
X46450Y-48722D01*
X46450Y-48722D02*
X46400Y-48759D01*
X46400Y-48759D02*
X46342Y-48785D01*
X46342Y-48785D02*
X46281Y-48798D01*
X46281Y-48798D02*
X46219Y-48798D01*
X46219Y-48798D02*
X46158Y-48785D01*
X46158Y-48785D02*
X46100Y-48759D01*
X46100Y-48759D02*
X46050Y-48722D01*
X46050Y-48722D02*
X46008Y-48676D01*
X46008Y-48676D02*
X45976Y-48622D01*
X45976Y-48622D02*
X45957Y-48562D01*
X45957Y-48562D02*
X45950Y-48500D01*
X45950Y-48500D02*
X45957Y-48438D01*
X45957Y-48438D02*
X45976Y-48378D01*
X45976Y-48378D02*
X46008Y-48324D01*
X46008Y-48324D02*
X46050Y-48278D01*
X46050Y-48278D02*
X46100Y-48241D01*
X46100Y-48241D02*
X46158Y-48215D01*
X46158Y-48215D02*
X46219Y-48202D01*
X46219Y-48202D02*
X46281Y-48202D01*
X46281Y-48202D02*
X46342Y-48215D01*
X46342Y-48215D02*
X46400Y-48241D01*
X46400Y-48241D02*
X46450Y-48278D01*
X46450Y-48278D02*
X46492Y-48324D01*
X46492Y-48324D02*
X46524Y-48378D01*
X46524Y-48378D02*
X46543Y-48438D01*
X46543Y-48438D02*
X46550Y-48500D01*
X47550Y-49500D02*
X47543Y-49562D01*
X47543Y-49562D02*
X47524Y-49622D01*
X47524Y-49622D02*
X47492Y-49676D01*
X47492Y-49676D02*
X47450Y-49722D01*
X47450Y-49722D02*
X47400Y-49759D01*
X47400Y-49759D02*
X47342Y-49785D01*
X47342Y-49785D02*
X47281Y-49798D01*
X47281Y-49798D02*
X47219Y-49798D01*
X47219Y-49798D02*
X47158Y-49785D01*
X47158Y-49785D02*
X47100Y-49759D01*
X47100Y-49759D02*
X47050Y-49722D01*
X47050Y-49722D02*
X47008Y-49676D01*
X47008Y-49676D02*
X46976Y-49622D01*
X46976Y-49622D02*
X46957Y-49562D01*
X46957Y-49562D02*
X46950Y-49500D01*
X46950Y-49500D02*
X46957Y-49438D01*
X46957Y-49438D02*
X46976Y-49378D01*
X46976Y-49378D02*
X47008Y-49324D01*
X47008Y-49324D02*
X47050Y-49278D01*
X47050Y-49278D02*
X47100Y-49241D01*
X47100Y-49241D02*
X47158Y-49215D01*
X47158Y-49215D02*
X47219Y-49202D01*
X47219Y-49202D02*
X47281Y-49202D01*
X47281Y-49202D02*
X47342Y-49215D01*
X47342Y-49215D02*
X47400Y-49241D01*
X47400Y-49241D02*
X47450Y-49278D01*
X47450Y-49278D02*
X47492Y-49324D01*
X47492Y-49324D02*
X47524Y-49378D01*
X47524Y-49378D02*
X47543Y-49438D01*
X47543Y-49438D02*
X47550Y-49500D01*
X47550Y-48500D02*
X47543Y-48562D01*
X47543Y-48562D02*
X47524Y-48622D01*
X47524Y-48622D02*
X47492Y-48676D01*
X47492Y-48676D02*
X47450Y-48722D01*
X47450Y-48722D02*
X47400Y-48759D01*
X47400Y-48759D02*
X47342Y-48785D01*
X47342Y-48785D02*
X47281Y-48798D01*
X47281Y-48798D02*
X47219Y-48798D01*
X47219Y-48798D02*
X47158Y-48785D01*
X47158Y-48785D02*
X47100Y-48759D01*
X47100Y-48759D02*
X47050Y-48722D01*
X47050Y-48722D02*
X47008Y-48676D01*
X47008Y-48676D02*
X46976Y-48622D01*
X46976Y-48622D02*
X46957Y-48562D01*
X46957Y-48562D02*
X46950Y-48500D01*
X46950Y-48500D02*
X46957Y-48438D01*
X46957Y-48438D02*
X46976Y-48378D01*
X46976Y-48378D02*
X47008Y-48324D01*
X47008Y-48324D02*
X47050Y-48278D01*
X47050Y-48278D02*
X47100Y-48241D01*
X47100Y-48241D02*
X47158Y-48215D01*
X47158Y-48215D02*
X47219Y-48202D01*
X47219Y-48202D02*
X47281Y-48202D01*
X47281Y-48202D02*
X47342Y-48215D01*
X47342Y-48215D02*
X47400Y-48241D01*
X47400Y-48241D02*
X47450Y-48278D01*
X47450Y-48278D02*
X47492Y-48324D01*
X47492Y-48324D02*
X47524Y-48378D01*
X47524Y-48378D02*
X47543Y-48438D01*
X47543Y-48438D02*
X47550Y-48500D01*
X48550Y-49500D02*
X48543Y-49562D01*
X48543Y-49562D02*
X48524Y-49622D01*
X48524Y-49622D02*
X48492Y-49676D01*
X48492Y-49676D02*
X48450Y-49722D01*
X48450Y-49722D02*
X48400Y-49759D01*
X48400Y-49759D02*
X48342Y-49785D01*
X48342Y-49785D02*
X48281Y-49798D01*
X48281Y-49798D02*
X48219Y-49798D01*
X48219Y-49798D02*
X48158Y-49785D01*
X48158Y-49785D02*
X48100Y-49759D01*
X48100Y-49759D02*
X48050Y-49722D01*
X48050Y-49722D02*
X48008Y-49676D01*
X48008Y-49676D02*
X47976Y-49622D01*
X47976Y-49622D02*
X47957Y-49562D01*
X47957Y-49562D02*
X47950Y-49500D01*
X47950Y-49500D02*
X47957Y-49438D01*
X47957Y-49438D02*
X47976Y-49378D01*
X47976Y-49378D02*
X48008Y-49324D01*
X48008Y-49324D02*
X48050Y-49278D01*
X48050Y-49278D02*
X48100Y-49241D01*
X48100Y-49241D02*
X48158Y-49215D01*
X48158Y-49215D02*
X48219Y-49202D01*
X48219Y-49202D02*
X48281Y-49202D01*
X48281Y-49202D02*
X48342Y-49215D01*
X48342Y-49215D02*
X48400Y-49241D01*
X48400Y-49241D02*
X48450Y-49278D01*
X48450Y-49278D02*
X48492Y-49324D01*
X48492Y-49324D02*
X48524Y-49378D01*
X48524Y-49378D02*
X48543Y-49438D01*
X48543Y-49438D02*
X48550Y-49500D01*
X48550Y-48500D02*
X48543Y-48562D01*
X48543Y-48562D02*
X48524Y-48622D01*
X48524Y-48622D02*
X48492Y-48676D01*
X48492Y-48676D02*
X48450Y-48722D01*
X48450Y-48722D02*
X48400Y-48759D01*
X48400Y-48759D02*
X48342Y-48785D01*
X48342Y-48785D02*
X48281Y-48798D01*
X48281Y-48798D02*
X48219Y-48798D01*
X48219Y-48798D02*
X48158Y-48785D01*
X48158Y-48785D02*
X48100Y-48759D01*
X48100Y-48759D02*
X48050Y-48722D01*
X48050Y-48722D02*
X48008Y-48676D01*
X48008Y-48676D02*
X47976Y-48622D01*
X47976Y-48622D02*
X47957Y-48562D01*
X47957Y-48562D02*
X47950Y-48500D01*
X47950Y-48500D02*
X47957Y-48438D01*
X47957Y-48438D02*
X47976Y-48378D01*
X47976Y-48378D02*
X48008Y-48324D01*
X48008Y-48324D02*
X48050Y-48278D01*
X48050Y-48278D02*
X48100Y-48241D01*
X48100Y-48241D02*
X48158Y-48215D01*
X48158Y-48215D02*
X48219Y-48202D01*
X48219Y-48202D02*
X48281Y-48202D01*
X48281Y-48202D02*
X48342Y-48215D01*
X48342Y-48215D02*
X48400Y-48241D01*
X48400Y-48241D02*
X48450Y-48278D01*
X48450Y-48278D02*
X48492Y-48324D01*
X48492Y-48324D02*
X48524Y-48378D01*
X48524Y-48378D02*
X48543Y-48438D01*
X48543Y-48438D02*
X48550Y-48500D01*
X49550Y-49500D02*
X49543Y-49562D01*
X49543Y-49562D02*
X49524Y-49622D01*
X49524Y-49622D02*
X49492Y-49676D01*
X49492Y-49676D02*
X49450Y-49722D01*
X49450Y-49722D02*
X49400Y-49759D01*
X49400Y-49759D02*
X49342Y-49785D01*
X49342Y-49785D02*
X49281Y-49798D01*
X49281Y-49798D02*
X49219Y-49798D01*
X49219Y-49798D02*
X49158Y-49785D01*
X49158Y-49785D02*
X49100Y-49759D01*
X49100Y-49759D02*
X49050Y-49722D01*
X49050Y-49722D02*
X49008Y-49676D01*
X49008Y-49676D02*
X48976Y-49622D01*
X48976Y-49622D02*
X48957Y-49562D01*
X48957Y-49562D02*
X48950Y-49500D01*
X48950Y-49500D02*
X48957Y-49438D01*
X48957Y-49438D02*
X48976Y-49378D01*
X48976Y-49378D02*
X49008Y-49324D01*
X49008Y-49324D02*
X49050Y-49278D01*
X49050Y-49278D02*
X49100Y-49241D01*
X49100Y-49241D02*
X49158Y-49215D01*
X49158Y-49215D02*
X49219Y-49202D01*
X49219Y-49202D02*
X49281Y-49202D01*
X49281Y-49202D02*
X49342Y-49215D01*
X49342Y-49215D02*
X49400Y-49241D01*
X49400Y-49241D02*
X49450Y-49278D01*
X49450Y-49278D02*
X49492Y-49324D01*
X49492Y-49324D02*
X49524Y-49378D01*
X49524Y-49378D02*
X49543Y-49438D01*
X49543Y-49438D02*
X49550Y-49500D01*
X49550Y-48500D02*
X49543Y-48562D01*
X49543Y-48562D02*
X49524Y-48622D01*
X49524Y-48622D02*
X49492Y-48676D01*
X49492Y-48676D02*
X49450Y-48722D01*
X49450Y-48722D02*
X49400Y-48759D01*
X49400Y-48759D02*
X49342Y-48785D01*
X49342Y-48785D02*
X49281Y-48798D01*
X49281Y-48798D02*
X49219Y-48798D01*
X49219Y-48798D02*
X49158Y-48785D01*
X49158Y-48785D02*
X49100Y-48759D01*
X49100Y-48759D02*
X49050Y-48722D01*
X49050Y-48722D02*
X49008Y-48676D01*
X49008Y-48676D02*
X48976Y-48622D01*
X48976Y-48622D02*
X48957Y-48562D01*
X48957Y-48562D02*
X48950Y-48500D01*
X48950Y-48500D02*
X48957Y-48438D01*
X48957Y-48438D02*
X48976Y-48378D01*
X48976Y-48378D02*
X49008Y-48324D01*
X49008Y-48324D02*
X49050Y-48278D01*
X49050Y-48278D02*
X49100Y-48241D01*
X49100Y-48241D02*
X49158Y-48215D01*
X49158Y-48215D02*
X49219Y-48202D01*
X49219Y-48202D02*
X49281Y-48202D01*
X49281Y-48202D02*
X49342Y-48215D01*
X49342Y-48215D02*
X49400Y-48241D01*
X49400Y-48241D02*
X49450Y-48278D01*
X49450Y-48278D02*
X49492Y-48324D01*
X49492Y-48324D02*
X49524Y-48378D01*
X49524Y-48378D02*
X49543Y-48438D01*
X49543Y-48438D02*
X49550Y-48500D01*
X50550Y-49500D02*
X50543Y-49562D01*
X50543Y-49562D02*
X50524Y-49622D01*
X50524Y-49622D02*
X50492Y-49676D01*
X50492Y-49676D02*
X50450Y-49722D01*
X50450Y-49722D02*
X50400Y-49759D01*
X50400Y-49759D02*
X50342Y-49785D01*
X50342Y-49785D02*
X50281Y-49798D01*
X50281Y-49798D02*
X50219Y-49798D01*
X50219Y-49798D02*
X50158Y-49785D01*
X50158Y-49785D02*
X50100Y-49759D01*
X50100Y-49759D02*
X50050Y-49722D01*
X50050Y-49722D02*
X50008Y-49676D01*
X50008Y-49676D02*
X49976Y-49622D01*
X49976Y-49622D02*
X49957Y-49562D01*
X49957Y-49562D02*
X49950Y-49500D01*
X49950Y-49500D02*
X49957Y-49438D01*
X49957Y-49438D02*
X49976Y-49378D01*
X49976Y-49378D02*
X50008Y-49324D01*
X50008Y-49324D02*
X50050Y-49278D01*
X50050Y-49278D02*
X50100Y-49241D01*
X50100Y-49241D02*
X50158Y-49215D01*
X50158Y-49215D02*
X50219Y-49202D01*
X50219Y-49202D02*
X50281Y-49202D01*
X50281Y-49202D02*
X50342Y-49215D01*
X50342Y-49215D02*
X50400Y-49241D01*
X50400Y-49241D02*
X50450Y-49278D01*
X50450Y-49278D02*
X50492Y-49324D01*
X50492Y-49324D02*
X50524Y-49378D01*
X50524Y-49378D02*
X50543Y-49438D01*
X50543Y-49438D02*
X50550Y-49500D01*
X50550Y-48500D02*
X50543Y-48562D01*
X50543Y-48562D02*
X50524Y-48622D01*
X50524Y-48622D02*
X50492Y-48676D01*
X50492Y-48676D02*
X50450Y-48722D01*
X50450Y-48722D02*
X50400Y-48759D01*
X50400Y-48759D02*
X50342Y-48785D01*
X50342Y-48785D02*
X50281Y-48798D01*
X50281Y-48798D02*
X50219Y-48798D01*
X50219Y-48798D02*
X50158Y-48785D01*
X50158Y-48785D02*
X50100Y-48759D01*
X50100Y-48759D02*
X50050Y-48722D01*
X50050Y-48722D02*
X50008Y-48676D01*
X50008Y-48676D02*
X49976Y-48622D01*
X49976Y-48622D02*
X49957Y-48562D01*
X49957Y-48562D02*
X49950Y-48500D01*
X49950Y-48500D02*
X49957Y-48438D01*
X49957Y-48438D02*
X49976Y-48378D01*
X49976Y-48378D02*
X50008Y-48324D01*
X50008Y-48324D02*
X50050Y-48278D01*
X50050Y-48278D02*
X50100Y-48241D01*
X50100Y-48241D02*
X50158Y-48215D01*
X50158Y-48215D02*
X50219Y-48202D01*
X50219Y-48202D02*
X50281Y-48202D01*
X50281Y-48202D02*
X50342Y-48215D01*
X50342Y-48215D02*
X50400Y-48241D01*
X50400Y-48241D02*
X50450Y-48278D01*
X50450Y-48278D02*
X50492Y-48324D01*
X50492Y-48324D02*
X50524Y-48378D01*
X50524Y-48378D02*
X50543Y-48438D01*
X50543Y-48438D02*
X50550Y-48500D01*
X36950Y-49800D02*
X36950Y-49200D01*
X36950Y-49200D02*
X37550Y-49200D01*
X37550Y-49200D02*
X37550Y-49800D01*
X37550Y-49800D02*
X36950Y-49800D01*
X37550Y-48500D02*
X37543Y-48562D01*
X37543Y-48562D02*
X37524Y-48622D01*
X37524Y-48622D02*
X37492Y-48676D01*
X37492Y-48676D02*
X37450Y-48722D01*
X37450Y-48722D02*
X37400Y-48759D01*
X37400Y-48759D02*
X37342Y-48785D01*
X37342Y-48785D02*
X37281Y-48798D01*
X37281Y-48798D02*
X37219Y-48798D01*
X37219Y-48798D02*
X37158Y-48785D01*
X37158Y-48785D02*
X37100Y-48759D01*
X37100Y-48759D02*
X37050Y-48722D01*
X37050Y-48722D02*
X37008Y-48676D01*
X37008Y-48676D02*
X36976Y-48622D01*
X36976Y-48622D02*
X36957Y-48562D01*
X36957Y-48562D02*
X36950Y-48500D01*
X36950Y-48500D02*
X36957Y-48438D01*
X36957Y-48438D02*
X36976Y-48378D01*
X36976Y-48378D02*
X37008Y-48324D01*
X37008Y-48324D02*
X37050Y-48278D01*
X37050Y-48278D02*
X37100Y-48241D01*
X37100Y-48241D02*
X37158Y-48215D01*
X37158Y-48215D02*
X37219Y-48202D01*
X37219Y-48202D02*
X37281Y-48202D01*
X37281Y-48202D02*
X37342Y-48215D01*
X37342Y-48215D02*
X37400Y-48241D01*
X37400Y-48241D02*
X37450Y-48278D01*
X37450Y-48278D02*
X37492Y-48324D01*
X37492Y-48324D02*
X37524Y-48378D01*
X37524Y-48378D02*
X37543Y-48438D01*
X37543Y-48438D02*
X37550Y-48500D01*
X38550Y-49500D02*
X38543Y-49562D01*
X38543Y-49562D02*
X38524Y-49622D01*
X38524Y-49622D02*
X38492Y-49676D01*
X38492Y-49676D02*
X38450Y-49722D01*
X38450Y-49722D02*
X38400Y-49759D01*
X38400Y-49759D02*
X38342Y-49785D01*
X38342Y-49785D02*
X38281Y-49798D01*
X38281Y-49798D02*
X38219Y-49798D01*
X38219Y-49798D02*
X38158Y-49785D01*
X38158Y-49785D02*
X38100Y-49759D01*
X38100Y-49759D02*
X38050Y-49722D01*
X38050Y-49722D02*
X38008Y-49676D01*
X38008Y-49676D02*
X37976Y-49622D01*
X37976Y-49622D02*
X37957Y-49562D01*
X37957Y-49562D02*
X37950Y-49500D01*
X37950Y-49500D02*
X37957Y-49438D01*
X37957Y-49438D02*
X37976Y-49378D01*
X37976Y-49378D02*
X38008Y-49324D01*
X38008Y-49324D02*
X38050Y-49278D01*
X38050Y-49278D02*
X38100Y-49241D01*
X38100Y-49241D02*
X38158Y-49215D01*
X38158Y-49215D02*
X38219Y-49202D01*
X38219Y-49202D02*
X38281Y-49202D01*
X38281Y-49202D02*
X38342Y-49215D01*
X38342Y-49215D02*
X38400Y-49241D01*
X38400Y-49241D02*
X38450Y-49278D01*
X38450Y-49278D02*
X38492Y-49324D01*
X38492Y-49324D02*
X38524Y-49378D01*
X38524Y-49378D02*
X38543Y-49438D01*
X38543Y-49438D02*
X38550Y-49500D01*
X38550Y-48500D02*
X38543Y-48562D01*
X38543Y-48562D02*
X38524Y-48622D01*
X38524Y-48622D02*
X38492Y-48676D01*
X38492Y-48676D02*
X38450Y-48722D01*
X38450Y-48722D02*
X38400Y-48759D01*
X38400Y-48759D02*
X38342Y-48785D01*
X38342Y-48785D02*
X38281Y-48798D01*
X38281Y-48798D02*
X38219Y-48798D01*
X38219Y-48798D02*
X38158Y-48785D01*
X38158Y-48785D02*
X38100Y-48759D01*
X38100Y-48759D02*
X38050Y-48722D01*
X38050Y-48722D02*
X38008Y-48676D01*
X38008Y-48676D02*
X37976Y-48622D01*
X37976Y-48622D02*
X37957Y-48562D01*
X37957Y-48562D02*
X37950Y-48500D01*
X37950Y-48500D02*
X37957Y-48438D01*
X37957Y-48438D02*
X37976Y-48378D01*
X37976Y-48378D02*
X38008Y-48324D01*
X38008Y-48324D02*
X38050Y-48278D01*
X38050Y-48278D02*
X38100Y-48241D01*
X38100Y-48241D02*
X38158Y-48215D01*
X38158Y-48215D02*
X38219Y-48202D01*
X38219Y-48202D02*
X38281Y-48202D01*
X38281Y-48202D02*
X38342Y-48215D01*
X38342Y-48215D02*
X38400Y-48241D01*
X38400Y-48241D02*
X38450Y-48278D01*
X38450Y-48278D02*
X38492Y-48324D01*
X38492Y-48324D02*
X38524Y-48378D01*
X38524Y-48378D02*
X38543Y-48438D01*
X38543Y-48438D02*
X38550Y-48500D01*
X39550Y-49500D02*
X39543Y-49562D01*
X39543Y-49562D02*
X39524Y-49622D01*
X39524Y-49622D02*
X39492Y-49676D01*
X39492Y-49676D02*
X39450Y-49722D01*
X39450Y-49722D02*
X39400Y-49759D01*
X39400Y-49759D02*
X39342Y-49785D01*
X39342Y-49785D02*
X39281Y-49798D01*
X39281Y-49798D02*
X39219Y-49798D01*
X39219Y-49798D02*
X39158Y-49785D01*
X39158Y-49785D02*
X39100Y-49759D01*
X39100Y-49759D02*
X39050Y-49722D01*
X39050Y-49722D02*
X39008Y-49676D01*
X39008Y-49676D02*
X38976Y-49622D01*
X38976Y-49622D02*
X38957Y-49562D01*
X38957Y-49562D02*
X38950Y-49500D01*
X38950Y-49500D02*
X38957Y-49438D01*
X38957Y-49438D02*
X38976Y-49378D01*
X38976Y-49378D02*
X39008Y-49324D01*
X39008Y-49324D02*
X39050Y-49278D01*
X39050Y-49278D02*
X39100Y-49241D01*
X39100Y-49241D02*
X39158Y-49215D01*
X39158Y-49215D02*
X39219Y-49202D01*
X39219Y-49202D02*
X39281Y-49202D01*
X39281Y-49202D02*
X39342Y-49215D01*
X39342Y-49215D02*
X39400Y-49241D01*
X39400Y-49241D02*
X39450Y-49278D01*
X39450Y-49278D02*
X39492Y-49324D01*
X39492Y-49324D02*
X39524Y-49378D01*
X39524Y-49378D02*
X39543Y-49438D01*
X39543Y-49438D02*
X39550Y-49500D01*
X39550Y-48500D02*
X39543Y-48562D01*
X39543Y-48562D02*
X39524Y-48622D01*
X39524Y-48622D02*
X39492Y-48676D01*
X39492Y-48676D02*
X39450Y-48722D01*
X39450Y-48722D02*
X39400Y-48759D01*
X39400Y-48759D02*
X39342Y-48785D01*
X39342Y-48785D02*
X39281Y-48798D01*
X39281Y-48798D02*
X39219Y-48798D01*
X39219Y-48798D02*
X39158Y-48785D01*
X39158Y-48785D02*
X39100Y-48759D01*
X39100Y-48759D02*
X39050Y-48722D01*
X39050Y-48722D02*
X39008Y-48676D01*
X39008Y-48676D02*
X38976Y-48622D01*
X38976Y-48622D02*
X38957Y-48562D01*
X38957Y-48562D02*
X38950Y-48500D01*
X38950Y-48500D02*
X38957Y-48438D01*
X38957Y-48438D02*
X38976Y-48378D01*
X38976Y-48378D02*
X39008Y-48324D01*
X39008Y-48324D02*
X39050Y-48278D01*
X39050Y-48278D02*
X39100Y-48241D01*
X39100Y-48241D02*
X39158Y-48215D01*
X39158Y-48215D02*
X39219Y-48202D01*
X39219Y-48202D02*
X39281Y-48202D01*
X39281Y-48202D02*
X39342Y-48215D01*
X39342Y-48215D02*
X39400Y-48241D01*
X39400Y-48241D02*
X39450Y-48278D01*
X39450Y-48278D02*
X39492Y-48324D01*
X39492Y-48324D02*
X39524Y-48378D01*
X39524Y-48378D02*
X39543Y-48438D01*
X39543Y-48438D02*
X39550Y-48500D01*
X40550Y-49500D02*
X40543Y-49562D01*
X40543Y-49562D02*
X40524Y-49622D01*
X40524Y-49622D02*
X40492Y-49676D01*
X40492Y-49676D02*
X40450Y-49722D01*
X40450Y-49722D02*
X40400Y-49759D01*
X40400Y-49759D02*
X40342Y-49785D01*
X40342Y-49785D02*
X40281Y-49798D01*
X40281Y-49798D02*
X40219Y-49798D01*
X40219Y-49798D02*
X40158Y-49785D01*
X40158Y-49785D02*
X40100Y-49759D01*
X40100Y-49759D02*
X40050Y-49722D01*
X40050Y-49722D02*
X40008Y-49676D01*
X40008Y-49676D02*
X39976Y-49622D01*
X39976Y-49622D02*
X39957Y-49562D01*
X39957Y-49562D02*
X39950Y-49500D01*
X39950Y-49500D02*
X39957Y-49438D01*
X39957Y-49438D02*
X39976Y-49378D01*
X39976Y-49378D02*
X40008Y-49324D01*
X40008Y-49324D02*
X40050Y-49278D01*
X40050Y-49278D02*
X40100Y-49241D01*
X40100Y-49241D02*
X40158Y-49215D01*
X40158Y-49215D02*
X40219Y-49202D01*
X40219Y-49202D02*
X40281Y-49202D01*
X40281Y-49202D02*
X40342Y-49215D01*
X40342Y-49215D02*
X40400Y-49241D01*
X40400Y-49241D02*
X40450Y-49278D01*
X40450Y-49278D02*
X40492Y-49324D01*
X40492Y-49324D02*
X40524Y-49378D01*
X40524Y-49378D02*
X40543Y-49438D01*
X40543Y-49438D02*
X40550Y-49500D01*
X40550Y-48500D02*
X40543Y-48562D01*
X40543Y-48562D02*
X40524Y-48622D01*
X40524Y-48622D02*
X40492Y-48676D01*
X40492Y-48676D02*
X40450Y-48722D01*
X40450Y-48722D02*
X40400Y-48759D01*
X40400Y-48759D02*
X40342Y-48785D01*
X40342Y-48785D02*
X40281Y-48798D01*
X40281Y-48798D02*
X40219Y-48798D01*
X40219Y-48798D02*
X40158Y-48785D01*
X40158Y-48785D02*
X40100Y-48759D01*
X40100Y-48759D02*
X40050Y-48722D01*
X40050Y-48722D02*
X40008Y-48676D01*
X40008Y-48676D02*
X39976Y-48622D01*
X39976Y-48622D02*
X39957Y-48562D01*
X39957Y-48562D02*
X39950Y-48500D01*
X39950Y-48500D02*
X39957Y-48438D01*
X39957Y-48438D02*
X39976Y-48378D01*
X39976Y-48378D02*
X40008Y-48324D01*
X40008Y-48324D02*
X40050Y-48278D01*
X40050Y-48278D02*
X40100Y-48241D01*
X40100Y-48241D02*
X40158Y-48215D01*
X40158Y-48215D02*
X40219Y-48202D01*
X40219Y-48202D02*
X40281Y-48202D01*
X40281Y-48202D02*
X40342Y-48215D01*
X40342Y-48215D02*
X40400Y-48241D01*
X40400Y-48241D02*
X40450Y-48278D01*
X40450Y-48278D02*
X40492Y-48324D01*
X40492Y-48324D02*
X40524Y-48378D01*
X40524Y-48378D02*
X40543Y-48438D01*
X40543Y-48438D02*
X40550Y-48500D01*
X41550Y-49500D02*
X41543Y-49562D01*
X41543Y-49562D02*
X41524Y-49622D01*
X41524Y-49622D02*
X41492Y-49676D01*
X41492Y-49676D02*
X41450Y-49722D01*
X41450Y-49722D02*
X41400Y-49759D01*
X41400Y-49759D02*
X41342Y-49785D01*
X41342Y-49785D02*
X41281Y-49798D01*
X41281Y-49798D02*
X41219Y-49798D01*
X41219Y-49798D02*
X41158Y-49785D01*
X41158Y-49785D02*
X41100Y-49759D01*
X41100Y-49759D02*
X41050Y-49722D01*
X41050Y-49722D02*
X41008Y-49676D01*
X41008Y-49676D02*
X40976Y-49622D01*
X40976Y-49622D02*
X40957Y-49562D01*
X40957Y-49562D02*
X40950Y-49500D01*
X40950Y-49500D02*
X40957Y-49438D01*
X40957Y-49438D02*
X40976Y-49378D01*
X40976Y-49378D02*
X41008Y-49324D01*
X41008Y-49324D02*
X41050Y-49278D01*
X41050Y-49278D02*
X41100Y-49241D01*
X41100Y-49241D02*
X41158Y-49215D01*
X41158Y-49215D02*
X41219Y-49202D01*
X41219Y-49202D02*
X41281Y-49202D01*
X41281Y-49202D02*
X41342Y-49215D01*
X41342Y-49215D02*
X41400Y-49241D01*
X41400Y-49241D02*
X41450Y-49278D01*
X41450Y-49278D02*
X41492Y-49324D01*
X41492Y-49324D02*
X41524Y-49378D01*
X41524Y-49378D02*
X41543Y-49438D01*
X41543Y-49438D02*
X41550Y-49500D01*
X41550Y-48500D02*
X41543Y-48562D01*
X41543Y-48562D02*
X41524Y-48622D01*
X41524Y-48622D02*
X41492Y-48676D01*
X41492Y-48676D02*
X41450Y-48722D01*
X41450Y-48722D02*
X41400Y-48759D01*
X41400Y-48759D02*
X41342Y-48785D01*
X41342Y-48785D02*
X41281Y-48798D01*
X41281Y-48798D02*
X41219Y-48798D01*
X41219Y-48798D02*
X41158Y-48785D01*
X41158Y-48785D02*
X41100Y-48759D01*
X41100Y-48759D02*
X41050Y-48722D01*
X41050Y-48722D02*
X41008Y-48676D01*
X41008Y-48676D02*
X40976Y-48622D01*
X40976Y-48622D02*
X40957Y-48562D01*
X40957Y-48562D02*
X40950Y-48500D01*
X40950Y-48500D02*
X40957Y-48438D01*
X40957Y-48438D02*
X40976Y-48378D01*
X40976Y-48378D02*
X41008Y-48324D01*
X41008Y-48324D02*
X41050Y-48278D01*
X41050Y-48278D02*
X41100Y-48241D01*
X41100Y-48241D02*
X41158Y-48215D01*
X41158Y-48215D02*
X41219Y-48202D01*
X41219Y-48202D02*
X41281Y-48202D01*
X41281Y-48202D02*
X41342Y-48215D01*
X41342Y-48215D02*
X41400Y-48241D01*
X41400Y-48241D02*
X41450Y-48278D01*
X41450Y-48278D02*
X41492Y-48324D01*
X41492Y-48324D02*
X41524Y-48378D01*
X41524Y-48378D02*
X41543Y-48438D01*
X41543Y-48438D02*
X41550Y-48500D01*
X54950Y-31800D02*
X54950Y-31200D01*
X54950Y-31200D02*
X55550Y-31200D01*
X55550Y-31200D02*
X55550Y-31800D01*
X55550Y-31800D02*
X54950Y-31800D01*
X55550Y-30500D02*
X55543Y-30562D01*
X55543Y-30562D02*
X55524Y-30622D01*
X55524Y-30622D02*
X55492Y-30676D01*
X55492Y-30676D02*
X55450Y-30722D01*
X55450Y-30722D02*
X55400Y-30759D01*
X55400Y-30759D02*
X55342Y-30785D01*
X55342Y-30785D02*
X55281Y-30798D01*
X55281Y-30798D02*
X55219Y-30798D01*
X55219Y-30798D02*
X55158Y-30785D01*
X55158Y-30785D02*
X55100Y-30759D01*
X55100Y-30759D02*
X55050Y-30722D01*
X55050Y-30722D02*
X55008Y-30676D01*
X55008Y-30676D02*
X54976Y-30622D01*
X54976Y-30622D02*
X54957Y-30562D01*
X54957Y-30562D02*
X54950Y-30500D01*
X54950Y-30500D02*
X54957Y-30438D01*
X54957Y-30438D02*
X54976Y-30378D01*
X54976Y-30378D02*
X55008Y-30324D01*
X55008Y-30324D02*
X55050Y-30278D01*
X55050Y-30278D02*
X55100Y-30241D01*
X55100Y-30241D02*
X55158Y-30215D01*
X55158Y-30215D02*
X55219Y-30202D01*
X55219Y-30202D02*
X55281Y-30202D01*
X55281Y-30202D02*
X55342Y-30215D01*
X55342Y-30215D02*
X55400Y-30241D01*
X55400Y-30241D02*
X55450Y-30278D01*
X55450Y-30278D02*
X55492Y-30324D01*
X55492Y-30324D02*
X55524Y-30378D01*
X55524Y-30378D02*
X55543Y-30438D01*
X55543Y-30438D02*
X55550Y-30500D01*
X56550Y-31500D02*
X56543Y-31562D01*
X56543Y-31562D02*
X56524Y-31622D01*
X56524Y-31622D02*
X56492Y-31676D01*
X56492Y-31676D02*
X56450Y-31722D01*
X56450Y-31722D02*
X56400Y-31759D01*
X56400Y-31759D02*
X56342Y-31785D01*
X56342Y-31785D02*
X56281Y-31798D01*
X56281Y-31798D02*
X56219Y-31798D01*
X56219Y-31798D02*
X56158Y-31785D01*
X56158Y-31785D02*
X56100Y-31759D01*
X56100Y-31759D02*
X56050Y-31722D01*
X56050Y-31722D02*
X56008Y-31676D01*
X56008Y-31676D02*
X55976Y-31622D01*
X55976Y-31622D02*
X55957Y-31562D01*
X55957Y-31562D02*
X55950Y-31500D01*
X55950Y-31500D02*
X55957Y-31438D01*
X55957Y-31438D02*
X55976Y-31378D01*
X55976Y-31378D02*
X56008Y-31324D01*
X56008Y-31324D02*
X56050Y-31278D01*
X56050Y-31278D02*
X56100Y-31241D01*
X56100Y-31241D02*
X56158Y-31215D01*
X56158Y-31215D02*
X56219Y-31202D01*
X56219Y-31202D02*
X56281Y-31202D01*
X56281Y-31202D02*
X56342Y-31215D01*
X56342Y-31215D02*
X56400Y-31241D01*
X56400Y-31241D02*
X56450Y-31278D01*
X56450Y-31278D02*
X56492Y-31324D01*
X56492Y-31324D02*
X56524Y-31378D01*
X56524Y-31378D02*
X56543Y-31438D01*
X56543Y-31438D02*
X56550Y-31500D01*
X56550Y-30500D02*
X56543Y-30562D01*
X56543Y-30562D02*
X56524Y-30622D01*
X56524Y-30622D02*
X56492Y-30676D01*
X56492Y-30676D02*
X56450Y-30722D01*
X56450Y-30722D02*
X56400Y-30759D01*
X56400Y-30759D02*
X56342Y-30785D01*
X56342Y-30785D02*
X56281Y-30798D01*
X56281Y-30798D02*
X56219Y-30798D01*
X56219Y-30798D02*
X56158Y-30785D01*
X56158Y-30785D02*
X56100Y-30759D01*
X56100Y-30759D02*
X56050Y-30722D01*
X56050Y-30722D02*
X56008Y-30676D01*
X56008Y-30676D02*
X55976Y-30622D01*
X55976Y-30622D02*
X55957Y-30562D01*
X55957Y-30562D02*
X55950Y-30500D01*
X55950Y-30500D02*
X55957Y-30438D01*
X55957Y-30438D02*
X55976Y-30378D01*
X55976Y-30378D02*
X56008Y-30324D01*
X56008Y-30324D02*
X56050Y-30278D01*
X56050Y-30278D02*
X56100Y-30241D01*
X56100Y-30241D02*
X56158Y-30215D01*
X56158Y-30215D02*
X56219Y-30202D01*
X56219Y-30202D02*
X56281Y-30202D01*
X56281Y-30202D02*
X56342Y-30215D01*
X56342Y-30215D02*
X56400Y-30241D01*
X56400Y-30241D02*
X56450Y-30278D01*
X56450Y-30278D02*
X56492Y-30324D01*
X56492Y-30324D02*
X56524Y-30378D01*
X56524Y-30378D02*
X56543Y-30438D01*
X56543Y-30438D02*
X56550Y-30500D01*
X57550Y-31500D02*
X57543Y-31562D01*
X57543Y-31562D02*
X57524Y-31622D01*
X57524Y-31622D02*
X57492Y-31676D01*
X57492Y-31676D02*
X57450Y-31722D01*
X57450Y-31722D02*
X57400Y-31759D01*
X57400Y-31759D02*
X57342Y-31785D01*
X57342Y-31785D02*
X57281Y-31798D01*
X57281Y-31798D02*
X57219Y-31798D01*
X57219Y-31798D02*
X57158Y-31785D01*
X57158Y-31785D02*
X57100Y-31759D01*
X57100Y-31759D02*
X57050Y-31722D01*
X57050Y-31722D02*
X57008Y-31676D01*
X57008Y-31676D02*
X56976Y-31622D01*
X56976Y-31622D02*
X56957Y-31562D01*
X56957Y-31562D02*
X56950Y-31500D01*
X56950Y-31500D02*
X56957Y-31438D01*
X56957Y-31438D02*
X56976Y-31378D01*
X56976Y-31378D02*
X57008Y-31324D01*
X57008Y-31324D02*
X57050Y-31278D01*
X57050Y-31278D02*
X57100Y-31241D01*
X57100Y-31241D02*
X57158Y-31215D01*
X57158Y-31215D02*
X57219Y-31202D01*
X57219Y-31202D02*
X57281Y-31202D01*
X57281Y-31202D02*
X57342Y-31215D01*
X57342Y-31215D02*
X57400Y-31241D01*
X57400Y-31241D02*
X57450Y-31278D01*
X57450Y-31278D02*
X57492Y-31324D01*
X57492Y-31324D02*
X57524Y-31378D01*
X57524Y-31378D02*
X57543Y-31438D01*
X57543Y-31438D02*
X57550Y-31500D01*
X57550Y-30500D02*
X57543Y-30562D01*
X57543Y-30562D02*
X57524Y-30622D01*
X57524Y-30622D02*
X57492Y-30676D01*
X57492Y-30676D02*
X57450Y-30722D01*
X57450Y-30722D02*
X57400Y-30759D01*
X57400Y-30759D02*
X57342Y-30785D01*
X57342Y-30785D02*
X57281Y-30798D01*
X57281Y-30798D02*
X57219Y-30798D01*
X57219Y-30798D02*
X57158Y-30785D01*
X57158Y-30785D02*
X57100Y-30759D01*
X57100Y-30759D02*
X57050Y-30722D01*
X57050Y-30722D02*
X57008Y-30676D01*
X57008Y-30676D02*
X56976Y-30622D01*
X56976Y-30622D02*
X56957Y-30562D01*
X56957Y-30562D02*
X56950Y-30500D01*
X56950Y-30500D02*
X56957Y-30438D01*
X56957Y-30438D02*
X56976Y-30378D01*
X56976Y-30378D02*
X57008Y-30324D01*
X57008Y-30324D02*
X57050Y-30278D01*
X57050Y-30278D02*
X57100Y-30241D01*
X57100Y-30241D02*
X57158Y-30215D01*
X57158Y-30215D02*
X57219Y-30202D01*
X57219Y-30202D02*
X57281Y-30202D01*
X57281Y-30202D02*
X57342Y-30215D01*
X57342Y-30215D02*
X57400Y-30241D01*
X57400Y-30241D02*
X57450Y-30278D01*
X57450Y-30278D02*
X57492Y-30324D01*
X57492Y-30324D02*
X57524Y-30378D01*
X57524Y-30378D02*
X57543Y-30438D01*
X57543Y-30438D02*
X57550Y-30500D01*
X58550Y-31500D02*
X58543Y-31562D01*
X58543Y-31562D02*
X58524Y-31622D01*
X58524Y-31622D02*
X58492Y-31676D01*
X58492Y-31676D02*
X58450Y-31722D01*
X58450Y-31722D02*
X58400Y-31759D01*
X58400Y-31759D02*
X58342Y-31785D01*
X58342Y-31785D02*
X58281Y-31798D01*
X58281Y-31798D02*
X58219Y-31798D01*
X58219Y-31798D02*
X58158Y-31785D01*
X58158Y-31785D02*
X58100Y-31759D01*
X58100Y-31759D02*
X58050Y-31722D01*
X58050Y-31722D02*
X58008Y-31676D01*
X58008Y-31676D02*
X57976Y-31622D01*
X57976Y-31622D02*
X57957Y-31562D01*
X57957Y-31562D02*
X57950Y-31500D01*
X57950Y-31500D02*
X57957Y-31438D01*
X57957Y-31438D02*
X57976Y-31378D01*
X57976Y-31378D02*
X58008Y-31324D01*
X58008Y-31324D02*
X58050Y-31278D01*
X58050Y-31278D02*
X58100Y-31241D01*
X58100Y-31241D02*
X58158Y-31215D01*
X58158Y-31215D02*
X58219Y-31202D01*
X58219Y-31202D02*
X58281Y-31202D01*
X58281Y-31202D02*
X58342Y-31215D01*
X58342Y-31215D02*
X58400Y-31241D01*
X58400Y-31241D02*
X58450Y-31278D01*
X58450Y-31278D02*
X58492Y-31324D01*
X58492Y-31324D02*
X58524Y-31378D01*
X58524Y-31378D02*
X58543Y-31438D01*
X58543Y-31438D02*
X58550Y-31500D01*
X58550Y-30500D02*
X58543Y-30562D01*
X58543Y-30562D02*
X58524Y-30622D01*
X58524Y-30622D02*
X58492Y-30676D01*
X58492Y-30676D02*
X58450Y-30722D01*
X58450Y-30722D02*
X58400Y-30759D01*
X58400Y-30759D02*
X58342Y-30785D01*
X58342Y-30785D02*
X58281Y-30798D01*
X58281Y-30798D02*
X58219Y-30798D01*
X58219Y-30798D02*
X58158Y-30785D01*
X58158Y-30785D02*
X58100Y-30759D01*
X58100Y-30759D02*
X58050Y-30722D01*
X58050Y-30722D02*
X58008Y-30676D01*
X58008Y-30676D02*
X57976Y-30622D01*
X57976Y-30622D02*
X57957Y-30562D01*
X57957Y-30562D02*
X57950Y-30500D01*
X57950Y-30500D02*
X57957Y-30438D01*
X57957Y-30438D02*
X57976Y-30378D01*
X57976Y-30378D02*
X58008Y-30324D01*
X58008Y-30324D02*
X58050Y-30278D01*
X58050Y-30278D02*
X58100Y-30241D01*
X58100Y-30241D02*
X58158Y-30215D01*
X58158Y-30215D02*
X58219Y-30202D01*
X58219Y-30202D02*
X58281Y-30202D01*
X58281Y-30202D02*
X58342Y-30215D01*
X58342Y-30215D02*
X58400Y-30241D01*
X58400Y-30241D02*
X58450Y-30278D01*
X58450Y-30278D02*
X58492Y-30324D01*
X58492Y-30324D02*
X58524Y-30378D01*
X58524Y-30378D02*
X58543Y-30438D01*
X58543Y-30438D02*
X58550Y-30500D01*
X59550Y-31500D02*
X59543Y-31562D01*
X59543Y-31562D02*
X59524Y-31622D01*
X59524Y-31622D02*
X59492Y-31676D01*
X59492Y-31676D02*
X59450Y-31722D01*
X59450Y-31722D02*
X59400Y-31759D01*
X59400Y-31759D02*
X59342Y-31785D01*
X59342Y-31785D02*
X59281Y-31798D01*
X59281Y-31798D02*
X59219Y-31798D01*
X59219Y-31798D02*
X59158Y-31785D01*
X59158Y-31785D02*
X59100Y-31759D01*
X59100Y-31759D02*
X59050Y-31722D01*
X59050Y-31722D02*
X59008Y-31676D01*
X59008Y-31676D02*
X58976Y-31622D01*
X58976Y-31622D02*
X58957Y-31562D01*
X58957Y-31562D02*
X58950Y-31500D01*
X58950Y-31500D02*
X58957Y-31438D01*
X58957Y-31438D02*
X58976Y-31378D01*
X58976Y-31378D02*
X59008Y-31324D01*
X59008Y-31324D02*
X59050Y-31278D01*
X59050Y-31278D02*
X59100Y-31241D01*
X59100Y-31241D02*
X59158Y-31215D01*
X59158Y-31215D02*
X59219Y-31202D01*
X59219Y-31202D02*
X59281Y-31202D01*
X59281Y-31202D02*
X59342Y-31215D01*
X59342Y-31215D02*
X59400Y-31241D01*
X59400Y-31241D02*
X59450Y-31278D01*
X59450Y-31278D02*
X59492Y-31324D01*
X59492Y-31324D02*
X59524Y-31378D01*
X59524Y-31378D02*
X59543Y-31438D01*
X59543Y-31438D02*
X59550Y-31500D01*
X59550Y-30500D02*
X59543Y-30562D01*
X59543Y-30562D02*
X59524Y-30622D01*
X59524Y-30622D02*
X59492Y-30676D01*
X59492Y-30676D02*
X59450Y-30722D01*
X59450Y-30722D02*
X59400Y-30759D01*
X59400Y-30759D02*
X59342Y-30785D01*
X59342Y-30785D02*
X59281Y-30798D01*
X59281Y-30798D02*
X59219Y-30798D01*
X59219Y-30798D02*
X59158Y-30785D01*
X59158Y-30785D02*
X59100Y-30759D01*
X59100Y-30759D02*
X59050Y-30722D01*
X59050Y-30722D02*
X59008Y-30676D01*
X59008Y-30676D02*
X58976Y-30622D01*
X58976Y-30622D02*
X58957Y-30562D01*
X58957Y-30562D02*
X58950Y-30500D01*
X58950Y-30500D02*
X58957Y-30438D01*
X58957Y-30438D02*
X58976Y-30378D01*
X58976Y-30378D02*
X59008Y-30324D01*
X59008Y-30324D02*
X59050Y-30278D01*
X59050Y-30278D02*
X59100Y-30241D01*
X59100Y-30241D02*
X59158Y-30215D01*
X59158Y-30215D02*
X59219Y-30202D01*
X59219Y-30202D02*
X59281Y-30202D01*
X59281Y-30202D02*
X59342Y-30215D01*
X59342Y-30215D02*
X59400Y-30241D01*
X59400Y-30241D02*
X59450Y-30278D01*
X59450Y-30278D02*
X59492Y-30324D01*
X59492Y-30324D02*
X59524Y-30378D01*
X59524Y-30378D02*
X59543Y-30438D01*
X59543Y-30438D02*
X59550Y-30500D01*
X45950Y-31800D02*
X45950Y-31200D01*
X45950Y-31200D02*
X46550Y-31200D01*
X46550Y-31200D02*
X46550Y-31800D01*
X46550Y-31800D02*
X45950Y-31800D01*
X46550Y-30500D02*
X46543Y-30562D01*
X46543Y-30562D02*
X46524Y-30622D01*
X46524Y-30622D02*
X46492Y-30676D01*
X46492Y-30676D02*
X46450Y-30722D01*
X46450Y-30722D02*
X46400Y-30759D01*
X46400Y-30759D02*
X46342Y-30785D01*
X46342Y-30785D02*
X46281Y-30798D01*
X46281Y-30798D02*
X46219Y-30798D01*
X46219Y-30798D02*
X46158Y-30785D01*
X46158Y-30785D02*
X46100Y-30759D01*
X46100Y-30759D02*
X46050Y-30722D01*
X46050Y-30722D02*
X46008Y-30676D01*
X46008Y-30676D02*
X45976Y-30622D01*
X45976Y-30622D02*
X45957Y-30562D01*
X45957Y-30562D02*
X45950Y-30500D01*
X45950Y-30500D02*
X45957Y-30438D01*
X45957Y-30438D02*
X45976Y-30378D01*
X45976Y-30378D02*
X46008Y-30324D01*
X46008Y-30324D02*
X46050Y-30278D01*
X46050Y-30278D02*
X46100Y-30241D01*
X46100Y-30241D02*
X46158Y-30215D01*
X46158Y-30215D02*
X46219Y-30202D01*
X46219Y-30202D02*
X46281Y-30202D01*
X46281Y-30202D02*
X46342Y-30215D01*
X46342Y-30215D02*
X46400Y-30241D01*
X46400Y-30241D02*
X46450Y-30278D01*
X46450Y-30278D02*
X46492Y-30324D01*
X46492Y-30324D02*
X46524Y-30378D01*
X46524Y-30378D02*
X46543Y-30438D01*
X46543Y-30438D02*
X46550Y-30500D01*
X47550Y-31500D02*
X47543Y-31562D01*
X47543Y-31562D02*
X47524Y-31622D01*
X47524Y-31622D02*
X47492Y-31676D01*
X47492Y-31676D02*
X47450Y-31722D01*
X47450Y-31722D02*
X47400Y-31759D01*
X47400Y-31759D02*
X47342Y-31785D01*
X47342Y-31785D02*
X47281Y-31798D01*
X47281Y-31798D02*
X47219Y-31798D01*
X47219Y-31798D02*
X47158Y-31785D01*
X47158Y-31785D02*
X47100Y-31759D01*
X47100Y-31759D02*
X47050Y-31722D01*
X47050Y-31722D02*
X47008Y-31676D01*
X47008Y-31676D02*
X46976Y-31622D01*
X46976Y-31622D02*
X46957Y-31562D01*
X46957Y-31562D02*
X46950Y-31500D01*
X46950Y-31500D02*
X46957Y-31438D01*
X46957Y-31438D02*
X46976Y-31378D01*
X46976Y-31378D02*
X47008Y-31324D01*
X47008Y-31324D02*
X47050Y-31278D01*
X47050Y-31278D02*
X47100Y-31241D01*
X47100Y-31241D02*
X47158Y-31215D01*
X47158Y-31215D02*
X47219Y-31202D01*
X47219Y-31202D02*
X47281Y-31202D01*
X47281Y-31202D02*
X47342Y-31215D01*
X47342Y-31215D02*
X47400Y-31241D01*
X47400Y-31241D02*
X47450Y-31278D01*
X47450Y-31278D02*
X47492Y-31324D01*
X47492Y-31324D02*
X47524Y-31378D01*
X47524Y-31378D02*
X47543Y-31438D01*
X47543Y-31438D02*
X47550Y-31500D01*
X47550Y-30500D02*
X47543Y-30562D01*
X47543Y-30562D02*
X47524Y-30622D01*
X47524Y-30622D02*
X47492Y-30676D01*
X47492Y-30676D02*
X47450Y-30722D01*
X47450Y-30722D02*
X47400Y-30759D01*
X47400Y-30759D02*
X47342Y-30785D01*
X47342Y-30785D02*
X47281Y-30798D01*
X47281Y-30798D02*
X47219Y-30798D01*
X47219Y-30798D02*
X47158Y-30785D01*
X47158Y-30785D02*
X47100Y-30759D01*
X47100Y-30759D02*
X47050Y-30722D01*
X47050Y-30722D02*
X47008Y-30676D01*
X47008Y-30676D02*
X46976Y-30622D01*
X46976Y-30622D02*
X46957Y-30562D01*
X46957Y-30562D02*
X46950Y-30500D01*
X46950Y-30500D02*
X46957Y-30438D01*
X46957Y-30438D02*
X46976Y-30378D01*
X46976Y-30378D02*
X47008Y-30324D01*
X47008Y-30324D02*
X47050Y-30278D01*
X47050Y-30278D02*
X47100Y-30241D01*
X47100Y-30241D02*
X47158Y-30215D01*
X47158Y-30215D02*
X47219Y-30202D01*
X47219Y-30202D02*
X47281Y-30202D01*
X47281Y-30202D02*
X47342Y-30215D01*
X47342Y-30215D02*
X47400Y-30241D01*
X47400Y-30241D02*
X47450Y-30278D01*
X47450Y-30278D02*
X47492Y-30324D01*
X47492Y-30324D02*
X47524Y-30378D01*
X47524Y-30378D02*
X47543Y-30438D01*
X47543Y-30438D02*
X47550Y-30500D01*
X48550Y-31500D02*
X48543Y-31562D01*
X48543Y-31562D02*
X48524Y-31622D01*
X48524Y-31622D02*
X48492Y-31676D01*
X48492Y-31676D02*
X48450Y-31722D01*
X48450Y-31722D02*
X48400Y-31759D01*
X48400Y-31759D02*
X48342Y-31785D01*
X48342Y-31785D02*
X48281Y-31798D01*
X48281Y-31798D02*
X48219Y-31798D01*
X48219Y-31798D02*
X48158Y-31785D01*
X48158Y-31785D02*
X48100Y-31759D01*
X48100Y-31759D02*
X48050Y-31722D01*
X48050Y-31722D02*
X48008Y-31676D01*
X48008Y-31676D02*
X47976Y-31622D01*
X47976Y-31622D02*
X47957Y-31562D01*
X47957Y-31562D02*
X47950Y-31500D01*
X47950Y-31500D02*
X47957Y-31438D01*
X47957Y-31438D02*
X47976Y-31378D01*
X47976Y-31378D02*
X48008Y-31324D01*
X48008Y-31324D02*
X48050Y-31278D01*
X48050Y-31278D02*
X48100Y-31241D01*
X48100Y-31241D02*
X48158Y-31215D01*
X48158Y-31215D02*
X48219Y-31202D01*
X48219Y-31202D02*
X48281Y-31202D01*
X48281Y-31202D02*
X48342Y-31215D01*
X48342Y-31215D02*
X48400Y-31241D01*
X48400Y-31241D02*
X48450Y-31278D01*
X48450Y-31278D02*
X48492Y-31324D01*
X48492Y-31324D02*
X48524Y-31378D01*
X48524Y-31378D02*
X48543Y-31438D01*
X48543Y-31438D02*
X48550Y-31500D01*
X48550Y-30500D02*
X48543Y-30562D01*
X48543Y-30562D02*
X48524Y-30622D01*
X48524Y-30622D02*
X48492Y-30676D01*
X48492Y-30676D02*
X48450Y-30722D01*
X48450Y-30722D02*
X48400Y-30759D01*
X48400Y-30759D02*
X48342Y-30785D01*
X48342Y-30785D02*
X48281Y-30798D01*
X48281Y-30798D02*
X48219Y-30798D01*
X48219Y-30798D02*
X48158Y-30785D01*
X48158Y-30785D02*
X48100Y-30759D01*
X48100Y-30759D02*
X48050Y-30722D01*
X48050Y-30722D02*
X48008Y-30676D01*
X48008Y-30676D02*
X47976Y-30622D01*
X47976Y-30622D02*
X47957Y-30562D01*
X47957Y-30562D02*
X47950Y-30500D01*
X47950Y-30500D02*
X47957Y-30438D01*
X47957Y-30438D02*
X47976Y-30378D01*
X47976Y-30378D02*
X48008Y-30324D01*
X48008Y-30324D02*
X48050Y-30278D01*
X48050Y-30278D02*
X48100Y-30241D01*
X48100Y-30241D02*
X48158Y-30215D01*
X48158Y-30215D02*
X48219Y-30202D01*
X48219Y-30202D02*
X48281Y-30202D01*
X48281Y-30202D02*
X48342Y-30215D01*
X48342Y-30215D02*
X48400Y-30241D01*
X48400Y-30241D02*
X48450Y-30278D01*
X48450Y-30278D02*
X48492Y-30324D01*
X48492Y-30324D02*
X48524Y-30378D01*
X48524Y-30378D02*
X48543Y-30438D01*
X48543Y-30438D02*
X48550Y-30500D01*
X49550Y-31500D02*
X49543Y-31562D01*
X49543Y-31562D02*
X49524Y-31622D01*
X49524Y-31622D02*
X49492Y-31676D01*
X49492Y-31676D02*
X49450Y-31722D01*
X49450Y-31722D02*
X49400Y-31759D01*
X49400Y-31759D02*
X49342Y-31785D01*
X49342Y-31785D02*
X49281Y-31798D01*
X49281Y-31798D02*
X49219Y-31798D01*
X49219Y-31798D02*
X49158Y-31785D01*
X49158Y-31785D02*
X49100Y-31759D01*
X49100Y-31759D02*
X49050Y-31722D01*
X49050Y-31722D02*
X49008Y-31676D01*
X49008Y-31676D02*
X48976Y-31622D01*
X48976Y-31622D02*
X48957Y-31562D01*
X48957Y-31562D02*
X48950Y-31500D01*
X48950Y-31500D02*
X48957Y-31438D01*
X48957Y-31438D02*
X48976Y-31378D01*
X48976Y-31378D02*
X49008Y-31324D01*
X49008Y-31324D02*
X49050Y-31278D01*
X49050Y-31278D02*
X49100Y-31241D01*
X49100Y-31241D02*
X49158Y-31215D01*
X49158Y-31215D02*
X49219Y-31202D01*
X49219Y-31202D02*
X49281Y-31202D01*
X49281Y-31202D02*
X49342Y-31215D01*
X49342Y-31215D02*
X49400Y-31241D01*
X49400Y-31241D02*
X49450Y-31278D01*
X49450Y-31278D02*
X49492Y-31324D01*
X49492Y-31324D02*
X49524Y-31378D01*
X49524Y-31378D02*
X49543Y-31438D01*
X49543Y-31438D02*
X49550Y-31500D01*
X49550Y-30500D02*
X49543Y-30562D01*
X49543Y-30562D02*
X49524Y-30622D01*
X49524Y-30622D02*
X49492Y-30676D01*
X49492Y-30676D02*
X49450Y-30722D01*
X49450Y-30722D02*
X49400Y-30759D01*
X49400Y-30759D02*
X49342Y-30785D01*
X49342Y-30785D02*
X49281Y-30798D01*
X49281Y-30798D02*
X49219Y-30798D01*
X49219Y-30798D02*
X49158Y-30785D01*
X49158Y-30785D02*
X49100Y-30759D01*
X49100Y-30759D02*
X49050Y-30722D01*
X49050Y-30722D02*
X49008Y-30676D01*
X49008Y-30676D02*
X48976Y-30622D01*
X48976Y-30622D02*
X48957Y-30562D01*
X48957Y-30562D02*
X48950Y-30500D01*
X48950Y-30500D02*
X48957Y-30438D01*
X48957Y-30438D02*
X48976Y-30378D01*
X48976Y-30378D02*
X49008Y-30324D01*
X49008Y-30324D02*
X49050Y-30278D01*
X49050Y-30278D02*
X49100Y-30241D01*
X49100Y-30241D02*
X49158Y-30215D01*
X49158Y-30215D02*
X49219Y-30202D01*
X49219Y-30202D02*
X49281Y-30202D01*
X49281Y-30202D02*
X49342Y-30215D01*
X49342Y-30215D02*
X49400Y-30241D01*
X49400Y-30241D02*
X49450Y-30278D01*
X49450Y-30278D02*
X49492Y-30324D01*
X49492Y-30324D02*
X49524Y-30378D01*
X49524Y-30378D02*
X49543Y-30438D01*
X49543Y-30438D02*
X49550Y-30500D01*
X50550Y-31500D02*
X50543Y-31562D01*
X50543Y-31562D02*
X50524Y-31622D01*
X50524Y-31622D02*
X50492Y-31676D01*
X50492Y-31676D02*
X50450Y-31722D01*
X50450Y-31722D02*
X50400Y-31759D01*
X50400Y-31759D02*
X50342Y-31785D01*
X50342Y-31785D02*
X50281Y-31798D01*
X50281Y-31798D02*
X50219Y-31798D01*
X50219Y-31798D02*
X50158Y-31785D01*
X50158Y-31785D02*
X50100Y-31759D01*
X50100Y-31759D02*
X50050Y-31722D01*
X50050Y-31722D02*
X50008Y-31676D01*
X50008Y-31676D02*
X49976Y-31622D01*
X49976Y-31622D02*
X49957Y-31562D01*
X49957Y-31562D02*
X49950Y-31500D01*
X49950Y-31500D02*
X49957Y-31438D01*
X49957Y-31438D02*
X49976Y-31378D01*
X49976Y-31378D02*
X50008Y-31324D01*
X50008Y-31324D02*
X50050Y-31278D01*
X50050Y-31278D02*
X50100Y-31241D01*
X50100Y-31241D02*
X50158Y-31215D01*
X50158Y-31215D02*
X50219Y-31202D01*
X50219Y-31202D02*
X50281Y-31202D01*
X50281Y-31202D02*
X50342Y-31215D01*
X50342Y-31215D02*
X50400Y-31241D01*
X50400Y-31241D02*
X50450Y-31278D01*
X50450Y-31278D02*
X50492Y-31324D01*
X50492Y-31324D02*
X50524Y-31378D01*
X50524Y-31378D02*
X50543Y-31438D01*
X50543Y-31438D02*
X50550Y-31500D01*
X50550Y-30500D02*
X50543Y-30562D01*
X50543Y-30562D02*
X50524Y-30622D01*
X50524Y-30622D02*
X50492Y-30676D01*
X50492Y-30676D02*
X50450Y-30722D01*
X50450Y-30722D02*
X50400Y-30759D01*
X50400Y-30759D02*
X50342Y-30785D01*
X50342Y-30785D02*
X50281Y-30798D01*
X50281Y-30798D02*
X50219Y-30798D01*
X50219Y-30798D02*
X50158Y-30785D01*
X50158Y-30785D02*
X50100Y-30759D01*
X50100Y-30759D02*
X50050Y-30722D01*
X50050Y-30722D02*
X50008Y-30676D01*
X50008Y-30676D02*
X49976Y-30622D01*
X49976Y-30622D02*
X49957Y-30562D01*
X49957Y-30562D02*
X49950Y-30500D01*
X49950Y-30500D02*
X49957Y-30438D01*
X49957Y-30438D02*
X49976Y-30378D01*
X49976Y-30378D02*
X50008Y-30324D01*
X50008Y-30324D02*
X50050Y-30278D01*
X50050Y-30278D02*
X50100Y-30241D01*
X50100Y-30241D02*
X50158Y-30215D01*
X50158Y-30215D02*
X50219Y-30202D01*
X50219Y-30202D02*
X50281Y-30202D01*
X50281Y-30202D02*
X50342Y-30215D01*
X50342Y-30215D02*
X50400Y-30241D01*
X50400Y-30241D02*
X50450Y-30278D01*
X50450Y-30278D02*
X50492Y-30324D01*
X50492Y-30324D02*
X50524Y-30378D01*
X50524Y-30378D02*
X50543Y-30438D01*
X50543Y-30438D02*
X50550Y-30500D01*
X59750Y-35275D02*
X59750Y-34725D01*
X59750Y-34725D02*
X60100Y-34725D01*
X60100Y-34725D02*
X60100Y-35275D01*
X60100Y-35275D02*
X59750Y-35275D01*
X60500Y-35275D02*
X60500Y-34725D01*
X60500Y-34725D02*
X60850Y-34725D01*
X60850Y-34725D02*
X60850Y-35275D01*
X60850Y-35275D02*
X60500Y-35275D01*
X36300Y-45975D02*
X36300Y-45425D01*
X36300Y-45425D02*
X36650Y-45425D01*
X36650Y-45425D02*
X36650Y-45975D01*
X36650Y-45975D02*
X36300Y-45975D01*
X37050Y-45975D02*
X37050Y-45425D01*
X37050Y-45425D02*
X37400Y-45425D01*
X37400Y-45425D02*
X37400Y-45975D01*
X37400Y-45975D02*
X37050Y-45975D01*
X37400Y-44025D02*
X37400Y-44575D01*
X37400Y-44575D02*
X37050Y-44575D01*
X37050Y-44575D02*
X37050Y-44025D01*
X37050Y-44025D02*
X37400Y-44025D01*
X36650Y-44025D02*
X36650Y-44575D01*
X36650Y-44575D02*
X36300Y-44575D01*
X36300Y-44575D02*
X36300Y-44025D01*
X36300Y-44025D02*
X36650Y-44025D01*
X63725Y-43950D02*
X64275Y-43950D01*
X64275Y-43950D02*
X64275Y-44300D01*
X64275Y-44300D02*
X63725Y-44300D01*
X63725Y-44300D02*
X63725Y-43950D01*
X63725Y-44700D02*
X64275Y-44700D01*
X64275Y-44700D02*
X64275Y-45050D01*
X64275Y-45050D02*
X63725Y-45050D01*
X63725Y-45050D02*
X63725Y-44700D01*
X63850Y-34725D02*
X63850Y-35275D01*
X63850Y-35275D02*
X63500Y-35275D01*
X63500Y-35275D02*
X63500Y-34725D01*
X63500Y-34725D02*
X63850Y-34725D01*
X63100Y-34725D02*
X63100Y-35275D01*
X63100Y-35275D02*
X62750Y-35275D01*
X62750Y-35275D02*
X62750Y-34725D01*
X62750Y-34725D02*
X63100Y-34725D01*
X58050Y-34725D02*
X58050Y-35275D01*
X58050Y-35275D02*
X57700Y-35275D01*
X57700Y-35275D02*
X57700Y-34725D01*
X57700Y-34725D02*
X58050Y-34725D01*
X57300Y-34725D02*
X57300Y-35275D01*
X57300Y-35275D02*
X56950Y-35275D01*
X56950Y-35275D02*
X56950Y-34725D01*
X56950Y-34725D02*
X57300Y-34725D01*
X41050Y-40575D02*
X41050Y-40025D01*
X41050Y-40025D02*
X41400Y-40025D01*
X41400Y-40025D02*
X41400Y-40575D01*
X41400Y-40575D02*
X41050Y-40575D01*
X41800Y-40575D02*
X41800Y-40025D01*
X41800Y-40025D02*
X42150Y-40025D01*
X42150Y-40025D02*
X42150Y-40575D01*
X42150Y-40575D02*
X41800Y-40575D01*
X58225Y-43950D02*
X58775Y-43950D01*
X58775Y-43950D02*
X58775Y-44300D01*
X58775Y-44300D02*
X58225Y-44300D01*
X58225Y-44300D02*
X58225Y-43950D01*
X58225Y-44700D02*
X58775Y-44700D01*
X58775Y-44700D02*
X58775Y-45050D01*
X58775Y-45050D02*
X58225Y-45050D01*
X58225Y-45050D02*
X58225Y-44700D01*
X42175Y-42950D02*
X41625Y-42950D01*
X41625Y-42950D02*
X41625Y-42600D01*
X41625Y-42600D02*
X42175Y-42600D01*
X42175Y-42600D02*
X42175Y-42950D01*
X42175Y-42200D02*
X41625Y-42200D01*
X41625Y-42200D02*
X41625Y-41850D01*
X41625Y-41850D02*
X42175Y-41850D01*
X42175Y-41850D02*
X42175Y-42200D01*
X58225Y-38450D02*
X58775Y-38450D01*
X58775Y-38450D02*
X58775Y-38800D01*
X58775Y-38800D02*
X58225Y-38800D01*
X58225Y-38800D02*
X58225Y-38450D01*
X58225Y-39200D02*
X58775Y-39200D01*
X58775Y-39200D02*
X58775Y-39550D01*
X58775Y-39550D02*
X58225Y-39550D01*
X58225Y-39550D02*
X58225Y-39200D01*
X41550Y-36725D02*
X41550Y-37275D01*
X41550Y-37275D02*
X41200Y-37275D01*
X41200Y-37275D02*
X41200Y-36725D01*
X41200Y-36725D02*
X41550Y-36725D01*
X40800Y-36725D02*
X40800Y-37275D01*
X40800Y-37275D02*
X40450Y-37275D01*
X40450Y-37275D02*
X40450Y-36725D01*
X40450Y-36725D02*
X40800Y-36725D01*
X44725Y-44150D02*
X45275Y-44150D01*
X45275Y-44150D02*
X45275Y-44500D01*
X45275Y-44500D02*
X44725Y-44500D01*
X44725Y-44500D02*
X44725Y-44150D01*
X44725Y-44900D02*
X45275Y-44900D01*
X45275Y-44900D02*
X45275Y-45250D01*
X45275Y-45250D02*
X44725Y-45250D01*
X44725Y-45250D02*
X44725Y-44900D01*
X40175Y-42150D02*
X39625Y-42150D01*
X39625Y-42150D02*
X39625Y-41800D01*
X39625Y-41800D02*
X40175Y-41800D01*
X40175Y-41800D02*
X40175Y-42150D01*
X40175Y-41400D02*
X39625Y-41400D01*
X39625Y-41400D02*
X39625Y-41050D01*
X39625Y-41050D02*
X40175Y-41050D01*
X40175Y-41050D02*
X40175Y-41400D01*
X44475Y-42611D02*
X44475Y-42011D01*
X44475Y-42011D02*
X44573Y-42011D01*
X44573Y-42011D02*
X44573Y-42611D01*
X44573Y-42611D02*
X44475Y-42611D01*
X44672Y-42611D02*
X44672Y-42011D01*
X44672Y-42011D02*
X44770Y-42011D01*
X44770Y-42011D02*
X44770Y-42611D01*
X44770Y-42611D02*
X44672Y-42611D01*
X44869Y-42611D02*
X44869Y-42011D01*
X44869Y-42011D02*
X44967Y-42011D01*
X44967Y-42011D02*
X44967Y-42611D01*
X44967Y-42611D02*
X44869Y-42611D01*
X45066Y-42611D02*
X45066Y-42011D01*
X45066Y-42011D02*
X45164Y-42011D01*
X45164Y-42011D02*
X45164Y-42611D01*
X45164Y-42611D02*
X45066Y-42611D01*
X45263Y-42611D02*
X45263Y-42011D01*
X45263Y-42011D02*
X45361Y-42011D01*
X45361Y-42011D02*
X45361Y-42611D01*
X45361Y-42611D02*
X45263Y-42611D01*
X45459Y-42611D02*
X45459Y-42011D01*
X45459Y-42011D02*
X45557Y-42011D01*
X45557Y-42011D02*
X45557Y-42611D01*
X45557Y-42611D02*
X45459Y-42611D01*
X45656Y-42611D02*
X45656Y-42011D01*
X45656Y-42011D02*
X45754Y-42011D01*
X45754Y-42011D02*
X45754Y-42611D01*
X45754Y-42611D02*
X45656Y-42611D01*
X45853Y-42611D02*
X45853Y-42011D01*
X45853Y-42011D02*
X45951Y-42011D01*
X45951Y-42011D02*
X45951Y-42611D01*
X45951Y-42611D02*
X45853Y-42611D01*
X46050Y-42611D02*
X46050Y-42011D01*
X46050Y-42011D02*
X46148Y-42011D01*
X46148Y-42011D02*
X46148Y-42611D01*
X46148Y-42611D02*
X46050Y-42611D01*
X46247Y-42611D02*
X46247Y-42011D01*
X46247Y-42011D02*
X46345Y-42011D01*
X46345Y-42011D02*
X46345Y-42611D01*
X46345Y-42611D02*
X46247Y-42611D01*
X46444Y-42611D02*
X46444Y-42011D01*
X46444Y-42011D02*
X46542Y-42011D01*
X46542Y-42011D02*
X46542Y-42611D01*
X46542Y-42611D02*
X46444Y-42611D01*
X46640Y-42611D02*
X46640Y-42011D01*
X46640Y-42011D02*
X46738Y-42011D01*
X46738Y-42011D02*
X46738Y-42611D01*
X46738Y-42611D02*
X46640Y-42611D01*
X46837Y-42611D02*
X46837Y-42011D01*
X46837Y-42011D02*
X46935Y-42011D01*
X46935Y-42011D02*
X46935Y-42611D01*
X46935Y-42611D02*
X46837Y-42611D01*
X47034Y-42611D02*
X47034Y-42011D01*
X47034Y-42011D02*
X47132Y-42011D01*
X47132Y-42011D02*
X47132Y-42611D01*
X47132Y-42611D02*
X47034Y-42611D01*
X47231Y-42611D02*
X47231Y-42011D01*
X47231Y-42011D02*
X47329Y-42011D01*
X47329Y-42011D02*
X47329Y-42611D01*
X47329Y-42611D02*
X47231Y-42611D01*
X47428Y-42611D02*
X47428Y-42011D01*
X47428Y-42011D02*
X47526Y-42011D01*
X47526Y-42011D02*
X47526Y-42611D01*
X47526Y-42611D02*
X47428Y-42611D01*
X48075Y-41525D02*
X48075Y-41427D01*
X48075Y-41427D02*
X48675Y-41427D01*
X48675Y-41427D02*
X48675Y-41525D01*
X48675Y-41525D02*
X48075Y-41525D01*
X48075Y-41328D02*
X48075Y-41230D01*
X48075Y-41230D02*
X48675Y-41230D01*
X48675Y-41230D02*
X48675Y-41328D01*
X48675Y-41328D02*
X48075Y-41328D01*
X48075Y-41131D02*
X48075Y-41033D01*
X48075Y-41033D02*
X48675Y-41033D01*
X48675Y-41033D02*
X48675Y-41131D01*
X48675Y-41131D02*
X48075Y-41131D01*
X48075Y-40934D02*
X48075Y-40836D01*
X48075Y-40836D02*
X48675Y-40836D01*
X48675Y-40836D02*
X48675Y-40934D01*
X48675Y-40934D02*
X48075Y-40934D01*
X48075Y-40737D02*
X48075Y-40639D01*
X48075Y-40639D02*
X48675Y-40639D01*
X48675Y-40639D02*
X48675Y-40737D01*
X48675Y-40737D02*
X48075Y-40737D01*
X48075Y-40541D02*
X48075Y-40443D01*
X48075Y-40443D02*
X48675Y-40443D01*
X48675Y-40443D02*
X48675Y-40541D01*
X48675Y-40541D02*
X48075Y-40541D01*
X48075Y-40344D02*
X48075Y-40246D01*
X48075Y-40246D02*
X48675Y-40246D01*
X48675Y-40246D02*
X48675Y-40344D01*
X48675Y-40344D02*
X48075Y-40344D01*
X48075Y-40147D02*
X48075Y-40049D01*
X48075Y-40049D02*
X48675Y-40049D01*
X48675Y-40049D02*
X48675Y-40147D01*
X48675Y-40147D02*
X48075Y-40147D01*
X48075Y-39950D02*
X48075Y-39852D01*
X48075Y-39852D02*
X48675Y-39852D01*
X48675Y-39852D02*
X48675Y-39950D01*
X48675Y-39950D02*
X48075Y-39950D01*
X48075Y-39753D02*
X48075Y-39655D01*
X48075Y-39655D02*
X48675Y-39655D01*
X48675Y-39655D02*
X48675Y-39753D01*
X48675Y-39753D02*
X48075Y-39753D01*
X48075Y-39556D02*
X48075Y-39458D01*
X48075Y-39458D02*
X48675Y-39458D01*
X48675Y-39458D02*
X48675Y-39556D01*
X48675Y-39556D02*
X48075Y-39556D01*
X48075Y-39360D02*
X48075Y-39262D01*
X48075Y-39262D02*
X48675Y-39262D01*
X48675Y-39262D02*
X48675Y-39360D01*
X48675Y-39360D02*
X48075Y-39360D01*
X48075Y-39163D02*
X48075Y-39065D01*
X48075Y-39065D02*
X48675Y-39065D01*
X48675Y-39065D02*
X48675Y-39163D01*
X48675Y-39163D02*
X48075Y-39163D01*
X48075Y-38966D02*
X48075Y-38868D01*
X48075Y-38868D02*
X48675Y-38868D01*
X48675Y-38868D02*
X48675Y-38966D01*
X48675Y-38966D02*
X48075Y-38966D01*
X48075Y-38769D02*
X48075Y-38671D01*
X48075Y-38671D02*
X48675Y-38671D01*
X48675Y-38671D02*
X48675Y-38769D01*
X48675Y-38769D02*
X48075Y-38769D01*
X48075Y-38572D02*
X48075Y-38474D01*
X48075Y-38474D02*
X48675Y-38474D01*
X48675Y-38474D02*
X48675Y-38572D01*
X48675Y-38572D02*
X48075Y-38572D01*
X47428Y-37925D02*
X47428Y-37325D01*
X47428Y-37325D02*
X47526Y-37325D01*
X47526Y-37325D02*
X47526Y-37925D01*
X47526Y-37925D02*
X47428Y-37925D01*
X47231Y-37925D02*
X47231Y-37325D01*
X47231Y-37325D02*
X47329Y-37325D01*
X47329Y-37325D02*
X47329Y-37925D01*
X47329Y-37925D02*
X47231Y-37925D01*
X47034Y-37925D02*
X47034Y-37325D01*
X47034Y-37325D02*
X47132Y-37325D01*
X47132Y-37325D02*
X47132Y-37925D01*
X47132Y-37925D02*
X47034Y-37925D01*
X46837Y-37925D02*
X46837Y-37325D01*
X46837Y-37325D02*
X46935Y-37325D01*
X46935Y-37325D02*
X46935Y-37925D01*
X46935Y-37925D02*
X46837Y-37925D01*
X46640Y-37925D02*
X46640Y-37325D01*
X46640Y-37325D02*
X46738Y-37325D01*
X46738Y-37325D02*
X46738Y-37925D01*
X46738Y-37925D02*
X46640Y-37925D01*
X46444Y-37925D02*
X46444Y-37325D01*
X46444Y-37325D02*
X46542Y-37325D01*
X46542Y-37325D02*
X46542Y-37925D01*
X46542Y-37925D02*
X46444Y-37925D01*
X46247Y-37925D02*
X46247Y-37325D01*
X46247Y-37325D02*
X46345Y-37325D01*
X46345Y-37325D02*
X46345Y-37925D01*
X46345Y-37925D02*
X46247Y-37925D01*
X46050Y-37925D02*
X46050Y-37325D01*
X46050Y-37325D02*
X46148Y-37325D01*
X46148Y-37325D02*
X46148Y-37925D01*
X46148Y-37925D02*
X46050Y-37925D01*
X45853Y-37925D02*
X45853Y-37325D01*
X45853Y-37325D02*
X45951Y-37325D01*
X45951Y-37325D02*
X45951Y-37925D01*
X45951Y-37925D02*
X45853Y-37925D01*
X45656Y-37925D02*
X45656Y-37325D01*
X45656Y-37325D02*
X45754Y-37325D01*
X45754Y-37325D02*
X45754Y-37925D01*
X45754Y-37925D02*
X45656Y-37925D01*
X45459Y-37925D02*
X45459Y-37325D01*
X45459Y-37325D02*
X45557Y-37325D01*
X45557Y-37325D02*
X45557Y-37925D01*
X45557Y-37925D02*
X45459Y-37925D01*
X45263Y-37925D02*
X45263Y-37325D01*
X45263Y-37325D02*
X45361Y-37325D01*
X45361Y-37325D02*
X45361Y-37925D01*
X45361Y-37925D02*
X45263Y-37925D01*
X45066Y-37925D02*
X45066Y-37325D01*
X45066Y-37325D02*
X45164Y-37325D01*
X45164Y-37325D02*
X45164Y-37925D01*
X45164Y-37925D02*
X45066Y-37925D01*
X44869Y-37925D02*
X44869Y-37325D01*
X44869Y-37325D02*
X44967Y-37325D01*
X44967Y-37325D02*
X44967Y-37925D01*
X44967Y-37925D02*
X44869Y-37925D01*
X44672Y-37925D02*
X44672Y-37325D01*
X44672Y-37325D02*
X44770Y-37325D01*
X44770Y-37325D02*
X44770Y-37925D01*
X44770Y-37925D02*
X44672Y-37925D01*
X44475Y-37925D02*
X44475Y-37325D01*
X44475Y-37325D02*
X44573Y-37325D01*
X44573Y-37325D02*
X44573Y-37925D01*
X44573Y-37925D02*
X44475Y-37925D01*
X43389Y-38572D02*
X43389Y-38474D01*
X43389Y-38474D02*
X43989Y-38474D01*
X43989Y-38474D02*
X43989Y-38572D01*
X43989Y-38572D02*
X43389Y-38572D01*
X43389Y-38769D02*
X43389Y-38671D01*
X43389Y-38671D02*
X43989Y-38671D01*
X43989Y-38671D02*
X43989Y-38769D01*
X43989Y-38769D02*
X43389Y-38769D01*
X43389Y-39163D02*
X43389Y-39065D01*
X43389Y-39065D02*
X43989Y-39065D01*
X43989Y-39065D02*
X43989Y-39163D01*
X43989Y-39163D02*
X43389Y-39163D01*
X43382Y-38966D02*
X43382Y-38868D01*
X43382Y-38868D02*
X43982Y-38868D01*
X43982Y-38868D02*
X43982Y-38966D01*
X43982Y-38966D02*
X43382Y-38966D01*
X43389Y-39360D02*
X43389Y-39262D01*
X43389Y-39262D02*
X43989Y-39262D01*
X43989Y-39262D02*
X43989Y-39360D01*
X43989Y-39360D02*
X43389Y-39360D01*
X43389Y-39556D02*
X43389Y-39458D01*
X43389Y-39458D02*
X43989Y-39458D01*
X43989Y-39458D02*
X43989Y-39556D01*
X43989Y-39556D02*
X43389Y-39556D01*
X43389Y-39753D02*
X43389Y-39655D01*
X43389Y-39655D02*
X43989Y-39655D01*
X43989Y-39655D02*
X43989Y-39753D01*
X43989Y-39753D02*
X43389Y-39753D01*
X43389Y-39950D02*
X43389Y-39852D01*
X43389Y-39852D02*
X43989Y-39852D01*
X43989Y-39852D02*
X43989Y-39950D01*
X43989Y-39950D02*
X43389Y-39950D01*
X43389Y-40147D02*
X43389Y-40049D01*
X43389Y-40049D02*
X43989Y-40049D01*
X43989Y-40049D02*
X43989Y-40147D01*
X43989Y-40147D02*
X43389Y-40147D01*
X43389Y-40344D02*
X43389Y-40246D01*
X43389Y-40246D02*
X43989Y-40246D01*
X43989Y-40246D02*
X43989Y-40344D01*
X43989Y-40344D02*
X43389Y-40344D01*
X43389Y-40538D02*
X43389Y-40440D01*
X43389Y-40440D02*
X43989Y-40440D01*
X43989Y-40440D02*
X43989Y-40538D01*
X43989Y-40538D02*
X43389Y-40538D01*
X43389Y-40735D02*
X43389Y-40637D01*
X43389Y-40637D02*
X43989Y-40637D01*
X43989Y-40637D02*
X43989Y-40735D01*
X43989Y-40735D02*
X43389Y-40735D01*
X43389Y-40932D02*
X43389Y-40834D01*
X43389Y-40834D02*
X43989Y-40834D01*
X43989Y-40834D02*
X43989Y-40932D01*
X43989Y-40932D02*
X43389Y-40932D01*
X43389Y-41129D02*
X43389Y-41031D01*
X43389Y-41031D02*
X43989Y-41031D01*
X43989Y-41031D02*
X43989Y-41129D01*
X43989Y-41129D02*
X43389Y-41129D01*
X43389Y-41325D02*
X43389Y-41227D01*
X43389Y-41227D02*
X43989Y-41227D01*
X43989Y-41227D02*
X43989Y-41325D01*
X43989Y-41325D02*
X43389Y-41325D01*
X43389Y-41522D02*
X43389Y-41424D01*
X43389Y-41424D02*
X43989Y-41424D01*
X43989Y-41424D02*
X43989Y-41522D01*
X43989Y-41522D02*
X43389Y-41522D01*
X29134Y-41162D02*
X30000Y-41162D01*
X30000Y-41162D02*
X30000Y-42146D01*
X30000Y-42146D02*
X29134Y-42146D01*
X29134Y-42146D02*
X29134Y-41162D01*
X29134Y-37854D02*
X30000Y-37854D01*
X30000Y-37854D02*
X30000Y-38838D01*
X30000Y-38838D02*
X29134Y-38838D01*
X29134Y-38838D02*
X29134Y-37854D01*
X31221Y-41162D02*
X32087Y-41162D01*
X32087Y-41162D02*
X32087Y-42146D01*
X32087Y-42146D02*
X31221Y-42146D01*
X31221Y-42146D02*
X31221Y-41162D01*
X31221Y-37854D02*
X32087Y-37854D01*
X32087Y-37854D02*
X32087Y-38838D01*
X32087Y-38838D02*
X31221Y-38838D01*
X31221Y-38838D02*
X31221Y-37854D01*
X31359Y-39272D02*
X32145Y-39272D01*
X32145Y-39272D02*
X32145Y-39468D01*
X32145Y-39468D02*
X31359Y-39468D01*
X31359Y-39468D02*
X31359Y-39272D01*
X31359Y-39587D02*
X32145Y-39587D01*
X32145Y-39587D02*
X32145Y-39783D01*
X32145Y-39783D02*
X31359Y-39783D01*
X31359Y-39783D02*
X31359Y-39587D01*
X31359Y-39902D02*
X32145Y-39902D01*
X32145Y-39902D02*
X32145Y-40098D01*
X32145Y-40098D02*
X31359Y-40098D01*
X31359Y-40098D02*
X31359Y-39902D01*
X31359Y-40217D02*
X32145Y-40217D01*
X32145Y-40217D02*
X32145Y-40413D01*
X32145Y-40413D02*
X31359Y-40413D01*
X31359Y-40413D02*
X31359Y-40217D01*
X31359Y-40532D02*
X32145Y-40532D01*
X32145Y-40532D02*
X32145Y-40728D01*
X32145Y-40728D02*
X31359Y-40728D01*
X31359Y-40728D02*
X31359Y-40532D01*
X31116Y-39311D02*
X31110Y-39362D01*
X31110Y-39362D02*
X31094Y-39412D01*
X31094Y-39412D02*
X31068Y-39457D01*
X31068Y-39457D02*
X31033Y-39496D01*
X31033Y-39496D02*
X30991Y-39527D01*
X30991Y-39527D02*
X30943Y-39548D01*
X30943Y-39548D02*
X30892Y-39559D01*
X30892Y-39559D02*
X30840Y-39559D01*
X30840Y-39559D02*
X30789Y-39548D01*
X30789Y-39548D02*
X30741Y-39527D01*
X30741Y-39527D02*
X30699Y-39496D01*
X30699Y-39496D02*
X30664Y-39457D01*
X30664Y-39457D02*
X30638Y-39412D01*
X30638Y-39412D02*
X30622Y-39362D01*
X30622Y-39362D02*
X30616Y-39311D01*
X30616Y-39311D02*
X30622Y-39260D01*
X30622Y-39260D02*
X30638Y-39210D01*
X30638Y-39210D02*
X30664Y-39165D01*
X30664Y-39165D02*
X30699Y-39126D01*
X30699Y-39126D02*
X30741Y-39095D01*
X30741Y-39095D02*
X30789Y-39074D01*
X30789Y-39074D02*
X30840Y-39063D01*
X30840Y-39063D02*
X30892Y-39063D01*
X30892Y-39063D02*
X30943Y-39074D01*
X30943Y-39074D02*
X30991Y-39095D01*
X30991Y-39095D02*
X31033Y-39126D01*
X31033Y-39126D02*
X31068Y-39165D01*
X31068Y-39165D02*
X31094Y-39210D01*
X31094Y-39210D02*
X31110Y-39260D01*
X31110Y-39260D02*
X31116Y-39311D01*
X31116Y-40689D02*
X31110Y-40740D01*
X31110Y-40740D02*
X31094Y-40790D01*
X31094Y-40790D02*
X31068Y-40835D01*
X31068Y-40835D02*
X31033Y-40874D01*
X31033Y-40874D02*
X30991Y-40905D01*
X30991Y-40905D02*
X30943Y-40926D01*
X30943Y-40926D02*
X30892Y-40937D01*
X30892Y-40937D02*
X30840Y-40937D01*
X30840Y-40937D02*
X30789Y-40926D01*
X30789Y-40926D02*
X30741Y-40905D01*
X30741Y-40905D02*
X30699Y-40874D01*
X30699Y-40874D02*
X30664Y-40835D01*
X30664Y-40835D02*
X30638Y-40790D01*
X30638Y-40790D02*
X30622Y-40740D01*
X30622Y-40740D02*
X30616Y-40689D01*
X30616Y-40689D02*
X30622Y-40638D01*
X30622Y-40638D02*
X30638Y-40588D01*
X30638Y-40588D02*
X30664Y-40543D01*
X30664Y-40543D02*
X30699Y-40504D01*
X30699Y-40504D02*
X30741Y-40473D01*
X30741Y-40473D02*
X30789Y-40452D01*
X30789Y-40452D02*
X30840Y-40441D01*
X30840Y-40441D02*
X30892Y-40441D01*
X30892Y-40441D02*
X30943Y-40452D01*
X30943Y-40452D02*
X30991Y-40473D01*
X30991Y-40473D02*
X31033Y-40504D01*
X31033Y-40504D02*
X31068Y-40543D01*
X31068Y-40543D02*
X31094Y-40588D01*
X31094Y-40588D02*
X31110Y-40638D01*
X31110Y-40638D02*
X31116Y-40689D01*
X37275Y-42050D02*
X36725Y-42050D01*
X36725Y-42050D02*
X36725Y-41700D01*
X36725Y-41700D02*
X37275Y-41700D01*
X37275Y-41700D02*
X37275Y-42050D01*
X37275Y-41300D02*
X36725Y-41300D01*
X36725Y-41300D02*
X36725Y-40950D01*
X36725Y-40950D02*
X37275Y-40950D01*
X37275Y-40950D02*
X37275Y-41300D01*
X37200Y-37525D02*
X37200Y-36975D01*
X37200Y-36975D02*
X37550Y-36975D01*
X37550Y-36975D02*
X37550Y-37525D01*
X37550Y-37525D02*
X37200Y-37525D01*
X37950Y-37525D02*
X37950Y-36975D01*
X37950Y-36975D02*
X38300Y-36975D01*
X38300Y-36975D02*
X38300Y-37525D01*
X38300Y-37525D02*
X37950Y-37525D01*
X40530Y-29850D02*
X40530Y-29050D01*
X40530Y-29050D02*
X41970Y-29050D01*
X41970Y-29050D02*
X41970Y-29850D01*
X41970Y-29850D02*
X40530Y-29850D01*
X41050Y-32450D02*
X41050Y-31650D01*
X41050Y-31650D02*
X41450Y-31650D01*
X41450Y-31650D02*
X41450Y-32450D01*
X41450Y-32450D02*
X41050Y-32450D01*
X41950Y-32450D02*
X41950Y-31650D01*
X41950Y-31650D02*
X42350Y-31650D01*
X42350Y-31650D02*
X42350Y-32450D01*
X42350Y-32450D02*
X41950Y-32450D01*
X40150Y-32450D02*
X40150Y-31650D01*
X40150Y-31650D02*
X40550Y-31650D01*
X40550Y-31650D02*
X40550Y-32450D01*
X40550Y-32450D02*
X40150Y-32450D01*
X80984Y-49547D02*
X80962Y-49751D01*
X80962Y-49751D02*
X80898Y-49947D01*
X80898Y-49947D02*
X80796Y-50125D01*
X80796Y-50125D02*
X80658Y-50278D01*
X80658Y-50278D02*
X80492Y-50399D01*
X80492Y-50399D02*
X80304Y-50482D01*
X80304Y-50482D02*
X80102Y-50525D01*
X80102Y-50525D02*
X79898Y-50525D01*
X79898Y-50525D02*
X79696Y-50482D01*
X79696Y-50482D02*
X79508Y-50399D01*
X79508Y-50399D02*
X79342Y-50278D01*
X79342Y-50278D02*
X79204Y-50125D01*
X79204Y-50125D02*
X79102Y-49947D01*
X79102Y-49947D02*
X79038Y-49751D01*
X79038Y-49751D02*
X79016Y-49547D01*
X79016Y-49547D02*
X79038Y-49343D01*
X79038Y-49343D02*
X79102Y-49147D01*
X79102Y-49147D02*
X79204Y-48969D01*
X79204Y-48969D02*
X79342Y-48816D01*
X79342Y-48816D02*
X79508Y-48695D01*
X79508Y-48695D02*
X79696Y-48612D01*
X79696Y-48612D02*
X79898Y-48569D01*
X79898Y-48569D02*
X80102Y-48569D01*
X80102Y-48569D02*
X80304Y-48612D01*
X80304Y-48612D02*
X80492Y-48695D01*
X80492Y-48695D02*
X80658Y-48816D01*
X80658Y-48816D02*
X80796Y-48969D01*
X80796Y-48969D02*
X80898Y-49147D01*
X80898Y-49147D02*
X80962Y-49343D01*
X80962Y-49343D02*
X80984Y-49547D01*
X80984Y-30453D02*
X80962Y-30657D01*
X80962Y-30657D02*
X80898Y-30853D01*
X80898Y-30853D02*
X80796Y-31031D01*
X80796Y-31031D02*
X80658Y-31184D01*
X80658Y-31184D02*
X80492Y-31305D01*
X80492Y-31305D02*
X80304Y-31388D01*
X80304Y-31388D02*
X80102Y-31431D01*
X80102Y-31431D02*
X79898Y-31431D01*
X79898Y-31431D02*
X79696Y-31388D01*
X79696Y-31388D02*
X79508Y-31305D01*
X79508Y-31305D02*
X79342Y-31184D01*
X79342Y-31184D02*
X79204Y-31031D01*
X79204Y-31031D02*
X79102Y-30853D01*
X79102Y-30853D02*
X79038Y-30657D01*
X79038Y-30657D02*
X79016Y-30453D01*
X79016Y-30453D02*
X79038Y-30249D01*
X79038Y-30249D02*
X79102Y-30053D01*
X79102Y-30053D02*
X79204Y-29875D01*
X79204Y-29875D02*
X79342Y-29722D01*
X79342Y-29722D02*
X79508Y-29601D01*
X79508Y-29601D02*
X79696Y-29518D01*
X79696Y-29518D02*
X79898Y-29475D01*
X79898Y-29475D02*
X80102Y-29475D01*
X80102Y-29475D02*
X80304Y-29518D01*
X80304Y-29518D02*
X80492Y-29601D01*
X80492Y-29601D02*
X80658Y-29722D01*
X80658Y-29722D02*
X80796Y-29875D01*
X80796Y-29875D02*
X80898Y-30053D01*
X80898Y-30053D02*
X80962Y-30249D01*
X80962Y-30249D02*
X80984Y-30453D01*
X30750Y-27500D02*
X30733Y-27655D01*
X30733Y-27655D02*
X30685Y-27805D01*
X30685Y-27805D02*
X30606Y-27940D01*
X30606Y-27940D02*
X30501Y-28057D01*
X30501Y-28057D02*
X30375Y-28149D01*
X30375Y-28149D02*
X30231Y-28213D01*
X30231Y-28213D02*
X30078Y-28245D01*
X30078Y-28245D02*
X29922Y-28245D01*
X29922Y-28245D02*
X29769Y-28213D01*
X29769Y-28213D02*
X29625Y-28149D01*
X29625Y-28149D02*
X29499Y-28057D01*
X29499Y-28057D02*
X29394Y-27940D01*
X29394Y-27940D02*
X29315Y-27805D01*
X29315Y-27805D02*
X29267Y-27655D01*
X29267Y-27655D02*
X29250Y-27500D01*
X29250Y-27500D02*
X29267Y-27345D01*
X29267Y-27345D02*
X29315Y-27195D01*
X29315Y-27195D02*
X29394Y-27060D01*
X29394Y-27060D02*
X29499Y-26943D01*
X29499Y-26943D02*
X29625Y-26851D01*
X29625Y-26851D02*
X29769Y-26787D01*
X29769Y-26787D02*
X29922Y-26755D01*
X29922Y-26755D02*
X30078Y-26755D01*
X30078Y-26755D02*
X30231Y-26787D01*
X30231Y-26787D02*
X30375Y-26851D01*
X30375Y-26851D02*
X30501Y-26943D01*
X30501Y-26943D02*
X30606Y-27060D01*
X30606Y-27060D02*
X30685Y-27195D01*
X30685Y-27195D02*
X30733Y-27345D01*
X30733Y-27345D02*
X30750Y-27500D01*
X30750Y-52500D02*
X30733Y-52655D01*
X30733Y-52655D02*
X30685Y-52805D01*
X30685Y-52805D02*
X30606Y-52940D01*
X30606Y-52940D02*
X30501Y-53057D01*
X30501Y-53057D02*
X30375Y-53149D01*
X30375Y-53149D02*
X30231Y-53213D01*
X30231Y-53213D02*
X30078Y-53245D01*
X30078Y-53245D02*
X29922Y-53245D01*
X29922Y-53245D02*
X29769Y-53213D01*
X29769Y-53213D02*
X29625Y-53149D01*
X29625Y-53149D02*
X29499Y-53057D01*
X29499Y-53057D02*
X29394Y-52940D01*
X29394Y-52940D02*
X29315Y-52805D01*
X29315Y-52805D02*
X29267Y-52655D01*
X29267Y-52655D02*
X29250Y-52500D01*
X29250Y-52500D02*
X29267Y-52345D01*
X29267Y-52345D02*
X29315Y-52195D01*
X29315Y-52195D02*
X29394Y-52060D01*
X29394Y-52060D02*
X29499Y-51943D01*
X29499Y-51943D02*
X29625Y-51851D01*
X29625Y-51851D02*
X29769Y-51787D01*
X29769Y-51787D02*
X29922Y-51755D01*
X29922Y-51755D02*
X30078Y-51755D01*
X30078Y-51755D02*
X30231Y-51787D01*
X30231Y-51787D02*
X30375Y-51851D01*
X30375Y-51851D02*
X30501Y-51943D01*
X30501Y-51943D02*
X30606Y-52060D01*
X30606Y-52060D02*
X30685Y-52195D01*
X30685Y-52195D02*
X30733Y-52345D01*
X30733Y-52345D02*
X30750Y-52500D01*
X91250Y-27500D02*
X91233Y-27655D01*
X91233Y-27655D02*
X91185Y-27805D01*
X91185Y-27805D02*
X91106Y-27940D01*
X91106Y-27940D02*
X91001Y-28057D01*
X91001Y-28057D02*
X90875Y-28149D01*
X90875Y-28149D02*
X90731Y-28213D01*
X90731Y-28213D02*
X90578Y-28245D01*
X90578Y-28245D02*
X90422Y-28245D01*
X90422Y-28245D02*
X90269Y-28213D01*
X90269Y-28213D02*
X90125Y-28149D01*
X90125Y-28149D02*
X89999Y-28057D01*
X89999Y-28057D02*
X89894Y-27940D01*
X89894Y-27940D02*
X89815Y-27805D01*
X89815Y-27805D02*
X89767Y-27655D01*
X89767Y-27655D02*
X89750Y-27500D01*
X89750Y-27500D02*
X89767Y-27345D01*
X89767Y-27345D02*
X89815Y-27195D01*
X89815Y-27195D02*
X89894Y-27060D01*
X89894Y-27060D02*
X89999Y-26943D01*
X89999Y-26943D02*
X90125Y-26851D01*
X90125Y-26851D02*
X90269Y-26787D01*
X90269Y-26787D02*
X90422Y-26755D01*
X90422Y-26755D02*
X90578Y-26755D01*
X90578Y-26755D02*
X90731Y-26787D01*
X90731Y-26787D02*
X90875Y-26851D01*
X90875Y-26851D02*
X91001Y-26943D01*
X91001Y-26943D02*
X91106Y-27060D01*
X91106Y-27060D02*
X91185Y-27195D01*
X91185Y-27195D02*
X91233Y-27345D01*
X91233Y-27345D02*
X91250Y-27500D01*
X91250Y-52500D02*
X91233Y-52655D01*
X91233Y-52655D02*
X91185Y-52805D01*
X91185Y-52805D02*
X91106Y-52940D01*
X91106Y-52940D02*
X91001Y-53057D01*
X91001Y-53057D02*
X90875Y-53149D01*
X90875Y-53149D02*
X90731Y-53213D01*
X90731Y-53213D02*
X90578Y-53245D01*
X90578Y-53245D02*
X90422Y-53245D01*
X90422Y-53245D02*
X90269Y-53213D01*
X90269Y-53213D02*
X90125Y-53149D01*
X90125Y-53149D02*
X89999Y-53057D01*
X89999Y-53057D02*
X89894Y-52940D01*
X89894Y-52940D02*
X89815Y-52805D01*
X89815Y-52805D02*
X89767Y-52655D01*
X89767Y-52655D02*
X89750Y-52500D01*
X89750Y-52500D02*
X89767Y-52345D01*
X89767Y-52345D02*
X89815Y-52195D01*
X89815Y-52195D02*
X89894Y-52060D01*
X89894Y-52060D02*
X89999Y-51943D01*
X89999Y-51943D02*
X90125Y-51851D01*
X90125Y-51851D02*
X90269Y-51787D01*
X90269Y-51787D02*
X90422Y-51755D01*
X90422Y-51755D02*
X90578Y-51755D01*
X90578Y-51755D02*
X90731Y-51787D01*
X90731Y-51787D02*
X90875Y-51851D01*
X90875Y-51851D02*
X91001Y-51943D01*
X91001Y-51943D02*
X91106Y-52060D01*
X91106Y-52060D02*
X91185Y-52195D01*
X91185Y-52195D02*
X91233Y-52345D01*
X91233Y-52345D02*
X91250Y-52500D01*
X69750Y-27500D02*
X69733Y-27655D01*
X69733Y-27655D02*
X69685Y-27805D01*
X69685Y-27805D02*
X69606Y-27940D01*
X69606Y-27940D02*
X69501Y-28057D01*
X69501Y-28057D02*
X69375Y-28149D01*
X69375Y-28149D02*
X69231Y-28213D01*
X69231Y-28213D02*
X69078Y-28245D01*
X69078Y-28245D02*
X68922Y-28245D01*
X68922Y-28245D02*
X68769Y-28213D01*
X68769Y-28213D02*
X68625Y-28149D01*
X68625Y-28149D02*
X68499Y-28057D01*
X68499Y-28057D02*
X68394Y-27940D01*
X68394Y-27940D02*
X68315Y-27805D01*
X68315Y-27805D02*
X68267Y-27655D01*
X68267Y-27655D02*
X68250Y-27500D01*
X68250Y-27500D02*
X68267Y-27345D01*
X68267Y-27345D02*
X68315Y-27195D01*
X68315Y-27195D02*
X68394Y-27060D01*
X68394Y-27060D02*
X68499Y-26943D01*
X68499Y-26943D02*
X68625Y-26851D01*
X68625Y-26851D02*
X68769Y-26787D01*
X68769Y-26787D02*
X68922Y-26755D01*
X68922Y-26755D02*
X69078Y-26755D01*
X69078Y-26755D02*
X69231Y-26787D01*
X69231Y-26787D02*
X69375Y-26851D01*
X69375Y-26851D02*
X69501Y-26943D01*
X69501Y-26943D02*
X69606Y-27060D01*
X69606Y-27060D02*
X69685Y-27195D01*
X69685Y-27195D02*
X69733Y-27345D01*
X69733Y-27345D02*
X69750Y-27500D01*
X69750Y-52500D02*
X69733Y-52655D01*
X69733Y-52655D02*
X69685Y-52805D01*
X69685Y-52805D02*
X69606Y-52940D01*
X69606Y-52940D02*
X69501Y-53057D01*
X69501Y-53057D02*
X69375Y-53149D01*
X69375Y-53149D02*
X69231Y-53213D01*
X69231Y-53213D02*
X69078Y-53245D01*
X69078Y-53245D02*
X68922Y-53245D01*
X68922Y-53245D02*
X68769Y-53213D01*
X68769Y-53213D02*
X68625Y-53149D01*
X68625Y-53149D02*
X68499Y-53057D01*
X68499Y-53057D02*
X68394Y-52940D01*
X68394Y-52940D02*
X68315Y-52805D01*
X68315Y-52805D02*
X68267Y-52655D01*
X68267Y-52655D02*
X68250Y-52500D01*
X68250Y-52500D02*
X68267Y-52345D01*
X68267Y-52345D02*
X68315Y-52195D01*
X68315Y-52195D02*
X68394Y-52060D01*
X68394Y-52060D02*
X68499Y-51943D01*
X68499Y-51943D02*
X68625Y-51851D01*
X68625Y-51851D02*
X68769Y-51787D01*
X68769Y-51787D02*
X68922Y-51755D01*
X68922Y-51755D02*
X69078Y-51755D01*
X69078Y-51755D02*
X69231Y-51787D01*
X69231Y-51787D02*
X69375Y-51851D01*
X69375Y-51851D02*
X69501Y-51943D01*
X69501Y-51943D02*
X69606Y-52060D01*
X69606Y-52060D02*
X69685Y-52195D01*
X69685Y-52195D02*
X69733Y-52345D01*
X69733Y-52345D02*
X69750Y-52500D01*
X31725Y-36025D02*
X31725Y-35475D01*
X31725Y-35475D02*
X32275Y-35475D01*
X32275Y-35475D02*
X32275Y-36025D01*
X32275Y-36025D02*
X31725Y-36025D01*
X33275Y-35750D02*
X33268Y-35807D01*
X33268Y-35807D02*
X33251Y-35861D01*
X33251Y-35861D02*
X33222Y-35911D01*
X33222Y-35911D02*
X33184Y-35954D01*
X33184Y-35954D02*
X33137Y-35988D01*
X33137Y-35988D02*
X33084Y-36011D01*
X33084Y-36011D02*
X33028Y-36023D01*
X33028Y-36023D02*
X32972Y-36023D01*
X32972Y-36023D02*
X32916Y-36011D01*
X32916Y-36011D02*
X32863Y-35988D01*
X32863Y-35988D02*
X32816Y-35954D01*
X32816Y-35954D02*
X32778Y-35911D01*
X32778Y-35911D02*
X32749Y-35861D01*
X32749Y-35861D02*
X32732Y-35807D01*
X32732Y-35807D02*
X32725Y-35750D01*
X32725Y-35750D02*
X32732Y-35693D01*
X32732Y-35693D02*
X32749Y-35639D01*
X32749Y-35639D02*
X32778Y-35589D01*
X32778Y-35589D02*
X32816Y-35546D01*
X32816Y-35546D02*
X32863Y-35512D01*
X32863Y-35512D02*
X32916Y-35489D01*
X32916Y-35489D02*
X32972Y-35477D01*
X32972Y-35477D02*
X33028Y-35477D01*
X33028Y-35477D02*
X33084Y-35489D01*
X33084Y-35489D02*
X33137Y-35512D01*
X33137Y-35512D02*
X33184Y-35546D01*
X33184Y-35546D02*
X33222Y-35589D01*
X33222Y-35589D02*
X33251Y-35639D01*
X33251Y-35639D02*
X33268Y-35693D01*
X33268Y-35693D02*
X33275Y-35750D01*
X34275Y-35750D02*
X34268Y-35807D01*
X34268Y-35807D02*
X34251Y-35861D01*
X34251Y-35861D02*
X34222Y-35911D01*
X34222Y-35911D02*
X34184Y-35954D01*
X34184Y-35954D02*
X34137Y-35988D01*
X34137Y-35988D02*
X34084Y-36011D01*
X34084Y-36011D02*
X34028Y-36023D01*
X34028Y-36023D02*
X33972Y-36023D01*
X33972Y-36023D02*
X33916Y-36011D01*
X33916Y-36011D02*
X33863Y-35988D01*
X33863Y-35988D02*
X33816Y-35954D01*
X33816Y-35954D02*
X33778Y-35911D01*
X33778Y-35911D02*
X33749Y-35861D01*
X33749Y-35861D02*
X33732Y-35807D01*
X33732Y-35807D02*
X33725Y-35750D01*
X33725Y-35750D02*
X33732Y-35693D01*
X33732Y-35693D02*
X33749Y-35639D01*
X33749Y-35639D02*
X33778Y-35589D01*
X33778Y-35589D02*
X33816Y-35546D01*
X33816Y-35546D02*
X33863Y-35512D01*
X33863Y-35512D02*
X33916Y-35489D01*
X33916Y-35489D02*
X33972Y-35477D01*
X33972Y-35477D02*
X34028Y-35477D01*
X34028Y-35477D02*
X34084Y-35489D01*
X34084Y-35489D02*
X34137Y-35512D01*
X34137Y-35512D02*
X34184Y-35546D01*
X34184Y-35546D02*
X34222Y-35589D01*
X34222Y-35589D02*
X34251Y-35639D01*
X34251Y-35639D02*
X34268Y-35693D01*
X34268Y-35693D02*
X34275Y-35750D01*
X35275Y-35750D02*
X35268Y-35807D01*
X35268Y-35807D02*
X35251Y-35861D01*
X35251Y-35861D02*
X35222Y-35911D01*
X35222Y-35911D02*
X35184Y-35954D01*
X35184Y-35954D02*
X35137Y-35988D01*
X35137Y-35988D02*
X35084Y-36011D01*
X35084Y-36011D02*
X35028Y-36023D01*
X35028Y-36023D02*
X34972Y-36023D01*
X34972Y-36023D02*
X34916Y-36011D01*
X34916Y-36011D02*
X34863Y-35988D01*
X34863Y-35988D02*
X34816Y-35954D01*
X34816Y-35954D02*
X34778Y-35911D01*
X34778Y-35911D02*
X34749Y-35861D01*
X34749Y-35861D02*
X34732Y-35807D01*
X34732Y-35807D02*
X34725Y-35750D01*
X34725Y-35750D02*
X34732Y-35693D01*
X34732Y-35693D02*
X34749Y-35639D01*
X34749Y-35639D02*
X34778Y-35589D01*
X34778Y-35589D02*
X34816Y-35546D01*
X34816Y-35546D02*
X34863Y-35512D01*
X34863Y-35512D02*
X34916Y-35489D01*
X34916Y-35489D02*
X34972Y-35477D01*
X34972Y-35477D02*
X35028Y-35477D01*
X35028Y-35477D02*
X35084Y-35489D01*
X35084Y-35489D02*
X35137Y-35512D01*
X35137Y-35512D02*
X35184Y-35546D01*
X35184Y-35546D02*
X35222Y-35589D01*
X35222Y-35589D02*
X35251Y-35639D01*
X35251Y-35639D02*
X35268Y-35693D01*
X35268Y-35693D02*
X35275Y-35750D01*
X36275Y-35750D02*
X36268Y-35807D01*
X36268Y-35807D02*
X36251Y-35861D01*
X36251Y-35861D02*
X36222Y-35911D01*
X36222Y-35911D02*
X36184Y-35954D01*
X36184Y-35954D02*
X36137Y-35988D01*
X36137Y-35988D02*
X36084Y-36011D01*
X36084Y-36011D02*
X36028Y-36023D01*
X36028Y-36023D02*
X35972Y-36023D01*
X35972Y-36023D02*
X35916Y-36011D01*
X35916Y-36011D02*
X35863Y-35988D01*
X35863Y-35988D02*
X35816Y-35954D01*
X35816Y-35954D02*
X35778Y-35911D01*
X35778Y-35911D02*
X35749Y-35861D01*
X35749Y-35861D02*
X35732Y-35807D01*
X35732Y-35807D02*
X35725Y-35750D01*
X35725Y-35750D02*
X35732Y-35693D01*
X35732Y-35693D02*
X35749Y-35639D01*
X35749Y-35639D02*
X35778Y-35589D01*
X35778Y-35589D02*
X35816Y-35546D01*
X35816Y-35546D02*
X35863Y-35512D01*
X35863Y-35512D02*
X35916Y-35489D01*
X35916Y-35489D02*
X35972Y-35477D01*
X35972Y-35477D02*
X36028Y-35477D01*
X36028Y-35477D02*
X36084Y-35489D01*
X36084Y-35489D02*
X36137Y-35512D01*
X36137Y-35512D02*
X36184Y-35546D01*
X36184Y-35546D02*
X36222Y-35589D01*
X36222Y-35589D02*
X36251Y-35639D01*
X36251Y-35639D02*
X36268Y-35693D01*
X36268Y-35693D02*
X36275Y-35750D01*
X37275Y-35750D02*
X37268Y-35807D01*
X37268Y-35807D02*
X37251Y-35861D01*
X37251Y-35861D02*
X37222Y-35911D01*
X37222Y-35911D02*
X37184Y-35954D01*
X37184Y-35954D02*
X37137Y-35988D01*
X37137Y-35988D02*
X37084Y-36011D01*
X37084Y-36011D02*
X37028Y-36023D01*
X37028Y-36023D02*
X36972Y-36023D01*
X36972Y-36023D02*
X36916Y-36011D01*
X36916Y-36011D02*
X36863Y-35988D01*
X36863Y-35988D02*
X36816Y-35954D01*
X36816Y-35954D02*
X36778Y-35911D01*
X36778Y-35911D02*
X36749Y-35861D01*
X36749Y-35861D02*
X36732Y-35807D01*
X36732Y-35807D02*
X36725Y-35750D01*
X36725Y-35750D02*
X36732Y-35693D01*
X36732Y-35693D02*
X36749Y-35639D01*
X36749Y-35639D02*
X36778Y-35589D01*
X36778Y-35589D02*
X36816Y-35546D01*
X36816Y-35546D02*
X36863Y-35512D01*
X36863Y-35512D02*
X36916Y-35489D01*
X36916Y-35489D02*
X36972Y-35477D01*
X36972Y-35477D02*
X37028Y-35477D01*
X37028Y-35477D02*
X37084Y-35489D01*
X37084Y-35489D02*
X37137Y-35512D01*
X37137Y-35512D02*
X37184Y-35546D01*
X37184Y-35546D02*
X37222Y-35589D01*
X37222Y-35589D02*
X37251Y-35639D01*
X37251Y-35639D02*
X37268Y-35693D01*
X37268Y-35693D02*
X37275Y-35750D01*
X38275Y-35750D02*
X38268Y-35807D01*
X38268Y-35807D02*
X38251Y-35861D01*
X38251Y-35861D02*
X38222Y-35911D01*
X38222Y-35911D02*
X38184Y-35954D01*
X38184Y-35954D02*
X38137Y-35988D01*
X38137Y-35988D02*
X38084Y-36011D01*
X38084Y-36011D02*
X38028Y-36023D01*
X38028Y-36023D02*
X37972Y-36023D01*
X37972Y-36023D02*
X37916Y-36011D01*
X37916Y-36011D02*
X37863Y-35988D01*
X37863Y-35988D02*
X37816Y-35954D01*
X37816Y-35954D02*
X37778Y-35911D01*
X37778Y-35911D02*
X37749Y-35861D01*
X37749Y-35861D02*
X37732Y-35807D01*
X37732Y-35807D02*
X37725Y-35750D01*
X37725Y-35750D02*
X37732Y-35693D01*
X37732Y-35693D02*
X37749Y-35639D01*
X37749Y-35639D02*
X37778Y-35589D01*
X37778Y-35589D02*
X37816Y-35546D01*
X37816Y-35546D02*
X37863Y-35512D01*
X37863Y-35512D02*
X37916Y-35489D01*
X37916Y-35489D02*
X37972Y-35477D01*
X37972Y-35477D02*
X38028Y-35477D01*
X38028Y-35477D02*
X38084Y-35489D01*
X38084Y-35489D02*
X38137Y-35512D01*
X38137Y-35512D02*
X38184Y-35546D01*
X38184Y-35546D02*
X38222Y-35589D01*
X38222Y-35589D02*
X38251Y-35639D01*
X38251Y-35639D02*
X38268Y-35693D01*
X38268Y-35693D02*
X38275Y-35750D01*
X38275Y-32750D02*
X38268Y-32807D01*
X38268Y-32807D02*
X38251Y-32861D01*
X38251Y-32861D02*
X38222Y-32911D01*
X38222Y-32911D02*
X38184Y-32954D01*
X38184Y-32954D02*
X38137Y-32988D01*
X38137Y-32988D02*
X38084Y-33011D01*
X38084Y-33011D02*
X38028Y-33023D01*
X38028Y-33023D02*
X37972Y-33023D01*
X37972Y-33023D02*
X37916Y-33011D01*
X37916Y-33011D02*
X37863Y-32988D01*
X37863Y-32988D02*
X37816Y-32954D01*
X37816Y-32954D02*
X37778Y-32911D01*
X37778Y-32911D02*
X37749Y-32861D01*
X37749Y-32861D02*
X37732Y-32807D01*
X37732Y-32807D02*
X37725Y-32750D01*
X37725Y-32750D02*
X37732Y-32693D01*
X37732Y-32693D02*
X37749Y-32639D01*
X37749Y-32639D02*
X37778Y-32589D01*
X37778Y-32589D02*
X37816Y-32546D01*
X37816Y-32546D02*
X37863Y-32512D01*
X37863Y-32512D02*
X37916Y-32489D01*
X37916Y-32489D02*
X37972Y-32477D01*
X37972Y-32477D02*
X38028Y-32477D01*
X38028Y-32477D02*
X38084Y-32489D01*
X38084Y-32489D02*
X38137Y-32512D01*
X38137Y-32512D02*
X38184Y-32546D01*
X38184Y-32546D02*
X38222Y-32589D01*
X38222Y-32589D02*
X38251Y-32639D01*
X38251Y-32639D02*
X38268Y-32693D01*
X38268Y-32693D02*
X38275Y-32750D01*
X37275Y-32750D02*
X37268Y-32807D01*
X37268Y-32807D02*
X37251Y-32861D01*
X37251Y-32861D02*
X37222Y-32911D01*
X37222Y-32911D02*
X37184Y-32954D01*
X37184Y-32954D02*
X37137Y-32988D01*
X37137Y-32988D02*
X37084Y-33011D01*
X37084Y-33011D02*
X37028Y-33023D01*
X37028Y-33023D02*
X36972Y-33023D01*
X36972Y-33023D02*
X36916Y-33011D01*
X36916Y-33011D02*
X36863Y-32988D01*
X36863Y-32988D02*
X36816Y-32954D01*
X36816Y-32954D02*
X36778Y-32911D01*
X36778Y-32911D02*
X36749Y-32861D01*
X36749Y-32861D02*
X36732Y-32807D01*
X36732Y-32807D02*
X36725Y-32750D01*
X36725Y-32750D02*
X36732Y-32693D01*
X36732Y-32693D02*
X36749Y-32639D01*
X36749Y-32639D02*
X36778Y-32589D01*
X36778Y-32589D02*
X36816Y-32546D01*
X36816Y-32546D02*
X36863Y-32512D01*
X36863Y-32512D02*
X36916Y-32489D01*
X36916Y-32489D02*
X36972Y-32477D01*
X36972Y-32477D02*
X37028Y-32477D01*
X37028Y-32477D02*
X37084Y-32489D01*
X37084Y-32489D02*
X37137Y-32512D01*
X37137Y-32512D02*
X37184Y-32546D01*
X37184Y-32546D02*
X37222Y-32589D01*
X37222Y-32589D02*
X37251Y-32639D01*
X37251Y-32639D02*
X37268Y-32693D01*
X37268Y-32693D02*
X37275Y-32750D01*
X36275Y-32750D02*
X36268Y-32807D01*
X36268Y-32807D02*
X36251Y-32861D01*
X36251Y-32861D02*
X36222Y-32911D01*
X36222Y-32911D02*
X36184Y-32954D01*
X36184Y-32954D02*
X36137Y-32988D01*
X36137Y-32988D02*
X36084Y-33011D01*
X36084Y-33011D02*
X36028Y-33023D01*
X36028Y-33023D02*
X35972Y-33023D01*
X35972Y-33023D02*
X35916Y-33011D01*
X35916Y-33011D02*
X35863Y-32988D01*
X35863Y-32988D02*
X35816Y-32954D01*
X35816Y-32954D02*
X35778Y-32911D01*
X35778Y-32911D02*
X35749Y-32861D01*
X35749Y-32861D02*
X35732Y-32807D01*
X35732Y-32807D02*
X35725Y-32750D01*
X35725Y-32750D02*
X35732Y-32693D01*
X35732Y-32693D02*
X35749Y-32639D01*
X35749Y-32639D02*
X35778Y-32589D01*
X35778Y-32589D02*
X35816Y-32546D01*
X35816Y-32546D02*
X35863Y-32512D01*
X35863Y-32512D02*
X35916Y-32489D01*
X35916Y-32489D02*
X35972Y-32477D01*
X35972Y-32477D02*
X36028Y-32477D01*
X36028Y-32477D02*
X36084Y-32489D01*
X36084Y-32489D02*
X36137Y-32512D01*
X36137Y-32512D02*
X36184Y-32546D01*
X36184Y-32546D02*
X36222Y-32589D01*
X36222Y-32589D02*
X36251Y-32639D01*
X36251Y-32639D02*
X36268Y-32693D01*
X36268Y-32693D02*
X36275Y-32750D01*
X35275Y-32750D02*
X35268Y-32807D01*
X35268Y-32807D02*
X35251Y-32861D01*
X35251Y-32861D02*
X35222Y-32911D01*
X35222Y-32911D02*
X35184Y-32954D01*
X35184Y-32954D02*
X35137Y-32988D01*
X35137Y-32988D02*
X35084Y-33011D01*
X35084Y-33011D02*
X35028Y-33023D01*
X35028Y-33023D02*
X34972Y-33023D01*
X34972Y-33023D02*
X34916Y-33011D01*
X34916Y-33011D02*
X34863Y-32988D01*
X34863Y-32988D02*
X34816Y-32954D01*
X34816Y-32954D02*
X34778Y-32911D01*
X34778Y-32911D02*
X34749Y-32861D01*
X34749Y-32861D02*
X34732Y-32807D01*
X34732Y-32807D02*
X34725Y-32750D01*
X34725Y-32750D02*
X34732Y-32693D01*
X34732Y-32693D02*
X34749Y-32639D01*
X34749Y-32639D02*
X34778Y-32589D01*
X34778Y-32589D02*
X34816Y-32546D01*
X34816Y-32546D02*
X34863Y-32512D01*
X34863Y-32512D02*
X34916Y-32489D01*
X34916Y-32489D02*
X34972Y-32477D01*
X34972Y-32477D02*
X35028Y-32477D01*
X35028Y-32477D02*
X35084Y-32489D01*
X35084Y-32489D02*
X35137Y-32512D01*
X35137Y-32512D02*
X35184Y-32546D01*
X35184Y-32546D02*
X35222Y-32589D01*
X35222Y-32589D02*
X35251Y-32639D01*
X35251Y-32639D02*
X35268Y-32693D01*
X35268Y-32693D02*
X35275Y-32750D01*
X34275Y-32750D02*
X34268Y-32807D01*
X34268Y-32807D02*
X34251Y-32861D01*
X34251Y-32861D02*
X34222Y-32911D01*
X34222Y-32911D02*
X34184Y-32954D01*
X34184Y-32954D02*
X34137Y-32988D01*
X34137Y-32988D02*
X34084Y-33011D01*
X34084Y-33011D02*
X34028Y-33023D01*
X34028Y-33023D02*
X33972Y-33023D01*
X33972Y-33023D02*
X33916Y-33011D01*
X33916Y-33011D02*
X33863Y-32988D01*
X33863Y-32988D02*
X33816Y-32954D01*
X33816Y-32954D02*
X33778Y-32911D01*
X33778Y-32911D02*
X33749Y-32861D01*
X33749Y-32861D02*
X33732Y-32807D01*
X33732Y-32807D02*
X33725Y-32750D01*
X33725Y-32750D02*
X33732Y-32693D01*
X33732Y-32693D02*
X33749Y-32639D01*
X33749Y-32639D02*
X33778Y-32589D01*
X33778Y-32589D02*
X33816Y-32546D01*
X33816Y-32546D02*
X33863Y-32512D01*
X33863Y-32512D02*
X33916Y-32489D01*
X33916Y-32489D02*
X33972Y-32477D01*
X33972Y-32477D02*
X34028Y-32477D01*
X34028Y-32477D02*
X34084Y-32489D01*
X34084Y-32489D02*
X34137Y-32512D01*
X34137Y-32512D02*
X34184Y-32546D01*
X34184Y-32546D02*
X34222Y-32589D01*
X34222Y-32589D02*
X34251Y-32639D01*
X34251Y-32639D02*
X34268Y-32693D01*
X34268Y-32693D02*
X34275Y-32750D01*
X33275Y-32750D02*
X33268Y-32807D01*
X33268Y-32807D02*
X33251Y-32861D01*
X33251Y-32861D02*
X33222Y-32911D01*
X33222Y-32911D02*
X33184Y-32954D01*
X33184Y-32954D02*
X33137Y-32988D01*
X33137Y-32988D02*
X33084Y-33011D01*
X33084Y-33011D02*
X33028Y-33023D01*
X33028Y-33023D02*
X32972Y-33023D01*
X32972Y-33023D02*
X32916Y-33011D01*
X32916Y-33011D02*
X32863Y-32988D01*
X32863Y-32988D02*
X32816Y-32954D01*
X32816Y-32954D02*
X32778Y-32911D01*
X32778Y-32911D02*
X32749Y-32861D01*
X32749Y-32861D02*
X32732Y-32807D01*
X32732Y-32807D02*
X32725Y-32750D01*
X32725Y-32750D02*
X32732Y-32693D01*
X32732Y-32693D02*
X32749Y-32639D01*
X32749Y-32639D02*
X32778Y-32589D01*
X32778Y-32589D02*
X32816Y-32546D01*
X32816Y-32546D02*
X32863Y-32512D01*
X32863Y-32512D02*
X32916Y-32489D01*
X32916Y-32489D02*
X32972Y-32477D01*
X32972Y-32477D02*
X33028Y-32477D01*
X33028Y-32477D02*
X33084Y-32489D01*
X33084Y-32489D02*
X33137Y-32512D01*
X33137Y-32512D02*
X33184Y-32546D01*
X33184Y-32546D02*
X33222Y-32589D01*
X33222Y-32589D02*
X33251Y-32639D01*
X33251Y-32639D02*
X33268Y-32693D01*
X33268Y-32693D02*
X33275Y-32750D01*
X32275Y-32750D02*
X32268Y-32807D01*
X32268Y-32807D02*
X32251Y-32861D01*
X32251Y-32861D02*
X32222Y-32911D01*
X32222Y-32911D02*
X32184Y-32954D01*
X32184Y-32954D02*
X32137Y-32988D01*
X32137Y-32988D02*
X32084Y-33011D01*
X32084Y-33011D02*
X32028Y-33023D01*
X32028Y-33023D02*
X31972Y-33023D01*
X31972Y-33023D02*
X31916Y-33011D01*
X31916Y-33011D02*
X31863Y-32988D01*
X31863Y-32988D02*
X31816Y-32954D01*
X31816Y-32954D02*
X31778Y-32911D01*
X31778Y-32911D02*
X31749Y-32861D01*
X31749Y-32861D02*
X31732Y-32807D01*
X31732Y-32807D02*
X31725Y-32750D01*
X31725Y-32750D02*
X31732Y-32693D01*
X31732Y-32693D02*
X31749Y-32639D01*
X31749Y-32639D02*
X31778Y-32589D01*
X31778Y-32589D02*
X31816Y-32546D01*
X31816Y-32546D02*
X31863Y-32512D01*
X31863Y-32512D02*
X31916Y-32489D01*
X31916Y-32489D02*
X31972Y-32477D01*
X31972Y-32477D02*
X32028Y-32477D01*
X32028Y-32477D02*
X32084Y-32489D01*
X32084Y-32489D02*
X32137Y-32512D01*
X32137Y-32512D02*
X32184Y-32546D01*
X32184Y-32546D02*
X32222Y-32589D01*
X32222Y-32589D02*
X32251Y-32639D01*
X32251Y-32639D02*
X32268Y-32693D01*
X32268Y-32693D02*
X32275Y-32750D01*
X40450Y-35275D02*
X40450Y-34725D01*
X40450Y-34725D02*
X40800Y-34725D01*
X40800Y-34725D02*
X40800Y-35275D01*
X40800Y-35275D02*
X40450Y-35275D01*
X41200Y-35275D02*
X41200Y-34725D01*
X41200Y-34725D02*
X41550Y-34725D01*
X41550Y-34725D02*
X41550Y-35275D01*
X41550Y-35275D02*
X41200Y-35275D01*
X33700Y-37525D02*
X33700Y-36975D01*
X33700Y-36975D02*
X34050Y-36975D01*
X34050Y-36975D02*
X34050Y-37525D01*
X34050Y-37525D02*
X33700Y-37525D01*
X34450Y-37525D02*
X34450Y-36975D01*
X34450Y-36975D02*
X34800Y-36975D01*
X34800Y-36975D02*
X34800Y-37525D01*
X34800Y-37525D02*
X34450Y-37525D01*
M02*
