M48
;DRILL file {PCBnew (20080825c)} date 29/7/2009-01:25:18
;FORMAT={2:4/ absolute / inch / suppress trailing zeros}
R,T
VER,1
FMAT,2
INCH,LZ
TCST,OFF
ICI,OFF
ATC,ON
T1C0.015
T2C0.027
T3C0.032
T4C0.036
T5C0.040
T6C0.125
T7C0.177
%
M47
G05
M72
T1
X04349Y-047059
X043868Y-037467
X044206Y-037162
X044602Y-036799
X044782Y-038563
X045083Y-03925
X045262Y-035214
X045359Y-038892
X046629Y-040344
X046639Y-043509
X046656Y-04409
X047016Y-039965
X047213Y-043482
X047329Y-039674
X04768Y-039272
X049656Y-038971
X049952Y-039196
X050387Y-039583
X05067Y-039821
X051059Y-037238
X051069Y-037848
X052883Y-035937
X052888Y-036528
X053705Y-033825
T2
X054Y-03904
X054Y-04096
T3
X032Y-03275
X032Y-03575
X033Y-03275
X033Y-03575
X034Y-03275
X034Y-03575
X035Y-03275
X035Y-03575
X036Y-03275
X036Y-03575
X037Y-03275
X037Y-03575
X038Y-03275
X038Y-03575
X053614Y-04722
X053614Y-04978
X055386Y-04722
X055386Y-04978
X058614Y-04722
X058614Y-04978
X060386Y-04722
X060386Y-04978
X061Y-0385
X061Y-0415
X062Y-0385
X062Y-0415
X063Y-0385
X063Y-0415
X064Y-0385
X064Y-0415
X065Y-0385
X065Y-0415
X066Y-0385
X066Y-0415
X067Y-0385
X067Y-0415
T4
X030866Y-039311
X030866Y-040689
T5
X03725Y-0485
X03725Y-0495
X03825Y-0485
X03825Y-0495
X03925Y-0485
X03925Y-0495
X04025Y-0485
X04025Y-0495
X04125Y-0485
X04125Y-0495
X04625Y-0305
X04625Y-0315
X04625Y-0485
X04625Y-0495
X04725Y-0305
X04725Y-0315
X04725Y-0485
X04725Y-0495
X04825Y-0305
X04825Y-0315
X04825Y-0485
X04825Y-0495
X04925Y-0305
X04925Y-0315
X04925Y-0485
X04925Y-0495
X05025Y-0305
X05025Y-0315
X05025Y-0485
X05025Y-0495
X05525Y-0305
X05525Y-0315
X05625Y-0305
X05625Y-0315
X05725Y-0305
X05725Y-0315
X05825Y-0305
X05825Y-0315
X05925Y-0305
X05925Y-0315
X0645Y-0307
X0648Y-0491
X0655Y-0307
X0658Y-0491
T6
X03Y-0275
X03Y-0525
X069Y-0275
X069Y-0525
X0905Y-0275
X0905Y-0525
T7
X08Y-030453
X08Y-049547
T0
M30
