G04 (Genere par PCBnew (20080825c)) le 28/7/2009-20:46:35*
G01*
G70*
G90*
%MOIN*%
G04 Gerber Fmt 3.4, Leading zero omitted, Abs format*
%FSLAX34Y34*%
G04 APERTURE LIST*
%ADD10C,0.015000*%
%ADD11R,0.055000X0.055000*%
%ADD12C,0.055000*%
%ADD13C,0.050000*%
%ADD14C,0.060000*%
%ADD15R,0.060000X0.060000*%
%ADD16C,0.196900*%
%ADD17C,0.150000*%
%ADD18C,0.030000*%
%ADD19C,0.012000*%
%ADD20C,0.025000*%
%ADD21R,0.035000X0.055000*%
%ADD22R,0.055000X0.035000*%
%ADD23R,0.009800X0.060000*%
%ADD24O,0.009800X0.060000*%
%ADD25O,0.060000X0.009800*%
%ADD26R,0.086600X0.098400*%
%ADD27R,0.078700X0.019700*%
%ADD28R,0.144000X0.080000*%
%ADD29R,0.040000X0.080000*%
%ADD30C,0.009600*%
%ADD31C,0.015000*%
%ADD32C,0.005000*%
%ADD33C,0.008000*%
%ADD34C,0.001000*%
%ADD35C,0.007900*%
%ADD36R,0.115000X0.115000*%
%ADD37C,0.115000*%
%ADD38C,0.110000*%
%ADD39C,0.120000*%
%ADD40R,0.120000X0.120000*%
%ADD41C,0.256900*%
%ADD42C,0.210000*%
%ADD43R,0.095000X0.115000*%
%ADD44R,0.115000X0.095000*%
%ADD45R,0.069800X0.120000*%
%ADD46O,0.069800X0.120000*%
%ADD47O,0.120000X0.069800*%
%ADD48R,0.146600X0.158400*%
%ADD49R,0.138700X0.079700*%
%ADD50R,0.204000X0.140000*%
%ADD51R,0.100000X0.140000*%
%ADD52R,0.061000X0.061000*%
%ADD53C,0.061000*%
%ADD54C,0.056000*%
%ADD55C,0.066000*%
%ADD56R,0.066000X0.066000*%
%ADD57C,0.202900*%
%ADD58C,0.156000*%
%ADD59R,0.041000X0.061000*%
%ADD60R,0.061000X0.041000*%
%ADD61R,0.015800X0.066000*%
%ADD62O,0.015800X0.066000*%
%ADD63O,0.066000X0.015800*%
%ADD64R,0.092600X0.104400*%
%ADD65R,0.084700X0.025700*%
%ADD66R,0.150000X0.086000*%
%ADD67R,0.046000X0.086000*%
%ADD68C,0.002500*%
%ADD69R,0.063000X0.063000*%
%ADD70C,0.063000*%
%ADD71C,0.058000*%
%ADD72C,0.068000*%
%ADD73R,0.068000X0.068000*%
%ADD74C,0.204900*%
%ADD75C,0.158000*%
G04 APERTURE END LIST*
G54D10*
X28500Y-54000D02*
X92000Y-54000D01*
X28500Y-26000D02*
X92000Y-26000D01*
X92000Y-26000D02*
X92000Y-54000D01*
X28500Y-26000D02*
X28500Y-54000D01*
G54D69*
X61000Y-41500D03*
G54D70*
X62000Y-41500D03*
X63000Y-41500D03*
X64000Y-41500D03*
X65000Y-41500D03*
X66000Y-41500D03*
X67000Y-41500D03*
X67000Y-38500D03*
X66000Y-38500D03*
X65000Y-38500D03*
X64000Y-38500D03*
X63000Y-38500D03*
X62000Y-38500D03*
X61000Y-38500D03*
G54D71*
X54000Y-39040D03*
X54000Y-40960D03*
G54D72*
X55386Y-47220D03*
X53614Y-47220D03*
X55386Y-49780D03*
X53614Y-49780D03*
X60386Y-47220D03*
X58614Y-47220D03*
X60386Y-49780D03*
X58614Y-49780D03*
G54D73*
X64800Y-49100D03*
G54D72*
X65800Y-49100D03*
G54D73*
X64500Y-30700D03*
G54D72*
X65500Y-30700D03*
G54D73*
X45500Y-49500D03*
G54D72*
X45500Y-48500D03*
X46500Y-49500D03*
X46500Y-48500D03*
X47500Y-49500D03*
X47500Y-48500D03*
X48500Y-49500D03*
X48500Y-48500D03*
X49500Y-49500D03*
X49500Y-48500D03*
G54D73*
X36500Y-49500D03*
G54D72*
X36500Y-48500D03*
X37500Y-49500D03*
X37500Y-48500D03*
X38500Y-49500D03*
X38500Y-48500D03*
X39500Y-49500D03*
X39500Y-48500D03*
X40500Y-49500D03*
X40500Y-48500D03*
G54D73*
X54500Y-31500D03*
G54D72*
X54500Y-30500D03*
X55500Y-31500D03*
X55500Y-30500D03*
X56500Y-31500D03*
X56500Y-30500D03*
X57500Y-31500D03*
X57500Y-30500D03*
X58500Y-31500D03*
X58500Y-30500D03*
G54D73*
X45500Y-31500D03*
G54D72*
X45500Y-30500D03*
X46500Y-31500D03*
X46500Y-30500D03*
X47500Y-31500D03*
X47500Y-30500D03*
X48500Y-31500D03*
X48500Y-30500D03*
X49500Y-31500D03*
X49500Y-30500D03*
G54D71*
X30866Y-39311D03*
X30866Y-40689D03*
G54D74*
X80000Y-49547D03*
X80000Y-30453D03*
G54D75*
X30000Y-27500D03*
X30000Y-52500D03*
X90500Y-27500D03*
X90500Y-52500D03*
X69000Y-27500D03*
X69000Y-52500D03*
M02*
