M48
;DRILL file {PCBnew (20080825c)} date 28/7/2009-20:46:41
;FORMAT={2:4/ absolute / inch / suppress trailing zeros}
R,T
VER,1
FMAT,2
INCH,LZ
TCST,OFF
ICI,OFF
ATC,ON
T1C0.015
T2C0.027
T3C0.032
T4C0.036
T5C0.040
T6C0.125
T7C0.177
%
M47
G05
M72
T1
X044763Y-038671
X04541Y-036654
X046604Y-041119
X046947Y-038386
X047594Y-040374
X049293Y-03865
X049443Y-039043
X049456Y-039818
X049926Y-039502
X057592Y-038642
X0625Y-037395
T2
X054Y-03904
X054Y-04096
T3
X053614Y-04722
X053614Y-04978
X055386Y-04722
X055386Y-04978
X058614Y-04722
X058614Y-04978
X060386Y-04722
X060386Y-04978
X061Y-0385
X061Y-0415
X062Y-0385
X062Y-0415
X063Y-0385
X063Y-0415
X064Y-0385
X064Y-0415
X065Y-0385
X065Y-0415
X066Y-0385
X066Y-0415
X067Y-0385
X067Y-0415
T4
X030866Y-039311
X030866Y-040689
T5
X0365Y-0485
X0365Y-0495
X0375Y-0485
X0375Y-0495
X0385Y-0485
X0385Y-0495
X0395Y-0485
X0395Y-0495
X0405Y-0485
X0405Y-0495
X0455Y-0305
X0455Y-0315
X0455Y-0485
X0455Y-0495
X0465Y-0305
X0465Y-0315
X0465Y-0485
X0465Y-0495
X0475Y-0305
X0475Y-0315
X0475Y-0485
X0475Y-0495
X0485Y-0305
X0485Y-0315
X0485Y-0485
X0485Y-0495
X0495Y-0305
X0495Y-0315
X0495Y-0485
X0495Y-0495
X0545Y-0305
X0545Y-0315
X0555Y-0305
X0555Y-0315
X0565Y-0305
X0565Y-0315
X0575Y-0305
X0575Y-0315
X0585Y-0305
X0585Y-0315
X0645Y-0307
X0648Y-0491
X0655Y-0307
X0658Y-0491
T6
X03Y-0275
X03Y-0525
X069Y-0275
X069Y-0525
X0905Y-0275
X0905Y-0525
T7
X08Y-030453
X08Y-049547
T0
M30
