G04 (Genere par PCBnew (20080825c)) le 10/8/2009-16:02:45*
G01*
G70*
G90*
%MOIN*%
G04 Gerber Fmt 3.4, Leading zero omitted, Abs format*
%FSLAX34Y34*%
G04 APERTURE LIST*
%ADD10C,0.015000*%
%ADD11R,0.055000X0.055000*%
%ADD12C,0.055000*%
%ADD13C,0.050000*%
%ADD14C,0.060000*%
%ADD15R,0.060000X0.060000*%
%ADD16C,0.196900*%
%ADD17C,0.150000*%
%ADD18R,0.059000X0.059000*%
%ADD19C,0.059000*%
%ADD20C,0.030000*%
%ADD21C,0.010000*%
%ADD22C,0.018000*%
%ADD23C,0.008000*%
%ADD24C,0.005000*%
%ADD25R,0.086600X0.098400*%
%ADD26R,0.078700X0.019700*%
%ADD27R,0.017700X0.055100*%
%ADD28R,0.055100X0.017700*%
%ADD29C,0.001000*%
%ADD30C,0.015000*%
%ADD31C,0.006000*%
%ADD32C,0.007900*%
%ADD33C,0.008100*%
%ADD34R,0.061000X0.061000*%
%ADD35C,0.061000*%
%ADD36C,0.056000*%
%ADD37C,0.066000*%
%ADD38R,0.066000X0.066000*%
%ADD39C,0.202900*%
%ADD40C,0.156000*%
%ADD41R,0.065000X0.065000*%
%ADD42C,0.065000*%
G04 APERTURE END LIST*
G54D10*
X22500Y-53000D02*
X22500Y-52500D01*
X87000Y-53000D02*
X22500Y-53000D01*
X87000Y-27000D02*
X87000Y-53000D01*
X22500Y-27000D02*
X87000Y-27000D01*
X22500Y-53000D02*
X22500Y-27000D01*
G54D34*
X27500Y-36500D03*
G54D35*
X28500Y-36500D03*
X29500Y-36500D03*
X30500Y-36500D03*
X31500Y-36500D03*
X32500Y-36500D03*
X33500Y-36500D03*
X33500Y-33500D03*
X32500Y-33500D03*
X31500Y-33500D03*
X30500Y-33500D03*
X29500Y-33500D03*
X28500Y-33500D03*
X27500Y-33500D03*
G54D36*
X48000Y-39040D03*
X48000Y-40960D03*
G54D37*
X54886Y-48220D03*
X53114Y-48220D03*
X54886Y-50780D03*
X53114Y-50780D03*
X50386Y-48220D03*
X48614Y-48220D03*
X50386Y-50780D03*
X48614Y-50780D03*
G54D38*
X32500Y-30500D03*
G54D37*
X33500Y-30500D03*
G54D38*
X56500Y-40500D03*
G54D37*
X56500Y-39500D03*
G54D36*
X24866Y-39311D03*
X24866Y-40689D03*
G54D39*
X82547Y-40000D03*
X63453Y-40000D03*
G54D40*
X24000Y-28500D03*
X24000Y-51500D03*
X60500Y-28500D03*
X60500Y-51500D03*
X85500Y-28500D03*
X85500Y-51500D03*
G54D41*
X39500Y-49500D03*
G54D42*
X39500Y-48500D03*
X40500Y-49500D03*
X40500Y-48500D03*
X41500Y-49500D03*
X41500Y-48500D03*
X42500Y-49500D03*
X42500Y-48500D03*
X43500Y-49500D03*
X43500Y-48500D03*
G54D41*
X28500Y-49500D03*
G54D42*
X28500Y-48500D03*
X29500Y-49500D03*
X29500Y-48500D03*
X30500Y-49500D03*
X30500Y-48500D03*
X31500Y-49500D03*
X31500Y-48500D03*
X32500Y-49500D03*
X32500Y-48500D03*
G54D41*
X50500Y-31500D03*
G54D42*
X50500Y-30500D03*
X51500Y-31500D03*
X51500Y-30500D03*
X52500Y-31500D03*
X52500Y-30500D03*
X53500Y-31500D03*
X53500Y-30500D03*
X54500Y-31500D03*
X54500Y-30500D03*
G54D41*
X39500Y-31500D03*
G54D42*
X39500Y-30500D03*
X40500Y-31500D03*
X40500Y-30500D03*
X41500Y-31500D03*
X41500Y-30500D03*
X42500Y-31500D03*
X42500Y-30500D03*
X43500Y-31500D03*
X43500Y-30500D03*
M02*
