G04 (Genere par PCBnew (20080825c)) le 28/7/2009-20:46:35*
G01*
G70*
G90*
%MOIN*%
G04 Gerber Fmt 3.4, Leading zero omitted, Abs format*
%FSLAX34Y34*%
G04 APERTURE LIST*
%ADD10C,0.006000*%
%ADD11R,0.055000X0.055000*%
%ADD12C,0.055000*%
%ADD13C,0.050000*%
%ADD14C,0.060000*%
%ADD15R,0.060000X0.060000*%
%ADD16C,0.196900*%
%ADD17C,0.150000*%
%ADD18C,0.030000*%
%ADD19C,0.012000*%
%ADD20C,0.025000*%
%ADD21R,0.035000X0.055000*%
%ADD22R,0.055000X0.035000*%
%ADD23R,0.009800X0.060000*%
%ADD24O,0.009800X0.060000*%
%ADD25O,0.060000X0.009800*%
%ADD26R,0.086600X0.098400*%
%ADD27R,0.078700X0.019700*%
%ADD28R,0.144000X0.080000*%
%ADD29R,0.040000X0.080000*%
%ADD30C,0.009600*%
%ADD31C,0.015000*%
%ADD32C,0.005000*%
%ADD33C,0.008000*%
%ADD34C,0.001000*%
%ADD35C,0.007900*%
%ADD36R,0.115000X0.115000*%
%ADD37C,0.115000*%
%ADD38C,0.110000*%
%ADD39C,0.120000*%
%ADD40R,0.120000X0.120000*%
%ADD41C,0.256900*%
%ADD42C,0.210000*%
%ADD43R,0.095000X0.115000*%
%ADD44R,0.115000X0.095000*%
%ADD45R,0.069800X0.120000*%
%ADD46O,0.069800X0.120000*%
%ADD47O,0.120000X0.069800*%
%ADD48R,0.146600X0.158400*%
%ADD49R,0.138700X0.079700*%
%ADD50R,0.204000X0.140000*%
%ADD51R,0.100000X0.140000*%
%ADD52R,0.061000X0.061000*%
%ADD53C,0.061000*%
%ADD54C,0.056000*%
%ADD55C,0.066000*%
%ADD56R,0.066000X0.066000*%
%ADD57C,0.202900*%
%ADD58C,0.156000*%
%ADD59R,0.041000X0.061000*%
%ADD60R,0.061000X0.041000*%
%ADD61R,0.015800X0.066000*%
%ADD62O,0.015800X0.066000*%
%ADD63O,0.066000X0.015800*%
%ADD64R,0.092600X0.104400*%
%ADD65R,0.084700X0.025700*%
%ADD66R,0.150000X0.086000*%
%ADD67R,0.046000X0.086000*%
%ADD68C,0.002500*%
G04 APERTURE END LIST*
G54D10*
X67600Y-30523D02*
X67350Y-30523D01*
X67096Y-30700D02*
X66896Y-30700D01*
X66996Y-30700D02*
X66996Y-30300D01*
X67096Y-30300D02*
X66896Y-30300D01*
X66642Y-30700D02*
X66642Y-30300D01*
X66642Y-30300D02*
X66292Y-30700D01*
X66292Y-30700D02*
X66292Y-30300D01*
X63650Y-30523D02*
X63350Y-30523D01*
X63500Y-30656D02*
X63500Y-30389D01*
X63096Y-30700D02*
X62896Y-30700D01*
X62996Y-30700D02*
X62996Y-30300D01*
X63096Y-30300D02*
X62896Y-30300D01*
X62642Y-30700D02*
X62642Y-30300D01*
X62642Y-30300D02*
X62292Y-30700D01*
X62292Y-30700D02*
X62292Y-30300D01*
X67850Y-48845D02*
X67850Y-48800D01*
X67850Y-48800D02*
X68100Y-48800D01*
X68100Y-48800D02*
X68150Y-48845D01*
X68150Y-48845D02*
X68150Y-49156D01*
X68150Y-49156D02*
X68100Y-49200D01*
X68100Y-49200D02*
X67850Y-49200D01*
X67850Y-49200D02*
X67800Y-49156D01*
X67800Y-49156D02*
X67800Y-49023D01*
X67800Y-49023D02*
X67950Y-49023D01*
X67646Y-49200D02*
X67646Y-48800D01*
X67646Y-48800D02*
X67296Y-49200D01*
X67296Y-49200D02*
X67296Y-48800D01*
X67092Y-49200D02*
X67092Y-48800D01*
X67142Y-48800D02*
X66842Y-48800D01*
X66842Y-48800D02*
X66792Y-48845D01*
X66792Y-48845D02*
X66792Y-49156D01*
X66792Y-49156D02*
X66842Y-49200D01*
X66842Y-49200D02*
X67142Y-49200D01*
X63548Y-49200D02*
X63898Y-49200D01*
X63898Y-49200D02*
X63898Y-48800D01*
X63898Y-48800D02*
X63548Y-48800D01*
X63898Y-48978D02*
X63698Y-48978D01*
X63294Y-49200D02*
X63094Y-49200D01*
X63194Y-49200D02*
X63194Y-48800D01*
X63194Y-48845D02*
X63294Y-48934D01*
X66654Y-50700D02*
X66654Y-50300D01*
X66654Y-50300D02*
X66354Y-50300D01*
X66354Y-50300D02*
X66304Y-50345D01*
X66304Y-50345D02*
X66304Y-50478D01*
X66304Y-50478D02*
X66354Y-50523D01*
X66354Y-50523D02*
X66654Y-50523D01*
X66504Y-50523D02*
X66304Y-50700D01*
X65800Y-50700D02*
X66150Y-50700D01*
X66150Y-50700D02*
X66150Y-50300D01*
X66150Y-50300D02*
X65800Y-50300D01*
X66150Y-50478D02*
X65950Y-50478D01*
X65646Y-50300D02*
X65646Y-50700D01*
X65646Y-50700D02*
X65246Y-50700D01*
X65142Y-50700D02*
X65142Y-50389D01*
X65142Y-50389D02*
X65042Y-50300D01*
X65042Y-50300D02*
X64892Y-50300D01*
X64892Y-50300D02*
X64792Y-50389D01*
X64792Y-50389D02*
X64792Y-50700D01*
X65142Y-50478D02*
X64792Y-50478D01*
X64638Y-50300D02*
X64438Y-50523D01*
X64438Y-50523D02*
X64238Y-50300D01*
X64438Y-50523D02*
X64438Y-50700D01*
X68418Y-31800D02*
X68018Y-31800D01*
X68218Y-31800D02*
X68218Y-32200D01*
X67914Y-32200D02*
X67914Y-31800D01*
X67564Y-32200D02*
X67564Y-31800D01*
X67914Y-32023D02*
X67564Y-32023D01*
X67060Y-32200D02*
X67410Y-32200D01*
X67410Y-32200D02*
X67410Y-31800D01*
X67410Y-31800D02*
X67060Y-31800D01*
X67410Y-31978D02*
X67210Y-31978D01*
X66906Y-32200D02*
X66906Y-31800D01*
X66906Y-31800D02*
X66606Y-31800D01*
X66606Y-31800D02*
X66556Y-31845D01*
X66556Y-31845D02*
X66556Y-31978D01*
X66556Y-31978D02*
X66606Y-32023D01*
X66606Y-32023D02*
X66906Y-32023D01*
X66756Y-32023D02*
X66556Y-32200D01*
X66402Y-32200D02*
X66402Y-31800D01*
X66402Y-31800D02*
X66202Y-31978D01*
X66202Y-31978D02*
X66002Y-31800D01*
X66002Y-31800D02*
X66002Y-32200D01*
X65848Y-32200D02*
X65898Y-32156D01*
X65898Y-32156D02*
X65898Y-31845D01*
X65898Y-31845D02*
X65848Y-31800D01*
X65848Y-31800D02*
X65598Y-31800D01*
X65598Y-31800D02*
X65548Y-31845D01*
X65548Y-31845D02*
X65548Y-32156D01*
X65548Y-32156D02*
X65598Y-32200D01*
X65598Y-32200D02*
X65848Y-32200D01*
X65044Y-32156D02*
X65094Y-32200D01*
X65094Y-32200D02*
X65344Y-32200D01*
X65344Y-32200D02*
X65394Y-32156D01*
X65394Y-32156D02*
X65394Y-31845D01*
X65394Y-31845D02*
X65344Y-31800D01*
X65344Y-31800D02*
X65094Y-31800D01*
X65094Y-31800D02*
X65044Y-31845D01*
X64840Y-32200D02*
X64890Y-32156D01*
X64890Y-32156D02*
X64890Y-31845D01*
X64890Y-31845D02*
X64840Y-31800D01*
X64840Y-31800D02*
X64590Y-31800D01*
X64590Y-31800D02*
X64540Y-31845D01*
X64540Y-31845D02*
X64540Y-32156D01*
X64540Y-32156D02*
X64590Y-32200D01*
X64590Y-32200D02*
X64840Y-32200D01*
X64386Y-31800D02*
X64386Y-32156D01*
X64386Y-32156D02*
X64336Y-32200D01*
X64336Y-32200D02*
X64086Y-32200D01*
X64086Y-32200D02*
X64036Y-32156D01*
X64036Y-32156D02*
X64036Y-31800D01*
X63882Y-32200D02*
X63882Y-31800D01*
X63882Y-31800D02*
X63582Y-31800D01*
X63582Y-31800D02*
X63532Y-31845D01*
X63532Y-31845D02*
X63532Y-31978D01*
X63532Y-31978D02*
X63582Y-32023D01*
X63582Y-32023D02*
X63882Y-32023D01*
X63378Y-31800D02*
X63378Y-32200D01*
X63378Y-32200D02*
X62978Y-32200D01*
X62524Y-32200D02*
X62874Y-32200D01*
X62874Y-32200D02*
X62874Y-31800D01*
X62874Y-31800D02*
X62524Y-31800D01*
X62874Y-31978D02*
X62674Y-31978D01*
X60048Y-31656D02*
X60098Y-31700D01*
X60098Y-31700D02*
X60348Y-31700D01*
X60348Y-31700D02*
X60398Y-31656D01*
X60398Y-31656D02*
X60398Y-31345D01*
X60398Y-31345D02*
X60348Y-31300D01*
X60348Y-31300D02*
X60098Y-31300D01*
X60098Y-31300D02*
X60048Y-31345D01*
X59794Y-31700D02*
X59594Y-31700D01*
X59694Y-31700D02*
X59694Y-31300D01*
X59694Y-31345D02*
X59794Y-31434D01*
X60048Y-30656D02*
X60098Y-30700D01*
X60098Y-30700D02*
X60348Y-30700D01*
X60348Y-30700D02*
X60398Y-30656D01*
X60398Y-30656D02*
X60398Y-30345D01*
X60398Y-30345D02*
X60348Y-30300D01*
X60348Y-30300D02*
X60098Y-30300D01*
X60098Y-30300D02*
X60048Y-30345D01*
X59894Y-30700D02*
X59544Y-30300D01*
X59894Y-30656D02*
X59894Y-30345D01*
X59894Y-30345D02*
X59844Y-30300D01*
X59844Y-30300D02*
X59594Y-30300D01*
X59594Y-30300D02*
X59544Y-30345D01*
X59544Y-30345D02*
X59544Y-30656D01*
X59544Y-30656D02*
X59594Y-30700D01*
X59594Y-30700D02*
X59844Y-30700D01*
X59844Y-30700D02*
X59894Y-30656D01*
X51398Y-31700D02*
X51398Y-31389D01*
X51398Y-31389D02*
X51298Y-31300D01*
X51298Y-31300D02*
X51148Y-31300D01*
X51148Y-31300D02*
X51048Y-31389D01*
X51048Y-31389D02*
X51048Y-31700D01*
X51398Y-31478D02*
X51048Y-31478D01*
X50794Y-31700D02*
X50594Y-31700D01*
X50694Y-31700D02*
X50694Y-31300D01*
X50694Y-31345D02*
X50794Y-31434D01*
X51398Y-30700D02*
X51398Y-30389D01*
X51398Y-30389D02*
X51298Y-30300D01*
X51298Y-30300D02*
X51148Y-30300D01*
X51148Y-30300D02*
X51048Y-30389D01*
X51048Y-30389D02*
X51048Y-30700D01*
X51398Y-30478D02*
X51048Y-30478D01*
X50894Y-30700D02*
X50544Y-30300D01*
X50894Y-30656D02*
X50894Y-30345D01*
X50894Y-30345D02*
X50844Y-30300D01*
X50844Y-30300D02*
X50594Y-30300D01*
X50594Y-30300D02*
X50544Y-30345D01*
X50544Y-30345D02*
X50544Y-30656D01*
X50544Y-30656D02*
X50594Y-30700D01*
X50594Y-30700D02*
X50844Y-30700D01*
X50844Y-30700D02*
X50894Y-30656D01*
X60654Y-50700D02*
X60654Y-50300D01*
X60654Y-50300D02*
X60354Y-50300D01*
X60354Y-50300D02*
X60304Y-50345D01*
X60304Y-50345D02*
X60304Y-50478D01*
X60304Y-50478D02*
X60354Y-50523D01*
X60354Y-50523D02*
X60654Y-50523D01*
X60504Y-50523D02*
X60304Y-50700D01*
X59800Y-50700D02*
X60150Y-50700D01*
X60150Y-50700D02*
X60150Y-50300D01*
X60150Y-50300D02*
X59800Y-50300D01*
X60150Y-50478D02*
X59950Y-50478D01*
X59646Y-50656D02*
X59596Y-50700D01*
X59596Y-50700D02*
X59346Y-50700D01*
X59346Y-50700D02*
X59296Y-50656D01*
X59296Y-50656D02*
X59296Y-50523D01*
X59296Y-50523D02*
X59346Y-50478D01*
X59346Y-50478D02*
X59596Y-50478D01*
X59596Y-50478D02*
X59646Y-50434D01*
X59646Y-50434D02*
X59646Y-50345D01*
X59646Y-50345D02*
X59596Y-50300D01*
X59596Y-50300D02*
X59346Y-50300D01*
X59346Y-50300D02*
X59296Y-50345D01*
X58792Y-50700D02*
X59142Y-50700D01*
X59142Y-50700D02*
X59142Y-50300D01*
X59142Y-50300D02*
X58792Y-50300D01*
X59142Y-50478D02*
X58942Y-50478D01*
X58638Y-50300D02*
X58238Y-50300D01*
X58438Y-50300D02*
X58438Y-50700D01*
X55150Y-50700D02*
X55150Y-50300D01*
X54800Y-50700D02*
X54800Y-50300D01*
X55150Y-50523D02*
X54800Y-50523D01*
X54646Y-50300D02*
X54546Y-50700D01*
X54546Y-50700D02*
X54446Y-50567D01*
X54446Y-50567D02*
X54346Y-50700D01*
X54346Y-50700D02*
X54246Y-50300D01*
X54142Y-50700D02*
X54142Y-50300D01*
X54142Y-50300D02*
X53842Y-50300D01*
X53842Y-50300D02*
X53792Y-50345D01*
X53792Y-50345D02*
X53792Y-50434D01*
X53792Y-50434D02*
X53842Y-50478D01*
X53842Y-50478D02*
X54142Y-50478D01*
X53842Y-50478D02*
X53792Y-50567D01*
X53792Y-50567D02*
X53792Y-50656D01*
X53792Y-50656D02*
X53842Y-50700D01*
X53842Y-50700D02*
X54142Y-50700D01*
X51348Y-49700D02*
X51348Y-49300D01*
X51398Y-49300D02*
X51098Y-49300D01*
X51098Y-49300D02*
X51048Y-49345D01*
X51048Y-49345D02*
X51048Y-49656D01*
X51048Y-49656D02*
X51098Y-49700D01*
X51098Y-49700D02*
X51398Y-49700D01*
X50794Y-49700D02*
X50594Y-49700D01*
X50694Y-49700D02*
X50694Y-49300D01*
X50694Y-49345D02*
X50794Y-49434D01*
X51348Y-48700D02*
X51348Y-48300D01*
X51398Y-48300D02*
X51098Y-48300D01*
X51098Y-48300D02*
X51048Y-48345D01*
X51048Y-48345D02*
X51048Y-48656D01*
X51048Y-48656D02*
X51098Y-48700D01*
X51098Y-48700D02*
X51398Y-48700D01*
X50894Y-48700D02*
X50544Y-48300D01*
X50894Y-48656D02*
X50894Y-48345D01*
X50894Y-48345D02*
X50844Y-48300D01*
X50844Y-48300D02*
X50594Y-48300D01*
X50594Y-48300D02*
X50544Y-48345D01*
X50544Y-48345D02*
X50544Y-48656D01*
X50544Y-48656D02*
X50594Y-48700D01*
X50594Y-48700D02*
X50844Y-48700D01*
X50844Y-48700D02*
X50894Y-48656D01*
X42398Y-49700D02*
X42398Y-49300D01*
X42398Y-49300D02*
X42098Y-49300D01*
X42098Y-49300D02*
X42048Y-49345D01*
X42048Y-49345D02*
X42048Y-49434D01*
X42048Y-49434D02*
X42098Y-49478D01*
X42098Y-49478D02*
X42398Y-49478D01*
X42098Y-49478D02*
X42048Y-49567D01*
X42048Y-49567D02*
X42048Y-49656D01*
X42048Y-49656D02*
X42098Y-49700D01*
X42098Y-49700D02*
X42398Y-49700D01*
X41794Y-49700D02*
X41594Y-49700D01*
X41694Y-49700D02*
X41694Y-49300D01*
X41694Y-49345D02*
X41794Y-49434D01*
X42398Y-48700D02*
X42398Y-48300D01*
X42398Y-48300D02*
X42098Y-48300D01*
X42098Y-48300D02*
X42048Y-48345D01*
X42048Y-48345D02*
X42048Y-48434D01*
X42048Y-48434D02*
X42098Y-48478D01*
X42098Y-48478D02*
X42398Y-48478D01*
X42098Y-48478D02*
X42048Y-48567D01*
X42048Y-48567D02*
X42048Y-48656D01*
X42048Y-48656D02*
X42098Y-48700D01*
X42098Y-48700D02*
X42398Y-48700D01*
X41894Y-48700D02*
X41544Y-48300D01*
X41894Y-48656D02*
X41894Y-48345D01*
X41894Y-48345D02*
X41844Y-48300D01*
X41844Y-48300D02*
X41594Y-48300D01*
X41594Y-48300D02*
X41544Y-48345D01*
X41544Y-48345D02*
X41544Y-48656D01*
X41544Y-48656D02*
X41594Y-48700D01*
X41594Y-48700D02*
X41844Y-48700D01*
X41844Y-48700D02*
X41894Y-48656D01*
X44350Y-48345D02*
X44350Y-48300D01*
X44350Y-48300D02*
X44600Y-48300D01*
X44600Y-48300D02*
X44650Y-48345D01*
X44650Y-48345D02*
X44650Y-48656D01*
X44650Y-48656D02*
X44600Y-48700D01*
X44600Y-48700D02*
X44350Y-48700D01*
X44350Y-48700D02*
X44300Y-48656D01*
X44300Y-48656D02*
X44300Y-48523D01*
X44300Y-48523D02*
X44450Y-48523D01*
X44146Y-48700D02*
X44146Y-48300D01*
X44146Y-48300D02*
X43796Y-48700D01*
X43796Y-48700D02*
X43796Y-48300D01*
X43592Y-48700D02*
X43592Y-48300D01*
X43642Y-48300D02*
X43342Y-48300D01*
X43342Y-48300D02*
X43292Y-48345D01*
X43292Y-48345D02*
X43292Y-48656D01*
X43292Y-48656D02*
X43342Y-48700D01*
X43342Y-48700D02*
X43642Y-48700D01*
X44650Y-49700D02*
X44650Y-49300D01*
X44650Y-49300D02*
X44350Y-49300D01*
X44350Y-49300D02*
X44300Y-49345D01*
X44300Y-49345D02*
X44300Y-49478D01*
X44300Y-49478D02*
X44350Y-49523D01*
X44350Y-49523D02*
X44650Y-49523D01*
X44146Y-49300D02*
X44046Y-49700D01*
X44046Y-49700D02*
X43946Y-49567D01*
X43946Y-49567D02*
X43846Y-49700D01*
X43846Y-49700D02*
X43746Y-49300D01*
X43642Y-49700D02*
X43642Y-49300D01*
X43642Y-49300D02*
X43342Y-49300D01*
X43342Y-49300D02*
X43292Y-49345D01*
X43292Y-49345D02*
X43292Y-49478D01*
X43292Y-49478D02*
X43342Y-49523D01*
X43342Y-49523D02*
X43642Y-49523D01*
X43492Y-49523D02*
X43292Y-49700D01*
X35650Y-49700D02*
X35650Y-49300D01*
X35650Y-49300D02*
X35350Y-49300D01*
X35350Y-49300D02*
X35300Y-49345D01*
X35300Y-49345D02*
X35300Y-49478D01*
X35300Y-49478D02*
X35350Y-49523D01*
X35350Y-49523D02*
X35650Y-49523D01*
X35146Y-49300D02*
X35046Y-49700D01*
X35046Y-49700D02*
X34946Y-49567D01*
X34946Y-49567D02*
X34846Y-49700D01*
X34846Y-49700D02*
X34746Y-49300D01*
X34642Y-49700D02*
X34642Y-49300D01*
X34642Y-49300D02*
X34342Y-49300D01*
X34342Y-49300D02*
X34292Y-49345D01*
X34292Y-49345D02*
X34292Y-49478D01*
X34292Y-49478D02*
X34342Y-49523D01*
X34342Y-49523D02*
X34642Y-49523D01*
X34492Y-49523D02*
X34292Y-49700D01*
X35350Y-48345D02*
X35350Y-48300D01*
X35350Y-48300D02*
X35600Y-48300D01*
X35600Y-48300D02*
X35650Y-48345D01*
X35650Y-48345D02*
X35650Y-48656D01*
X35650Y-48656D02*
X35600Y-48700D01*
X35600Y-48700D02*
X35350Y-48700D01*
X35350Y-48700D02*
X35300Y-48656D01*
X35300Y-48656D02*
X35300Y-48523D01*
X35300Y-48523D02*
X35450Y-48523D01*
X35146Y-48700D02*
X35146Y-48300D01*
X35146Y-48300D02*
X34796Y-48700D01*
X34796Y-48700D02*
X34796Y-48300D01*
X34592Y-48700D02*
X34592Y-48300D01*
X34642Y-48300D02*
X34342Y-48300D01*
X34342Y-48300D02*
X34292Y-48345D01*
X34292Y-48345D02*
X34292Y-48656D01*
X34292Y-48656D02*
X34342Y-48700D01*
X34342Y-48700D02*
X34642Y-48700D01*
X53350Y-30345D02*
X53350Y-30300D01*
X53350Y-30300D02*
X53600Y-30300D01*
X53600Y-30300D02*
X53650Y-30345D01*
X53650Y-30345D02*
X53650Y-30656D01*
X53650Y-30656D02*
X53600Y-30700D01*
X53600Y-30700D02*
X53350Y-30700D01*
X53350Y-30700D02*
X53300Y-30656D01*
X53300Y-30656D02*
X53300Y-30523D01*
X53300Y-30523D02*
X53450Y-30523D01*
X53146Y-30700D02*
X53146Y-30300D01*
X53146Y-30300D02*
X52796Y-30700D01*
X52796Y-30700D02*
X52796Y-30300D01*
X52592Y-30700D02*
X52592Y-30300D01*
X52642Y-30300D02*
X52342Y-30300D01*
X52342Y-30300D02*
X52292Y-30345D01*
X52292Y-30345D02*
X52292Y-30656D01*
X52292Y-30656D02*
X52342Y-30700D01*
X52342Y-30700D02*
X52642Y-30700D01*
X53650Y-31700D02*
X53650Y-31300D01*
X53650Y-31300D02*
X53350Y-31300D01*
X53350Y-31300D02*
X53300Y-31345D01*
X53300Y-31345D02*
X53300Y-31478D01*
X53300Y-31478D02*
X53350Y-31523D01*
X53350Y-31523D02*
X53650Y-31523D01*
X53146Y-31300D02*
X53046Y-31700D01*
X53046Y-31700D02*
X52946Y-31567D01*
X52946Y-31567D02*
X52846Y-31700D01*
X52846Y-31700D02*
X52746Y-31300D01*
X52642Y-31700D02*
X52642Y-31300D01*
X52642Y-31300D02*
X52342Y-31300D01*
X52342Y-31300D02*
X52292Y-31345D01*
X52292Y-31345D02*
X52292Y-31478D01*
X52292Y-31478D02*
X52342Y-31523D01*
X52342Y-31523D02*
X52642Y-31523D01*
X52492Y-31523D02*
X52292Y-31700D01*
X44350Y-30345D02*
X44350Y-30300D01*
X44350Y-30300D02*
X44600Y-30300D01*
X44600Y-30300D02*
X44650Y-30345D01*
X44650Y-30345D02*
X44650Y-30656D01*
X44650Y-30656D02*
X44600Y-30700D01*
X44600Y-30700D02*
X44350Y-30700D01*
X44350Y-30700D02*
X44300Y-30656D01*
X44300Y-30656D02*
X44300Y-30523D01*
X44300Y-30523D02*
X44450Y-30523D01*
X44146Y-30700D02*
X44146Y-30300D01*
X44146Y-30300D02*
X43796Y-30700D01*
X43796Y-30700D02*
X43796Y-30300D01*
X43592Y-30700D02*
X43592Y-30300D01*
X43642Y-30300D02*
X43342Y-30300D01*
X43342Y-30300D02*
X43292Y-30345D01*
X43292Y-30345D02*
X43292Y-30656D01*
X43292Y-30656D02*
X43342Y-30700D01*
X43342Y-30700D02*
X43642Y-30700D01*
X44650Y-31700D02*
X44650Y-31300D01*
X44650Y-31300D02*
X44350Y-31300D01*
X44350Y-31300D02*
X44300Y-31345D01*
X44300Y-31345D02*
X44300Y-31478D01*
X44300Y-31478D02*
X44350Y-31523D01*
X44350Y-31523D02*
X44650Y-31523D01*
X44146Y-31300D02*
X44046Y-31700D01*
X44046Y-31700D02*
X43946Y-31567D01*
X43946Y-31567D02*
X43846Y-31700D01*
X43846Y-31700D02*
X43746Y-31300D01*
X43642Y-31700D02*
X43642Y-31300D01*
X43642Y-31300D02*
X43342Y-31300D01*
X43342Y-31300D02*
X43292Y-31345D01*
X43292Y-31345D02*
X43292Y-31478D01*
X43292Y-31478D02*
X43342Y-31523D01*
X43342Y-31523D02*
X43642Y-31523D01*
X43492Y-31523D02*
X43292Y-31700D01*
G54D31*
X89500Y-52500D02*
X70000Y-52500D01*
X90500Y-28500D02*
X90500Y-51500D01*
X70000Y-27500D02*
X89500Y-27500D01*
X68000Y-27500D02*
X31500Y-27500D01*
X69000Y-51500D02*
X69000Y-28500D01*
X31000Y-52500D02*
X68000Y-52500D01*
X30000Y-28500D02*
X30000Y-51500D01*
X28500Y-54000D02*
X92000Y-54000D01*
X28500Y-26000D02*
X92000Y-26000D01*
X92000Y-26000D02*
X92000Y-54000D01*
X28500Y-26000D02*
X28500Y-54000D01*
M02*
