M48
;DRILL file {PCBnew (20080825c)} date 7/8/2009-22:24:46
;FORMAT={2:4/ absolute / inch / suppress trailing zeros}
R,T
VER,1
FMAT,2
INCH,LZ
TCST,OFF
ICI,OFF
ATC,ON
T1C0.015
T2C0.027
T3C0.032
T4C0.036
T5C0.039
T6C0.040
T7C0.125
T8C0.177
%
M47
G05
M72
T1
X027323Y-043136
X027832Y-039388
X028036Y-041644
X030484Y-039208
X031344Y-044976
X03196Y-044008
X032792Y-038536
X032816Y-041744
X032888Y-045424
X033304Y-04066
X033664Y-045416
X034804Y-040648
X035512Y-037864
X035528Y-034936
X035968Y-037344
X03752Y-035744
X037808Y-03352
X037952Y-035592
X03832Y-03504
X038576Y-037744
X038842Y-042054
X039216Y-04414
X039584Y-038784
X040112Y-03964
X040368Y-037728
X040384Y-034648
X040496Y-0398
X040728Y-045008
X040928Y-040008
X040944Y-034128
X041128Y-045408
X04136Y-040288
X04148Y-038104
X043968Y-039248
X04432Y-03896
X04472Y-038672
X04504Y-038416
X046464Y-031952
X050528Y-034328
X054784Y-043232
T2
X048Y-03904
X048Y-04096
T3
X0275Y-0335
X0275Y-0365
X0285Y-0335
X0285Y-0365
X0295Y-0335
X0295Y-0365
X0305Y-0335
X0305Y-0365
X0315Y-0335
X0315Y-0365
X0325Y-0335
X0325Y-0365
X0335Y-0335
X0335Y-0365
X048614Y-04822
X048614Y-05078
X050386Y-04822
X050386Y-05078
X053114Y-04822
X053114Y-05078
X054886Y-04822
X054886Y-05078
T4
X024866Y-039311
X024866Y-040689
T5
X0285Y-0485
X0285Y-0495
X0295Y-0485
X0295Y-0495
X0305Y-0485
X0305Y-0495
X0315Y-0485
X0315Y-0495
X0325Y-0485
X0325Y-0495
X0395Y-0305
X0395Y-0315
X0395Y-0485
X0395Y-0495
X0405Y-0305
X0405Y-0315
X0405Y-0485
X0405Y-0495
X0415Y-0305
X0415Y-0315
X0415Y-0485
X0415Y-0495
X0425Y-0305
X0425Y-0315
X0425Y-0485
X0425Y-0495
X0435Y-0305
X0435Y-0315
X0435Y-0485
X0435Y-0495
X0505Y-0305
X0505Y-0315
X0515Y-0305
X0515Y-0315
X0525Y-0305
X0525Y-0315
X0535Y-0305
X0535Y-0315
X0545Y-0305
X0545Y-0315
T6
X0325Y-0305
X0335Y-0305
X0565Y-0395
X0565Y-0405
T7
X024Y-0285
X024Y-0515
X0605Y-0285
X0605Y-0515
X0855Y-0285
X0855Y-0515
T8
X063453Y-04
X082547Y-04
T0
M30
